<?xml version="1.0" encoding="UTF-8" standalone="no"?><!-- Generator: Gravit.io --><svg xmlns="http://www.w3.org/2000/svg" xmlns:xlink="http://www.w3.org/1999/xlink" style="isolation:isolate" viewBox="0 0 184 42" width="184pt" height="42pt"><defs><clipPath id="_clipPath_4BhCJQV81cF3MqfsfVGMnMeoaSOaqne7"><rect width="184" height="42"/></clipPath></defs><g clip-path="url(#_clipPath_4BhCJQV81cF3MqfsfVGMnMeoaSOaqne7)"><g><g><g><path d=" M 30.746 2.499 L 29.075 2.041 C 28.86 1.969 28.648 1.992 28.442 2.108 C 28.236 2.225 28.096 2.4 28.024 2.634 L 17.973 37.422 C 17.901 37.656 17.924 37.876 18.041 38.083 C 18.157 38.289 18.332 38.429 18.566 38.5 L 20.237 38.959 C 20.452 39.031 20.663 39.008 20.87 38.891 C 21.077 38.774 21.216 38.599 21.288 38.366 L 31.339 3.577 C 31.411 3.344 31.389 3.123 31.272 2.917 C 31.155 2.71 30.98 2.571 30.746 2.499 Z " fill="rgb(87,203,204)"/><path d=" M 15.683 9.29 C 15.683 9.057 15.593 8.85 15.414 8.67 L 14.066 7.323 C 13.887 7.143 13.68 7.053 13.447 7.053 C 13.213 7.053 13.006 7.143 12.827 7.323 L 0.27 19.88 C 0.09 20.06 0 20.266 0 20.5 C 0 20.733 0.09 20.94 0.27 21.12 L 12.827 33.677 C 13.006 33.857 13.213 33.946 13.446 33.946 C 13.68 33.946 13.887 33.856 14.066 33.677 L 15.414 32.33 C 15.593 32.151 15.683 31.944 15.683 31.71 C 15.683 31.477 15.593 31.27 15.414 31.091 L 4.824 20.5 L 15.414 9.91 C 15.594 9.73 15.683 9.524 15.683 9.29 Z " fill="rgb(87,203,204)"/><path d=" M 49.043 19.88 L 36.485 7.323 C 36.306 7.143 36.099 7.053 35.866 7.053 C 35.632 7.053 35.426 7.143 35.246 7.323 L 33.899 8.67 C 33.719 8.85 33.63 9.056 33.63 9.29 C 33.63 9.524 33.719 9.73 33.899 9.91 L 44.489 20.5 L 33.899 31.091 C 33.719 31.27 33.63 31.477 33.63 31.71 C 33.63 31.944 33.719 32.151 33.899 32.33 L 35.246 33.677 C 35.426 33.857 35.632 33.946 35.866 33.946 C 36.099 33.946 36.306 33.856 36.485 33.677 L 49.043 21.12 C 49.222 20.94 49.312 20.733 49.312 20.5 C 49.312 20.266 49.222 20.059 49.043 19.88 Z " fill="rgb(87,203,204)"/></g></g></g><text transform="matrix(1,0,0,1,50.5,29.428)" style="font-family:'Century Gothic';font-weight:700;font-size:24px;font-style:normal;font-variant-ligatures:none;letter-spacing:1;fill:#ffffff;stroke:none;">СайтКомп</text></g></svg>