<svg xmlns="http://www.w3.org/2000/svg" xmlns:xlink="http://www.w3.org/1999/xlink" viewBox="0 0 311 301.57"><defs><clipPath id="clip-path" transform="translate(-11 -5)"><rect id="_Обтравочный_контур_" data-name="&lt;Обтравочный контур&gt;" x="163.55" y="70.73" width="59.36" height="52.9" style="fill:none"/></clipPath></defs><title>2</title><g style="isolation:isolate"><g id="Слой_2" data-name="Слой 2"><g id="_Группа_" data-name="&lt;Группа&gt;"><g id="_Группа_2" data-name="&lt;Группа&gt;"><path d="M26.51,190.78q-.43.91-.77,1.85" transform="translate(-11 -5)" style="fill:none;stroke:#2d3e76;stroke-linecap:round;stroke-linejoin:round;stroke-width:2px"/><path d="M24.73,196.47c-1.7,9.78,2.77,20.65,11.34,25.82a41.09,41.09,0,0,0,12.45,4.47c30.69,6.82,62.7,1.65,93.4-5.14s61.46-15.24,92.89-14.93c23.78.23,53.1-1,63,20.35,6.27,13.53,2.12,34.59-10.6,41.65" transform="translate(-11 -5)" style="fill:none;stroke:#2d3e76;stroke-linecap:round;stroke-linejoin:round;stroke-width:2px;stroke-dasharray:3.9812443256378174,3.9812443256378174"/><path d="M285.44,269.59q-.9.44-1.81.85" transform="translate(-11 -5)" style="fill:none;stroke:#2d3e76;stroke-linecap:round;stroke-linejoin:round;stroke-width:2px"/></g><rect id="_Прямоугольник_" data-name="&lt;Прямоугольник&gt;" x="37.02" y="33.12" width="233.67" height="255.9" rx="10" ry="10" style="fill:#edece8"/><path id="_Прямоугольник_2" data-name="&lt;Прямоугольник&gt;" d="M47,33.12H260.69a10,10,0,0,1,10,10v30a0,0,0,0,1,0,0H37a0,0,0,0,1,0,0v-30A10,10,0,0,1,47,33.12Z" style="fill:#202f5a"/><g id="_Группа_3" data-name="&lt;Группа&gt;"><circle id="_Контур_" data-name="&lt;Контур&gt;" cx="50.68" cy="53.14" r="3.18" style="fill:#fff"/><circle id="_Контур_2" data-name="&lt;Контур&gt;" cx="65.29" cy="53.14" r="3.18" style="fill:#fff"/><circle id="_Контур_3" data-name="&lt;Контур&gt;" cx="78.7" cy="53.14" r="3.18" style="fill:#fff"/></g><g id="_Группа_4" data-name="&lt;Группа&gt;"><circle id="_Контур_4" data-name="&lt;Контур&gt;" cx="18.51" cy="93.66" r="18.51" style="fill:#f4c44e"/><g id="_Группа_5" data-name="&lt;Группа&gt;"><g id="_Группа_6" data-name="&lt;Группа&gt;"><path id="_Контур_5" data-name="&lt;Контур&gt;" d="M40,94H19a1.79,1.79,0,0,1-1.79-1.79h0A1.79,1.79,0,0,1,19,90.4H40a1.79,1.79,0,0,1,1.79,1.79h0A1.79,1.79,0,0,1,40,94Z" transform="translate(-11 -5)" style="fill:#fff"/></g><g id="_Группа_7" data-name="&lt;Группа&gt;"><path id="_Контур_6" data-name="&lt;Контур&gt;" d="M40,100.45H19a1.79,1.79,0,0,1-1.79-1.79h0A1.79,1.79,0,0,1,19,96.87H40a1.79,1.79,0,0,1,1.79,1.79h0A1.79,1.79,0,0,1,40,100.45Z" transform="translate(-11 -5)" style="fill:#fff"/></g><g id="_Группа_8" data-name="&lt;Группа&gt;"><path id="_Контур_7" data-name="&lt;Контур&gt;" d="M40,106.92H19a1.79,1.79,0,0,1-1.79-1.79h0A1.79,1.79,0,0,1,19,103.34H40a1.79,1.79,0,0,1,1.79,1.79h0A1.79,1.79,0,0,1,40,106.92Z" transform="translate(-11 -5)" style="fill:#fff"/></g></g></g><g id="_Группа_9" data-name="&lt;Группа&gt;"><g id="_Группа_10" data-name="&lt;Группа&gt;"><rect id="_Прямоугольник_3" data-name="&lt;Прямоугольник&gt;" x="132.86" y="197.67" width="123.41" height="8.36" style="fill:#fff"/><rect id="_Прямоугольник_4" data-name="&lt;Прямоугольник&gt;" x="132.86" y="212.8" width="123.41" height="8.36" style="fill:#fff"/><rect id="_Прямоугольник_5" data-name="&lt;Прямоугольник&gt;" x="132.86" y="227.93" width="123.41" height="8.36" style="fill:#fff"/><rect id="_Прямоугольник_6" data-name="&lt;Прямоугольник&gt;" x="132.86" y="243.05" width="123.41" height="8.36" style="fill:#fff"/><rect id="_Прямоугольник_7" data-name="&lt;Прямоугольник&gt;" x="132.86" y="258.62" width="123.41" height="8.36" style="fill:#fff"/></g><g id="_Группа_11" data-name="&lt;Группа&gt;"><g id="_Группа_12" data-name="&lt;Группа&gt;"><g id="_Группа_13" data-name="&lt;Группа&gt;"><path id="_Контур_8" data-name="&lt;Контур&gt;" d="M100.07,267.16a37.62,37.62,0,0,1,0-75.24v14.31a23.3,23.3,0,1,0,23.3,24l14.31.42A37.43,37.43,0,0,1,100.07,267.16Z" transform="translate(-11 -5)" style="fill:#f2b101"/></g><g id="_Группа_14" data-name="&lt;Группа&gt;"><path id="_Контур_9" data-name="&lt;Контур&gt;" d="M137.67,230.65l-14.31-.41q0-.35,0-.7a23.33,23.33,0,0,0-23.31-23.3V191.92a37.66,37.66,0,0,1,37.62,37.62Q137.69,230.1,137.67,230.65Z" transform="translate(-11 -5)" style="fill:#f9de8f"/></g></g><g id="_Группа_15" data-name="&lt;Группа&gt;"><path id="_Составной_контур_" data-name="&lt;Составной контур&gt;" d="M93.51,224.87v1.4L90,234.22H87.69L91,226.63h-3.1v1.52H86v-3.29Z" transform="translate(-11 -5)" style="fill:#2d3e76"/><path id="_Составной_контур_2" data-name="&lt;Составной контур&gt;" d="M94.21,229.54c0-3.08,1.71-4.84,4-4.84s4,1.75,4,4.84-1.7,4.84-4,4.84S94.21,232.63,94.21,229.54Zm5.84,0c0-2.12-.75-3-1.83-3s-1.82.88-1.82,3,.75,3,1.82,3S100.05,231.67,100.05,229.54Z" transform="translate(-11 -5)" style="fill:#2d3e76"/><path id="_Составной_контур_3" data-name="&lt;Составной контур&gt;" d="M103.13,227.34a2.33,2.33,0,1,1,2.32,2.58A2.33,2.33,0,0,1,103.13,227.34Zm3.3,0c0-1-.39-1.48-1-1.48s-1,.49-1,1.48.4,1.48,1,1.48S106.43,228.34,106.43,227.34Zm4.6-2.47h1.59l-6.38,9.35h-1.59Zm-1.54,6.88a2.33,2.33,0,1,1,2.31,2.58A2.32,2.32,0,0,1,109.48,231.75Zm3.29,0c0-1-.39-1.48-1-1.48s-1,.48-1,1.48.4,1.48,1,1.48S112.77,232.74,112.77,231.75Z" transform="translate(-11 -5)" style="fill:#2d3e76"/></g></g></g><path id="_Составной_контур_4" data-name="&lt;Составной контур&gt;" d="M45.73,159.24a11.75,11.75,0,0,0-17.29-5A15.45,15.45,0,0,0,22.9,173.4l5.82,12.27,11.47-7.26a15.44,15.44,0,0,0,5.54-19.16ZM33,171a6.33,6.33,0,1,1,7.84-4.32A6.33,6.33,0,0,1,33,171Zm0,0" transform="translate(-11 -5)" style="fill:#ffd983"/><g id="_Группа_16" data-name="&lt;Группа&gt;"><path d="M283.63,270.44q-.86.49-1.75,1" transform="translate(-11 -5)" style="fill:none;stroke:#2d3e76;stroke-linecap:round;stroke-linejoin:round;stroke-width:2px"/><path d="M278.25,273.17c-55,24.58-196.17.6-202.17,28.4" transform="translate(-11 -5)" style="fill:none;stroke:#2d3e76;stroke-linecap:round;stroke-linejoin:round;stroke-width:2px;stroke-dasharray:4.040436267852783,4.040436267852783"/><path d="M75.88,303.58a11,11,0,0,0,.21,2" transform="translate(-11 -5)" style="fill:none;stroke:#2d3e76;stroke-linecap:round;stroke-linejoin:round;stroke-width:2px"/></g><g id="_Группа_17" data-name="&lt;Группа&gt;"><rect id="_Прямоугольник_8" data-name="&lt;Прямоугольник&gt;" x="46.37" y="82.57" width="101.19" height="94.06" style="fill:#fff"/><rect id="_Прямоугольник_9" data-name="&lt;Прямоугольник&gt;" x="51.99" y="138.36" width="10.38" height="32.87" style="fill:#f2b101"/><rect id="_Прямоугольник_10" data-name="&lt;Прямоугольник&gt;" x="67.24" y="107.22" width="10.38" height="64" style="fill:#ffd983"/><rect id="_Прямоугольник_11" data-name="&lt;Прямоугольник&gt;" x="82.48" y="119.22" width="10.38" height="52" style="fill:#f2b101"/><rect id="_Прямоугольник_12" data-name="&lt;Прямоугольник&gt;" x="97.72" y="97.71" width="10.38" height="73.52" style="fill:#ffd983"/><g id="_Группа_18" data-name="&lt;Группа&gt;"><rect id="_Прямоугольник_13" data-name="&lt;Прямоугольник&gt;" x="115.02" y="143.49" width="4.4" height="3.66" style="fill:#f2b101"/><rect id="_Прямоугольник_14" data-name="&lt;Прямоугольник&gt;" x="121.6" y="143.49" width="19.96" height="3.66" style="fill:#f2b101"/><rect id="_Прямоугольник_15" data-name="&lt;Прямоугольник&gt;" x="115.02" y="152.93" width="4.4" height="3.66" style="fill:#ffd983"/><rect id="_Прямоугольник_16" data-name="&lt;Прямоугольник&gt;" x="121.6" y="152.93" width="19.96" height="3.66" style="fill:#f2b101"/><rect id="_Прямоугольник_17" data-name="&lt;Прямоугольник&gt;" x="115.02" y="162.37" width="4.4" height="3.66" style="fill:#f2b101"/><rect id="_Прямоугольник_18" data-name="&lt;Прямоугольник&gt;" x="121.6" y="162.37" width="19.96" height="3.66" style="fill:#f2b101"/></g></g><g id="_Группа_19" data-name="&lt;Группа&gt;"><image width="174" height="105" transform="translate(137 39)" xlink:href="21.png" style="opacity:0.75;mix-blend-mode:multiply"/><rect id="_Контур_10" data-name="&lt;Контур&gt;" x="144.63" y="46" width="154.46" height="82.8" rx="5.33" ry="5.33" style="fill:#fff"/><g id="_Группа_21" data-name="&lt;Группа&gt;"><circle id="_Контур_11" data-name="&lt;Контур&gt;" cx="262.31" cy="54.96" r="3.18" style="fill:#f4c44e"/><circle id="_Контур_12" data-name="&lt;Контур&gt;" cx="276.92" cy="54.96" r="3.18" style="fill:#f4c44e"/><circle id="_Контур_13" data-name="&lt;Контур&gt;" cx="290.33" cy="54.96" r="3.18" style="fill:#f4c44e"/></g><g id="_Группа_22" data-name="&lt;Группа&gt;"><g id="_Группа_23" data-name="&lt;Группа&gt;"><rect x="152.55" y="65.73" width="59.36" height="52.9" style="fill:#ffbe00"/></g><g id="_Группа_обтравки_2" data-name="&lt;Группа обтравки&gt;"><g style="clip-path:url(#clip-path)"><g id="_Группа_24" data-name="&lt;Группа&gt;"><path d="M158.69,113.21s12.15-20.74,16.83-20.94,23.88,28.65,24.8,37.8-44.5,5.71-44.5,5.71Z" transform="translate(-11 -5)" style="fill:#ffcf57"/></g><g id="_Группа_25" data-name="&lt;Группа&gt;"><path d="M177.86,117.95A137.71,137.71,0,0,1,195,89.18c4.85-6.22,9.67-10.36,12.42-10.38,5.45,0,28.91,38.3,29.2,50.54s-66.92,7.08-66.92,7.08Z" transform="translate(-11 -5)" style="fill:#efb237"/></g><g id="_Группа_26" data-name="&lt;Группа&gt;"><circle cx="174.6" cy="78.67" r="7.49" style="fill:#ffd983"/></g></g></g></g><g id="_Группа_27" data-name="&lt;Группа&gt;"><rect x="218.68" y="98.15" width="71.65" height="5.57" style="fill:#202f5a"/></g><g id="_Группа_28" data-name="&lt;Группа&gt;"><g id="_Группа_29" data-name="&lt;Группа&gt;"><rect x="218.68" y="69.09" width="57.32" height="5.57" style="fill:#202f5a"/></g><g id="_Группа_30" data-name="&lt;Группа&gt;"><rect x="218.68" y="82.63" width="71.65" height="5.57" style="fill:#202f5a"/></g><g id="_Группа_31" data-name="&lt;Группа&gt;"><rect x="218.68" y="109.7" width="71.65" height="5.57" style="fill:#202f5a"/></g></g></g><g id="_Группа_33" data-name="&lt;Группа&gt;"><circle id="_Контур_14" data-name="&lt;Контур&gt;" cx="258.46" cy="154.61" r="35.19" style="fill:#202f5a"/><circle id="_Контур_15" data-name="&lt;Контур&gt;" cx="258.46" cy="154.61" r="26.55" style="fill:#fff"/><g id="_Группа_34" data-name="&lt;Группа&gt;"><path id="_Контур_16" data-name="&lt;Контур&gt;" d="M291.54,159.61h-4.13a18,18,0,0,0-18-18v-4.13A22.11,22.11,0,0,1,291.54,159.61Z" transform="translate(-11 -5)" style="fill:#f2b101"/></g><g id="_Группа_35" data-name="&lt;Группа&gt;"><path id="_Контур_17" data-name="&lt;Контур&gt;" d="M251.5,159.61h-4.13a22.11,22.11,0,0,1,22.08-22.08v4.13A18,18,0,0,0,251.5,159.61Z" transform="translate(-11 -5)" style="fill:#202f5a"/></g><g id="_Группа_36" data-name="&lt;Группа&gt;"><circle id="_Контур_18" data-name="&lt;Контур&gt;" cx="258.46" cy="154.61" r="4.47" style="fill:#202f5a"/><g id="_Группа_37" data-name="&lt;Группа&gt;"><path id="_Контур_19" data-name="&lt;Контур&gt;" d="M278.69,151.24a1.38,1.38,0,0,0-2.06-1.82l-8.2,9.28,2.06,1.82Z" transform="translate(-11 -5)" style="fill:#202f5a"/></g></g></g><g id="_Группа_38" data-name="&lt;Группа&gt;"><g id="_Группа_39" data-name="&lt;Группа&gt;"><g id="_Группа_40" data-name="&lt;Группа&gt;"><g id="_Группа_41" data-name="&lt;Группа&gt;"><g id="_Группа_42" data-name="&lt;Группа&gt;"><g id="_Группа_43" data-name="&lt;Группа&gt;"><path id="_Составной_контур_5" data-name="&lt;Составной контур&gt;" d="M220,46.44v3.18a2.5,2.5,0,0,0,2.49,2.5h1.94a1.58,1.58,0,0,1,1.34,1c.19.52.41,1,.65,1.54a1.58,1.58,0,0,1-.2,1.68l-1.39,1.39a2.5,2.5,0,0,0,0,3.52L227,63.53a2.5,2.5,0,0,0,3.52,0l1.38-1.39a1.44,1.44,0,0,1,1-.36,1.58,1.58,0,0,1,.68.15,14.64,14.64,0,0,0,1.55.64,1.61,1.61,0,0,1,1,1.34v1.95a2.49,2.49,0,0,0,2.49,2.49h3.18a2.49,2.49,0,0,0,2.49-2.49V63.92a1.6,1.6,0,0,1,1-1.34,14.75,14.75,0,0,0,1.55-.64,1.51,1.51,0,0,1,.68-.15,1.45,1.45,0,0,1,1,.36L250,63.53a2.51,2.51,0,0,0,1.76.73,2.48,2.48,0,0,0,1.76-.73l2.26-2.25a2.49,2.49,0,0,0,0-3.52l-1.38-1.39a1.58,1.58,0,0,1-.21-1.68,15,15,0,0,0,.64-1.54,1.59,1.59,0,0,1,1.34-1h1.95a2.5,2.5,0,0,0,2.49-2.5V46.44a2.5,2.5,0,0,0-2.49-2.49h-1.95a1.61,1.61,0,0,1-1.34-1,13.89,13.89,0,0,0-.64-1.54,1.59,1.59,0,0,1,.21-1.69l1.38-1.38a2.49,2.49,0,0,0,0-3.52l-2.26-2.25a2.46,2.46,0,0,0-1.76-.72,2.49,2.49,0,0,0-1.76.72l-1.38,1.39a1.41,1.41,0,0,1-1,.35,1.61,1.61,0,0,1-.68-.14,15.75,15.75,0,0,0-1.55-.65,1.6,1.6,0,0,1-1-1.34V30.2a2.5,2.5,0,0,0-2.49-2.49H238.7a2.5,2.5,0,0,0-2.49,2.49v1.94a1.6,1.6,0,0,1-1,1.34c-.53.19-1,.41-1.55.65a1.44,1.44,0,0,1-.68.14,1.4,1.4,0,0,1-1-.35l-1.38-1.39a2.51,2.51,0,0,0-3.52,0l-2.25,2.25a2.5,2.5,0,0,0,0,3.52l1.39,1.38a1.61,1.61,0,0,1,.21,1.69,13.37,13.37,0,0,0-.64,1.54,1.62,1.62,0,0,1-1.35,1h-1.94A2.49,2.49,0,0,0,220,46.44Zm20.33-5.7A7.29,7.29,0,1,1,233,48,7.3,7.3,0,0,1,240.29,40.74Z" transform="translate(-11 -5)" style="fill:#f2b101"/></g></g></g></g></g><g id="_Группа_44" data-name="&lt;Группа&gt;"><g id="_Группа_45" data-name="&lt;Группа&gt;"><g id="_Группа_46" data-name="&lt;Группа&gt;"><g id="_Группа_47" data-name="&lt;Группа&gt;"><g id="_Группа_48" data-name="&lt;Группа&gt;"><path id="_Составной_контур_6" data-name="&lt;Составной контур&gt;" d="M205.71,18.15v2.23a1.75,1.75,0,0,0,1.75,1.75h1.36a1.11,1.11,0,0,1,.94.72c.13.36.28.73.45,1.08a1.11,1.11,0,0,1-.14,1.18l-1,1a1.76,1.76,0,0,0,0,2.47l1.58,1.58a1.75,1.75,0,0,0,2.47,0l1-1a1,1,0,0,1,.7-.25,1.11,1.11,0,0,1,.48.11,10.33,10.33,0,0,0,1.09.45,1.13,1.13,0,0,1,.73.94v1.37a1.75,1.75,0,0,0,1.75,1.74h2.23a1.75,1.75,0,0,0,1.75-1.74V30.41a1.12,1.12,0,0,1,.73-.94,10.36,10.36,0,0,0,1.08-.45,1.06,1.06,0,0,1,.48-.11,1,1,0,0,1,.7.25l1,1a1.76,1.76,0,0,0,1.23.51,1.74,1.74,0,0,0,1.23-.51l1.58-1.58a1.75,1.75,0,0,0,0-2.47l-1-1a1.11,1.11,0,0,1-.15-1.18,10.44,10.44,0,0,0,.45-1.08,1.11,1.11,0,0,1,.94-.72h1.37a1.76,1.76,0,0,0,1.75-1.75V18.15a1.75,1.75,0,0,0-1.75-1.75h-1.37a1.13,1.13,0,0,1-.94-.73,9.72,9.72,0,0,0-.45-1.08,1.12,1.12,0,0,1,.15-1.18l1-1a1.75,1.75,0,0,0,0-2.47l-1.58-1.58A1.73,1.73,0,0,0,228,7.88a1.74,1.74,0,0,0-1.23.51l-1,1a1,1,0,0,1-.7.25,1.13,1.13,0,0,1-.48-.1,11,11,0,0,0-1.08-.45,1.12,1.12,0,0,1-.73-.94V6.75A1.75,1.75,0,0,0,221.08,5h-2.23a1.75,1.75,0,0,0-1.75,1.75V8.11a1.13,1.13,0,0,1-.73.94c-.37.14-.73.29-1.09.45a1,1,0,0,1-.48.1,1,1,0,0,1-.69-.25l-1-1a1.76,1.76,0,0,0-2.47,0L209.09,10a1.75,1.75,0,0,0,0,2.47l1,1a1.13,1.13,0,0,1,.15,1.18,9.39,9.39,0,0,0-.45,1.08,1.14,1.14,0,0,1-.95.73h-1.36A1.75,1.75,0,0,0,205.71,18.15Zm14.26-4a5.11,5.11,0,1,1-5.12,5.12A5.12,5.12,0,0,1,220,14.15Z" transform="translate(-11 -5)" style="fill:#2d3e76"/></g></g></g></g></g></g><path id="_Составной_контур_7" data-name="&lt;Составной контур&gt;" d="M56.46,283.24l-9.21-11.61a20.61,20.61,0,1,0-4.89,3.22l9.53,12a2.92,2.92,0,0,0,4.1.47h0A2.92,2.92,0,0,0,56.46,283.24ZM18,256.23A15.57,15.57,0,1,1,33.62,271.8,15.59,15.59,0,0,1,18,256.23Z" transform="translate(-11 -5)" style="fill:#2d3e76"/><g id="_Группа_49" data-name="&lt;Группа&gt;" style="opacity:0.5"><path id="_Составной_контур_8" data-name="&lt;Составной контур&gt;" d="M174.79,150.4h-1.05v-4.24q0-.76,0-1.2l-.25.24-1,.83-.53-.67,1.93-1.52h.88Z" transform="translate(-11 -5)" style="fill:#8e8e8e"/><path id="_Составной_контур_9" data-name="&lt;Составной контур&gt;" d="M181.46,147.12a4.67,4.67,0,0,1-.55,2.54,2.08,2.08,0,0,1-3.34,0,4.58,4.58,0,0,1-.57-2.51,4.69,4.69,0,0,1,.55-2.56,2.08,2.08,0,0,1,3.34,0A4.62,4.62,0,0,1,181.46,147.12Zm-3.39,0a4.79,4.79,0,0,0,.28,1.92,1,1,0,0,0,1.77,0,6.63,6.63,0,0,0,0-3.82,1,1,0,0,0-1.77,0A4.82,4.82,0,0,0,178.07,147.12Z" transform="translate(-11 -5)" style="fill:#8e8e8e"/><path id="_Составной_контур_10" data-name="&lt;Составной контур&gt;" d="M185.43,150.4h-1.05v-4.24q0-.76,0-1.2l-.25.24-1,.83-.53-.67,1.93-1.52h.88Z" transform="translate(-11 -5)" style="fill:#8e8e8e"/><path id="_Составной_контур_11" data-name="&lt;Составной контур&gt;" d="M192.1,147.12a4.67,4.67,0,0,1-.55,2.54,2.08,2.08,0,0,1-3.34,0,4.58,4.58,0,0,1-.57-2.51,4.69,4.69,0,0,1,.55-2.56,2.08,2.08,0,0,1,3.34,0A4.62,4.62,0,0,1,192.1,147.12Zm-3.39,0A4.79,4.79,0,0,0,189,149a1,1,0,0,0,1.77,0,6.63,6.63,0,0,0,0-3.82,1,1,0,0,0-1.77,0A4.82,4.82,0,0,0,188.71,147.12Z" transform="translate(-11 -5)" style="fill:#8e8e8e"/><path id="_Составной_контур_12" data-name="&lt;Составной контур&gt;" d="M196.07,150.4H195v-4.24q0-.76,0-1.2l-.25.24-1,.83-.53-.67,1.93-1.52h.88Z" transform="translate(-11 -5)" style="fill:#8e8e8e"/><path id="_Составной_контур_13" data-name="&lt;Составной контур&gt;" d="M201.4,150.4h-1.05v-4.24q0-.76,0-1.2l-.25.24-1,.83-.53-.67,1.93-1.52h.88Z" transform="translate(-11 -5)" style="fill:#8e8e8e"/><path id="_Составной_контур_14" data-name="&lt;Составной контур&gt;" d="M208.07,147.12a4.67,4.67,0,0,1-.55,2.54,2.08,2.08,0,0,1-3.34,0,4.58,4.58,0,0,1-.57-2.51,4.69,4.69,0,0,1,.55-2.56,2.08,2.08,0,0,1,3.34,0A4.62,4.62,0,0,1,208.07,147.12Zm-3.39,0A4.79,4.79,0,0,0,205,149a1,1,0,0,0,1.77,0,6.63,6.63,0,0,0,0-3.82,1,1,0,0,0-1.77,0A4.82,4.82,0,0,0,204.68,147.12Z" transform="translate(-11 -5)" style="fill:#8e8e8e"/><path id="_Составной_контур_15" data-name="&lt;Составной контур&gt;" d="M212,150.4H211v-4.24q0-.76,0-1.2l-.25.24-1,.83-.53-.67,1.93-1.52H212Z" transform="translate(-11 -5)" style="fill:#8e8e8e"/><path id="_Составной_контур_16" data-name="&lt;Составной контур&gt;" d="M217.36,150.4h-1.05v-4.24q0-.76,0-1.2l-.25.24-1,.83-.53-.67,1.93-1.52h.88Z" transform="translate(-11 -5)" style="fill:#8e8e8e"/><path id="_Составной_контур_17" data-name="&lt;Составной контур&gt;" d="M224,147.12a4.67,4.67,0,0,1-.55,2.54,2.08,2.08,0,0,1-3.34,0,4.58,4.58,0,0,1-.57-2.51,4.69,4.69,0,0,1,.55-2.56,2.08,2.08,0,0,1,3.34,0A4.61,4.61,0,0,1,224,147.12Zm-3.39,0a4.79,4.79,0,0,0,.28,1.92,1,1,0,0,0,1.77,0,6.63,6.63,0,0,0,0-3.82,1,1,0,0,0-1.77,0A4.82,4.82,0,0,0,220.64,147.12Z" transform="translate(-11 -5)" style="fill:#8e8e8e"/><path id="_Составной_контур_18" data-name="&lt;Составной контур&gt;" d="M176.14,157.5a4.67,4.67,0,0,1-.55,2.54,2.08,2.08,0,0,1-3.34,0,4.58,4.58,0,0,1-.57-2.51,4.69,4.69,0,0,1,.55-2.56,2.08,2.08,0,0,1,3.34,0A4.62,4.62,0,0,1,176.14,157.5Zm-3.39,0a4.79,4.79,0,0,0,.28,1.92,1,1,0,0,0,1.77,0,6.63,6.63,0,0,0,0-3.82,1,1,0,0,0-1.77,0A4.82,4.82,0,0,0,172.75,157.5Z" transform="translate(-11 -5)" style="fill:#8e8e8e"/><path id="_Составной_контур_19" data-name="&lt;Составной контур&gt;" d="M180.11,160.78h-1.05v-4.24q0-.76,0-1.2l-.25.24-1,.83-.53-.67,1.93-1.52h.88Z" transform="translate(-11 -5)" style="fill:#8e8e8e"/><path id="_Составной_контур_20" data-name="&lt;Составной контур&gt;" d="M185.43,160.78h-1.05v-4.24q0-.76,0-1.2l-.25.24-1,.83-.53-.67,1.93-1.52h.88Z" transform="translate(-11 -5)" style="fill:#8e8e8e"/><path id="_Составной_контур_21" data-name="&lt;Составной контур&gt;" d="M192.1,157.5a4.67,4.67,0,0,1-.55,2.54,2.08,2.08,0,0,1-3.34,0,4.58,4.58,0,0,1-.57-2.51,4.69,4.69,0,0,1,.55-2.56,2.08,2.08,0,0,1,3.34,0A4.62,4.62,0,0,1,192.1,157.5Zm-3.39,0a4.79,4.79,0,0,0,.28,1.92,1,1,0,0,0,1.77,0,6.63,6.63,0,0,0,0-3.82,1,1,0,0,0-1.77,0A4.82,4.82,0,0,0,188.71,157.5Z" transform="translate(-11 -5)" style="fill:#8e8e8e"/><path id="_Составной_контур_22" data-name="&lt;Составной контур&gt;" d="M196.07,160.78H195v-4.24q0-.76,0-1.2l-.25.24-1,.83-.53-.67,1.93-1.52h.88Z" transform="translate(-11 -5)" style="fill:#8e8e8e"/><path id="_Составной_контур_23" data-name="&lt;Составной контур&gt;" d="M201.4,160.78h-1.05v-4.24q0-.76,0-1.2l-.25.24-1,.83-.53-.67,1.93-1.52h.88Z" transform="translate(-11 -5)" style="fill:#8e8e8e"/><path id="_Составной_контур_24" data-name="&lt;Составной контур&gt;" d="M206.72,160.78h-1.05v-4.24q0-.76,0-1.2l-.25.24-1,.83-.53-.67,1.93-1.52h.88Z" transform="translate(-11 -5)" style="fill:#8e8e8e"/><path id="_Составной_контур_25" data-name="&lt;Составной контур&gt;" d="M213.39,157.5a4.67,4.67,0,0,1-.55,2.54,2.08,2.08,0,0,1-3.34,0,4.58,4.58,0,0,1-.57-2.51,4.69,4.69,0,0,1,.55-2.56,2.08,2.08,0,0,1,3.34,0A4.62,4.62,0,0,1,213.39,157.5Zm-3.39,0a4.79,4.79,0,0,0,.28,1.92,1,1,0,0,0,1.77,0,6.63,6.63,0,0,0,0-3.82,1,1,0,0,0-1.77,0A4.82,4.82,0,0,0,210,157.5Z" transform="translate(-11 -5)" style="fill:#8e8e8e"/><path id="_Составной_контур_26" data-name="&lt;Составной контур&gt;" d="M218.71,157.5a4.67,4.67,0,0,1-.55,2.54,2.08,2.08,0,0,1-3.34,0,4.58,4.58,0,0,1-.57-2.51,4.69,4.69,0,0,1,.55-2.56,2.08,2.08,0,0,1,3.34,0A4.62,4.62,0,0,1,218.71,157.5Zm-3.39,0a4.78,4.78,0,0,0,.28,1.92,1,1,0,0,0,1.77,0,6.63,6.63,0,0,0,0-3.82,1,1,0,0,0-1.77,0A4.82,4.82,0,0,0,215.32,157.5Z" transform="translate(-11 -5)" style="fill:#8e8e8e"/><path id="_Составной_контур_27" data-name="&lt;Составной контур&gt;" d="M222.68,160.78h-1.05v-4.24q0-.76,0-1.2l-.25.24-1,.83-.53-.67,1.93-1.52h.88Z" transform="translate(-11 -5)" style="fill:#8e8e8e"/><path id="_Составной_контур_28" data-name="&lt;Составной контур&gt;" d="M174.79,171.16h-1.05v-4.24q0-.76,0-1.2l-.25.24-1,.83-.53-.67,1.93-1.52h.88Z" transform="translate(-11 -5)" style="fill:#8e8e8e"/><path id="_Составной_контур_29" data-name="&lt;Составной контур&gt;" d="M181.46,167.88a4.66,4.66,0,0,1-.55,2.54,2.08,2.08,0,0,1-3.34,0,4.58,4.58,0,0,1-.57-2.51,4.69,4.69,0,0,1,.55-2.56,2.08,2.08,0,0,1,3.34,0A4.62,4.62,0,0,1,181.46,167.88Zm-3.39,0a4.79,4.79,0,0,0,.28,1.92,1,1,0,0,0,1.77,0,6.64,6.64,0,0,0,0-3.82,1,1,0,0,0-1.77,0A4.82,4.82,0,0,0,178.07,167.88Z" transform="translate(-11 -5)" style="fill:#8e8e8e"/><path id="_Составной_контур_30" data-name="&lt;Составной контур&gt;" d="M185.43,171.16h-1.05v-4.24q0-.76,0-1.2l-.25.24-1,.83-.53-.67,1.93-1.52h.88Z" transform="translate(-11 -5)" style="fill:#8e8e8e"/><path id="_Составной_контур_31" data-name="&lt;Составной контур&gt;" d="M190.75,171.16H189.7v-4.24q0-.76,0-1.2l-.25.24-1,.83-.53-.67,1.93-1.52h.88Z" transform="translate(-11 -5)" style="fill:#8e8e8e"/><path id="_Составной_контур_32" data-name="&lt;Составной контур&gt;" d="M197.42,167.88a4.66,4.66,0,0,1-.55,2.54,2.08,2.08,0,0,1-3.34,0,4.58,4.58,0,0,1-.57-2.51,4.69,4.69,0,0,1,.55-2.56,2.08,2.08,0,0,1,3.34,0A4.62,4.62,0,0,1,197.42,167.88Zm-3.39,0a4.79,4.79,0,0,0,.28,1.92,1,1,0,0,0,1.77,0,6.64,6.64,0,0,0,0-3.82,1,1,0,0,0-1.77,0A4.82,4.82,0,0,0,194,167.88Z" transform="translate(-11 -5)" style="fill:#8e8e8e"/><path id="_Составной_контур_33" data-name="&lt;Составной контур&gt;" d="M201.4,171.16h-1.05v-4.24q0-.76,0-1.2l-.25.24-1,.83-.53-.67,1.93-1.52h.88Z" transform="translate(-11 -5)" style="fill:#8e8e8e"/><path id="_Составной_контур_34" data-name="&lt;Составной контур&gt;" d="M206.72,171.16h-1.05v-4.24q0-.76,0-1.2l-.25.24-1,.83-.53-.67,1.93-1.52h.88Z" transform="translate(-11 -5)" style="fill:#8e8e8e"/><path id="_Составной_контур_35" data-name="&lt;Составной контур&gt;" d="M213.39,167.88a4.66,4.66,0,0,1-.55,2.54,2.08,2.08,0,0,1-3.34,0,4.58,4.58,0,0,1-.57-2.51,4.7,4.7,0,0,1,.55-2.56,2.08,2.08,0,0,1,3.34,0A4.62,4.62,0,0,1,213.39,167.88Zm-3.39,0a4.79,4.79,0,0,0,.28,1.92,1,1,0,0,0,1.77,0,6.64,6.64,0,0,0,0-3.82,1,1,0,0,0-1.77,0A4.82,4.82,0,0,0,210,167.88Z" transform="translate(-11 -5)" style="fill:#8e8e8e"/><path id="_Составной_контур_36" data-name="&lt;Составной контур&gt;" d="M218.71,167.88a4.66,4.66,0,0,1-.55,2.54,2.08,2.08,0,0,1-3.34,0,4.58,4.58,0,0,1-.57-2.51,4.69,4.69,0,0,1,.55-2.56,2.08,2.08,0,0,1,3.34,0A4.62,4.62,0,0,1,218.71,167.88Zm-3.39,0a4.79,4.79,0,0,0,.28,1.92,1,1,0,0,0,1.77,0,6.64,6.64,0,0,0,0-3.82,1,1,0,0,0-1.77,0A4.82,4.82,0,0,0,215.32,167.88Z" transform="translate(-11 -5)" style="fill:#8e8e8e"/><path id="_Составной_контур_37" data-name="&lt;Составной контур&gt;" d="M222.68,171.16h-1.05v-4.24q0-.76,0-1.2l-.25.24-1,.83-.53-.67,1.93-1.52h.88Z" transform="translate(-11 -5)" style="fill:#8e8e8e"/><path id="_Составной_контур_38" data-name="&lt;Составной контур&gt;" d="M174.79,181.54h-1.05V177.3q0-.76,0-1.2l-.25.24-1,.83-.53-.67,1.93-1.52h.88Z" transform="translate(-11 -5)" style="fill:#8e8e8e"/><path id="_Составной_контур_39" data-name="&lt;Составной контур&gt;" d="M180.11,181.54h-1.05V177.3q0-.76,0-1.2l-.25.24-1,.83-.53-.67,1.93-1.52h.88Z" transform="translate(-11 -5)" style="fill:#8e8e8e"/><path id="_Составной_контур_40" data-name="&lt;Составной контур&gt;" d="M186.78,178.26a4.66,4.66,0,0,1-.55,2.54,2.08,2.08,0,0,1-3.34,0,4.58,4.58,0,0,1-.57-2.51,4.69,4.69,0,0,1,.55-2.56,2.08,2.08,0,0,1,3.34,0A4.62,4.62,0,0,1,186.78,178.26Zm-3.39,0a4.79,4.79,0,0,0,.28,1.92,1,1,0,0,0,1.77,0,6.63,6.63,0,0,0,0-3.82,1,1,0,0,0-1.77,0A4.82,4.82,0,0,0,183.39,178.26Z" transform="translate(-11 -5)" style="fill:#8e8e8e"/><path id="_Составной_контур_41" data-name="&lt;Составной контур&gt;" d="M192.1,178.26a4.66,4.66,0,0,1-.55,2.54,2.08,2.08,0,0,1-3.34,0,4.58,4.58,0,0,1-.57-2.51,4.69,4.69,0,0,1,.55-2.56,2.08,2.08,0,0,1,3.34,0A4.62,4.62,0,0,1,192.1,178.26Zm-3.39,0a4.79,4.79,0,0,0,.28,1.92,1,1,0,0,0,1.77,0,6.64,6.64,0,0,0,0-3.82,1,1,0,0,0-1.77,0A4.82,4.82,0,0,0,188.71,178.26Z" transform="translate(-11 -5)" style="fill:#8e8e8e"/><path id="_Составной_контур_42" data-name="&lt;Составной контур&gt;" d="M196.07,181.54H195V177.3q0-.76,0-1.2l-.25.24-1,.83-.53-.67,1.93-1.52h.88Z" transform="translate(-11 -5)" style="fill:#8e8e8e"/><path id="_Составной_контур_43" data-name="&lt;Составной контур&gt;" d="M201.4,181.54h-1.05V177.3q0-.76,0-1.2l-.25.24-1,.83-.53-.67,1.93-1.52h.88Z" transform="translate(-11 -5)" style="fill:#8e8e8e"/><path id="_Составной_контур_44" data-name="&lt;Составной контур&gt;" d="M208.07,178.26a4.66,4.66,0,0,1-.55,2.54,2.08,2.08,0,0,1-3.34,0,4.58,4.58,0,0,1-.57-2.51,4.69,4.69,0,0,1,.55-2.56,2.08,2.08,0,0,1,3.34,0A4.62,4.62,0,0,1,208.07,178.26Zm-3.39,0a4.79,4.79,0,0,0,.28,1.92,1,1,0,0,0,1.77,0,6.64,6.64,0,0,0,0-3.82,1,1,0,0,0-1.77,0A4.82,4.82,0,0,0,204.68,178.26Z" transform="translate(-11 -5)" style="fill:#8e8e8e"/><path id="_Составной_контур_45" data-name="&lt;Составной контур&gt;" d="M212,181.54H211V177.3q0-.76,0-1.2l-.25.24-1,.83-.53-.67,1.93-1.52H212Z" transform="translate(-11 -5)" style="fill:#8e8e8e"/><path id="_Составной_контур_46" data-name="&lt;Составной контур&gt;" d="M218.71,178.26a4.66,4.66,0,0,1-.55,2.54,2.08,2.08,0,0,1-3.34,0,4.58,4.58,0,0,1-.57-2.51,4.69,4.69,0,0,1,.55-2.56,2.08,2.08,0,0,1,3.34,0A4.62,4.62,0,0,1,218.71,178.26Zm-3.39,0a4.79,4.79,0,0,0,.28,1.92,1,1,0,0,0,1.77,0,6.64,6.64,0,0,0,0-3.82,1,1,0,0,0-1.77,0A4.82,4.82,0,0,0,215.32,178.26Z" transform="translate(-11 -5)" style="fill:#8e8e8e"/><path id="_Составной_контур_47" data-name="&lt;Составной контур&gt;" d="M222.68,181.54h-1.05V177.3q0-.76,0-1.2l-.25.24-1,.83-.53-.67L221.8,175h.88Z" transform="translate(-11 -5)" style="fill:#8e8e8e"/></g><path id="_Составной_контур_48" data-name="&lt;Составной контур&gt;" d="M258.21,255.29l12.06-32.19A9.65,9.65,0,0,0,278,208.46l-.29-.49-3.13,8.36L268,218.22l-3.75-5.77,3.13-8.36-.54.17A9.65,9.65,0,0,0,263,220.39L251,252.58a9.66,9.66,0,1,0,7.24,2.71Zm-2.42,3.39.92,5.5-4.3,3.54-5.22-2-.92-5.5,4.3-3.54Z" transform="translate(-11 -5)" style="fill:#202f5a"/><g id="_Группа_50" data-name="&lt;Группа&gt;"><polygon id="_Контур_20" data-name="&lt;Контур&gt;" points="295.44 188.36 289.99 181.65 284.54 188.36 287.03 188.36 287.03 207.05 292.95 207.05 292.95 188.36 295.44 188.36" style="fill:#f4c44e"/><polygon id="_Контур_21" data-name="&lt;Контур&gt;" points="303.57 200.34 303.57 181.65 297.65 181.65 297.65 200.34 295.16 200.34 300.61 207.05 306.06 200.34 303.57 200.34" style="fill:#ffd983"/></g></g></g></g></svg>