<svg xmlns="http://www.w3.org/2000/svg" xmlns:xlink="http://www.w3.org/1999/xlink" viewBox="0 0 314.28 256.21"><defs><linearGradient id="linear-gradient" x1="222.94" y1="64.4" x2="222.94" y2="110.57" gradientUnits="userSpaceOnUse"><stop offset="0" stop-color="#59c7ef"/><stop offset="0.2" stop-color="#62caf0"/><stop offset="0.52" stop-color="#7ad4f2"/><stop offset="0.92" stop-color="#a1e3f6"/><stop offset="1" stop-color="#aae7f7"/></linearGradient><linearGradient id="linear-gradient-2" x1="131" y1="107.69" x2="131" y2="177.97" xlink:href="#linear-gradient"/><linearGradient id="linear-gradient-3" x1="124.07" y1="183.63" x2="124.07" y2="186.48" xlink:href="#linear-gradient"/><linearGradient id="linear-gradient-4" x1="150.54" y1="183.84" x2="150.54" y2="186.24" xlink:href="#linear-gradient"/><linearGradient id="linear-gradient-5" x1="143.25" y1="186.61" x2="143.25" y2="188.5" xlink:href="#linear-gradient"/><linearGradient id="linear-gradient-6" x1="238.86" y1="167.05" x2="238.86" y2="206.3" xlink:href="#linear-gradient"/><linearGradient id="linear-gradient-7" x1="244.46" y1="240.67" x2="244.46" y2="260.61" gradientUnits="userSpaceOnUse"><stop offset="0" stop-color="#f054f5"/><stop offset="0.14" stop-color="#eb53f5"/><stop offset="0.29" stop-color="#de51f6"/><stop offset="0.46" stop-color="#c84df7"/><stop offset="0.62" stop-color="#a948f9"/><stop offset="0.79" stop-color="#8141fc"/><stop offset="0.97" stop-color="#5139ff"/><stop offset="0.98" stop-color="#4b38ff"/><stop offset="0.99" stop-color="#43ecff"/></linearGradient></defs><title>4</title><g style="isolation:isolate"><g id="Слой_1" data-name="Слой 1"><rect x="191.67" y="175.18" width="194.56" height="30.73" transform="translate(93.05 416.11) rotate(-89.88)" style="fill:#fff"/><rect x="191.67" y="188.77" width="194.56" height="3.56" transform="translate(93.05 416.11) rotate(-89.88)" style="fill:#262c66"/><rect x="182.74" y="188.75" width="194.56" height="3.56" transform="translate(84.17 407.17) rotate(-89.88)" style="fill:#262c66"/><rect x="201.14" y="188.79" width="194.56" height="3.56" transform="translate(102.49 425.61) rotate(-89.88)" style="fill:#262c66"/><polygon points="299.81 30.34 269.08 30.27 284.03 1.08 299.81 30.34" style="fill:#e7e7e7"/><polygon points="275.94 16.87 292.56 16.91 284.03 1.08 275.94 16.87" style="fill:#fd425f"/><ellipse cx="62.88" cy="228.74" rx="48.84" ry="4.43" style="fill:#77d2c9"/><rect x="206.43" y="60.99" width="32.7" height="54.29" rx="1.36" ry="1.36" style="fill:#1b0c41"/><rect x="208.93" y="63.24" width="28.02" height="47.57" style="fill:url(#linear-gradient)"/><circle cx="222.77" cy="112.88" r="0.88" style="fill:#fff"/><rect x="210.01" y="64.84" width="1.37" height="1.11" rx="0.32" ry="0.32" style="fill:#fff"/><rect x="213.76" y="64.84" width="1.37" height="1.11" rx="0.32" ry="0.32" style="fill:#fff"/><rect x="231.87" y="64.84" width="1.37" height="1.11" rx="0.32" ry="0.32" style="fill:#fff"/><rect x="227.67" y="64.84" width="1.37" height="1.11" rx="0.32" ry="0.32" style="fill:#fff"/><rect x="234.5" y="64.84" width="1.37" height="1.11" rx="0.32" ry="0.32" style="fill:#fff"/><rect x="210.98" y="96.54" width="23.59" height="5.5" style="fill:#fff"/><rect x="215.81" y="97.85" width="16.73" height="1.03" style="fill:#d3e9ff"/><rect x="215.81" y="99.73" width="13.15" height="1.03" style="fill:#d3e9ff"/><circle cx="213.44" cy="99.31" r="1.52" style="fill:#d3e9ff"/><rect x="210.98" y="88.54" width="23.59" height="5.5" style="fill:#fff"/><rect x="215.81" y="89.85" width="16.73" height="1.03" style="fill:#d3e9ff"/><rect x="215.81" y="91.73" width="13.15" height="1.03" style="fill:#d3e9ff"/><circle cx="213.44" cy="91.31" r="1.52" style="fill:#d3e9ff"/><rect x="210.98" y="80.54" width="23.59" height="5.5" style="fill:#fff"/><rect x="215.81" y="81.85" width="16.73" height="1.03" style="fill:#d3e9ff"/><rect x="215.81" y="83.73" width="13.15" height="1.03" style="fill:#d3e9ff"/><circle cx="213.44" cy="83.31" r="1.52" style="fill:#d3e9ff"/><path d="M238,140H216.92a1.44,1.44,0,0,1-1.44-1.44v-2.86a1.44,1.44,0,0,1,1.44-1.44H238a1.44,1.44,0,0,1,1.44,1.44v2.86A1.44,1.44,0,0,1,238,140Zm-21.07-5.31a1,1,0,0,0-1,1v2.86a1,1,0,0,0,1,1H238a1,1,0,0,0,1-1v-2.86a1,1,0,0,0-1-1Z" transform="translate(-4.72 -62.97)" style="fill:#fff"/><polygon points="214.22 72.55 214.62 73.78 215.91 73.78 214.86 74.53 215.26 75.76 214.22 75 213.17 75.76 213.57 74.53 212.53 73.78 213.82 73.78 214.22 72.55" style="fill:#fff"/><polygon points="218.44 72.55 218.84 73.78 220.13 73.78 219.08 74.53 219.48 75.76 218.44 75 217.39 75.76 217.79 74.53 216.75 73.78 218.04 73.78 218.44 72.55" style="fill:#fff"/><polygon points="222.66 72.55 223.06 73.78 224.35 73.78 223.3 74.53 223.7 75.76 222.66 75 221.61 75.76 222.01 74.53 220.97 73.78 222.26 73.78 222.66 72.55" style="fill:#fff"/><path d="M232.46,138.71l-1.05-.76-1.05.76.4-1.24-1.05-.76H231l.4-1.24.4,1.24h1.3l-1.05.76Zm-2.23-1.83.73.53-.28.86.73-.53.73.53-.28-.86.73-.53h-.9l-.28-.86-.28.86Z" transform="translate(-4.72 -62.97)" style="fill:#fff"/><path d="M236.86,138.71l-1.05-.76-1.05.76.4-1.24-1.05-.76h1.3l.4-1.24.4,1.24h1.3l-1.05.76Zm-2.23-1.83.73.53-.28.86.73-.53.73.53-.28-.86.73-.53h-.9l-.28-.86-.28.86Z" transform="translate(-4.72 -62.97)" style="fill:#fff"/><rect x="216.82" y="103.96" width="12.04" height="4.21" rx="2.08" ry="2.08" style="fill:#fd425f"/><path d="M226.95,170a.69.69,0,0,1-.25,0,.37.37,0,0,1-.16-.12.49.49,0,0,1-.09-.18,1,1,0,0,1,0-.25v-.66a1,1,0,0,1,0-.25.48.48,0,0,1,.09-.18.37.37,0,0,1,.16-.12.69.69,0,0,1,.25,0,.5.5,0,0,1,.41.15.67.67,0,0,1,.12.44v.66a.68.68,0,0,1-.12.44A.5.5,0,0,1,226.95,170Zm-.07-.28H227l0,0a.14.14,0,0,0,0-.05.3.3,0,0,0,0-.06s0,0,0-.07v-.84s0-.05,0-.07a.3.3,0,0,0,0-.06l0-.05,0,0h-.14l0,0a.14.14,0,0,0,0,.05.29.29,0,0,0,0,.06s0,0,0,.07v.84s0,.05,0,.07a.3.3,0,0,0,0,.06.14.14,0,0,0,0,.05Z" transform="translate(-4.72 -62.97)" style="fill:#fff"/><path d="M227.72,170v-1.79h.36V169l.32-.75h.35l-.34.81.36,1h-.37l-.28-.82-.05.09V170Z" transform="translate(-4.72 -62.97)" style="fill:#fff"/><path d="M237.75,136.39s-.23,1.28-.21,1.24a3.58,3.58,0,0,0-.86-.18,6.18,6.18,0,0,1-.95.14,1.58,1.58,0,0,1-.6-.16c-.11,0-.3-.18-.17-.25s.29.07.38.09a1.68,1.68,0,0,0,.37,0l-.34-.06a3.8,3.8,0,0,1-.76-.17c-.09-.05-.1-.21.1-.22a2.72,2.72,0,0,1,.52.06l.44.06-.46-.08-.75-.14c-.23,0-.24-.3,0-.33a5,5,0,0,1,.77.14l.45.09s-.44-.09-.52-.12-.56-.1-.64-.22a.13.13,0,0,1,.12-.2,2.41,2.41,0,0,1,.6.07,5.29,5.29,0,0,0,.95.17c.13,0,.26-.07.23-.23l.13-.45s.16,0,.32.39A1.24,1.24,0,0,0,237.75,136.39Z" transform="translate(-4.72 -62.97)" style="fill:#f88667"/><path d="M252,138.16a2.06,2.06,0,0,0-2.16-1.55c-1.64.11-4.69.3-5.63.29-1.3,0-6.73-.59-6.73-.59l-.26,1.46s6.11,1.56,7.15,1.56,6.52.69,7.38-.1A1.05,1.05,0,0,0,252,138.16Z" transform="translate(-4.72 -62.97)" style="fill:#fd425f"/><path d="M252,138.16a2.06,2.06,0,0,0-2.16-1.55c-1.64.11-4.69.3-5.63.29-1.3,0-6.73-.59-6.73-.59l-.26,1.46s6.11,1.56,7.15,1.56,6.52.69,7.38-.1A1.05,1.05,0,0,0,252,138.16Z" transform="translate(-4.72 -62.97)" style="fill:#ca0045;opacity:0.32;mix-blend-mode:multiply"/><polygon points="251.1 89.38 250.77 88.41 236.14 88.41 236.45 89.38 251.1 89.38" style="fill:#110239"/><polygon points="252.84 94.6 252.51 93.61 237.8 93.61 238.11 94.6 252.84 94.6" style="fill:#110239"/><polygon points="248.9 84.17 248.57 83.19 233.94 83.19 234.25 84.17 248.9 84.17" style="fill:#110239"/><polygon points="254.59 99.87 254.26 98.87 239.47 98.87 239.79 99.87 254.59 99.87" style="fill:#110239"/><polygon points="256.37 105.2 256.04 104.19 241.17 104.19 241.49 105.2 256.37 105.2" style="fill:#110239"/><polygon points="258.17 110.59 257.83 109.57 242.88 109.57 243.2 110.59 258.17 110.59" style="fill:#110239"/><polygon points="259.98 116.03 259.64 115 244.61 115 244.94 116.03 259.98 116.03" style="fill:#110239"/><path d="M266.38,186.84h.07a.68.68,0,0,0,.64-.89l-13.74-41.16a.68.68,0,0,0-.64-.46h-.95l14,42.05A.68.68,0,0,0,266.38,186.84Z" transform="translate(-4.72 -62.97)" style="fill:#110239"/><path d="M251.49,186.84h.07a.68.68,0,0,0,.64-.88l-13.14-41.16a.68.68,0,0,0-.64-.47h0a.68.68,0,0,0-.65.88l13.08,41.16A.68.68,0,0,0,251.49,186.84Z" transform="translate(-4.72 -62.97)" style="fill:#110239"/><polygon points="260.02 116.1 259.68 115.1 244.69 115.1 245.01 116.1 260.02 116.1" style="fill:#110239"/><polygon points="261.8 121.44 261.46 120.43 246.39 120.43 246.71 121.44 261.8 121.44" style="fill:#110239"/><polygon points="257.76 110.75 257.43 109.75 242.43 109.75 242.75 110.75 257.76 110.75" style="fill:#110239"/><polygon points="263.6 126.85 263.26 125.82 248.1 125.82 248.43 126.85 263.6 126.85" style="fill:#110239"/><polygon points="265.42 132.31 265.08 131.27 249.84 131.27 250.17 132.31 265.42 132.31" style="fill:#110239"/><polygon points="267.26 137.83 266.91 136.78 251.59 136.78 251.93 137.83 267.26 137.83" style="fill:#110239"/><polygon points="269.12 143.41 268.77 142.35 253.37 142.35 253.71 143.41 269.12 143.41" style="fill:#110239"/><path d="M275.56,214.41h.07a.69.69,0,0,0,.66-.91l-14.08-42.18a.69.69,0,0,0-.66-.47h-1l14.32,43.09A.69.69,0,0,0,275.56,214.41Z" transform="translate(-4.72 -62.97)" style="fill:#110239"/><path d="M260.31,214.41h.08a.69.69,0,0,0,.66-.9l-13.46-42.18a.69.69,0,0,0-.66-.48h0a.69.69,0,0,0-.66.9l13.4,42.18A.69.69,0,0,0,260.31,214.41Z" transform="translate(-4.72 -62.97)" style="fill:#110239"/><path d="M251.46,132.35l-.09.1a6.15,6.15,0,0,1-.93.81c-.21.14-.53.23-.71.37l-.22.16a17.08,17.08,0,0,1,.32,2.7,4.72,4.72,0,0,0,2.53-.88A18.79,18.79,0,0,1,251.46,132.35Z" transform="translate(-4.72 -62.97)" style="fill:#f88667"/><path d="M250.47,135.45a2.69,2.69,0,0,1,.84-1.4,4.26,4.26,0,0,1,.44-.33,9.46,9.46,0,0,1-.29-1.37l-.09.1a6.15,6.15,0,0,1-.93.81c-.21.14-.53.23-.71.37l-.22.16a17.08,17.08,0,0,1,.32,2.7,7.28,7.28,0,0,0,.74-.1A1.39,1.39,0,0,1,250.47,135.45Z" transform="translate(-4.72 -62.97)" style="fill:#e45940"/><path d="M250.43,165.41s-.05,1.85-.34,2.1-4,.36-4.28,0-.13-.9.66-1.12,1.26,0,1.79-.23.39-1.06.39-1.06Z" transform="translate(-4.72 -62.97)" style="fill:#110239"/><path d="M259.55,165.35s.28,1.8,0,2.06-4,.56-4.35.23-.17-.9.61-1.15,1.24-.1,1.78-.29.14-1,.14-1Z" transform="translate(-4.72 -62.97)" style="fill:#110239"/><path d="M256.83,155a55.1,55.1,0,0,0-.77-10.27,4.69,4.69,0,0,0-1.83.35c-1.12.51-2.25,1-3.38,1.49a72.68,72.68,0,0,1,3.16,9.37c.3,1.61,3.66,9.81,3.66,9.81l2-.26C259.68,164.17,256.82,155.44,256.83,155Z" transform="translate(-4.72 -62.97)" style="fill:#0400a3"/><path d="M252.66,145.81a18.73,18.73,0,0,1-1.82.74,77.13,77.13,0,0,1,2.91,8.36c.29-.86,1.67-2.94,2.2-5.22a12.17,12.17,0,0,0,.17-4.65v0A8.75,8.75,0,0,0,252.66,145.81Z" transform="translate(-4.72 -62.97)" style="fill:#04006c"/><path d="M254.18,145.53c-.79.27-2.24.65-3.33,1-.76,1.92-3,6.44-3.12,8.49-.13,2.26.65,10.81.65,10.81h2.33s.22-9.64.54-10.26c1.08-2,2.26-3.66,2.94-4.93a15.85,15.85,0,0,0,1.72-4.5c.09-.44.47-1.92-.27-2.38C255,144,254.84,145.3,254.18,145.53Z" transform="translate(-4.72 -62.97)" style="fill:#0400a3"/><path d="M250,147a9.47,9.47,0,0,0,3.88.6,7.32,7.32,0,0,0,3-.61s-.89-7-1.92-9.14a4.6,4.6,0,0,0-2.72-2.61,5.77,5.77,0,0,1-2.42.76s0,4.27.11,6S250,147,250,147Z" transform="translate(-4.72 -62.97)" style="fill:#fd425f"/><path d="M249.91,141.38c0-.19,0-.39,0-.6v-.08c0-.2,0-.41,0-.62V140c0-.24,0-.48,0-.72h0a1.39,1.39,0,0,0,.26,0,6,6,0,0,0,1.86-.86l.31-.16a8.11,8.11,0,0,1-.47,2.75,15.69,15.69,0,0,0-.34,6.49A10.37,10.37,0,0,1,250,147s0-3.32-.07-5c0-.15,0-.33,0-.51Z" transform="translate(-4.72 -62.97)" style="fill:#ca0045;opacity:0.32;mix-blend-mode:multiply"/><path d="M251.88,129.85s-1.23-1.35-2.22-1-1.59.73-1.6,1.16a11.62,11.62,0,0,1-.06,2c-.14.47-.54,1.16-.47,1.34s.66.07.72.13.76,1.28,1,1.35a4.37,4.37,0,0,0,2.09-1.93C251.46,132.27,252.27,130.84,251.88,129.85Z" transform="translate(-4.72 -62.97)" style="fill:#f88667"/><path d="M249.87,130.61a2.66,2.66,0,0,0-.28.18l-.43.2a1.92,1.92,0,0,1-.9.27c-.48,0-.47-.49-.76-.73-.14-.12-.35-.06-.51-.19a1.1,1.1,0,0,1-.3-.52c-.13-.46.31-.64.63-.83s.34-.46.44-.84c.26-.92,1.27-.05,1.79-.28.27-.12.5-.39.82-.31a2,2,0,0,1,.7.41c.23.17.36,0,.63,0a1.48,1.48,0,0,1,.6.23,1.57,1.57,0,0,1,.74,1.1c0,.38-.19.66-.1,1a2.32,2.32,0,0,1,.14,1c-.09.46-.54.65-.78,1a1.4,1.4,0,0,1-1,.69c-.13-.27-.24-.74,0-1a1.64,1.64,0,0,0,.31-.3.45.45,0,0,0-.63-.61c-.3.14-.19,1.05-.58,1s-.11-.56-.08-.73-.06-.74-.3-.85A.15.15,0,0,0,249.87,130.61Z" transform="translate(-4.72 -62.97)" style="fill:#110239"/><path d="M241.45,147.07a1.55,1.55,0,0,0-.27,0,1.11,1.11,0,0,1-.6-.07,2.32,2.32,0,0,0-1-.24c-.17,0-1.18.27-.93.68,0,.06.16.14.19.13l.4-.15a2.29,2.29,0,0,0-.27.11s-.11.06-.14.1a.26.26,0,0,0,.12.3c.09,0,.15-.06.23-.1h0c-.07.06-.22.09-.13.31s.18.09.28.06l.11,0-.21.12c-.09.08.11.37.3.34s.39-.18.45-.16a1.52,1.52,0,0,0,.92-.11l.38-.17a4,4,0,0,0,.56-.38C241.67,147.49,241.42,147.41,241.45,147.07Z" transform="translate(-4.72 -62.97)" style="fill:#f88667"/><path d="M241.8,148.34l-.82-1.62a46.65,46.65,0,0,0,5.54-4.09c1.48-1.5,3.09-4.54,4.22-4.73s2.27.43,1.61,2-4,3.66-4.65,4.35A67,67,0,0,1,241.8,148.34Z" transform="translate(-4.72 -62.97)" style="fill:#fd425f"/><polygon points="232.47 71.42 231.68 72.83 232.78 74.01 231.2 73.7 230.42 75.11 230.22 73.51 228.64 73.2 230.1 72.52 229.91 70.92 231 72.1 232.47 71.42" style="fill:#fff"/><rect x="194.71" y="115.28" width="56.87" height="62.91" style="fill:#e7e7e7"/><rect x="194.71" y="115.28" width="56.87" height="4.93" style="fill:#fd425f"/><rect x="199.62" y="124.65" width="29.28" height="2.97" style="fill:#fff"/><rect x="199.62" y="130.36" width="29.28" height="2.97" style="fill:#fff"/><rect x="199.62" y="142.86" width="29.28" height="2.97" style="fill:#fff"/><rect x="199.62" y="148.57" width="29.28" height="2.97" style="fill:#fff"/><rect x="233.95" y="122.96" width="12.41" height="12.41" style="fill:#fff"/><path d="M244.6,192.7c-.14,0-2-4.25-2.38-4.12-.57.19-1.41.43-1.45,1.08s3.15,6.25,3.68,6.25c1.12,0,5.83-6.21,5.45-6.92s-1.59-1.2-1.86-.93S244.72,192.7,244.6,192.7Z" transform="translate(-4.72 -62.97)" style="fill:#01d9cf"/><rect x="233.95" y="140.83" width="12.41" height="12.41" style="fill:#fff"/><path d="M244.6,210.57c-.14,0-2-4.25-2.38-4.12-.57.19-1.41.43-1.45,1.08s3.15,6.25,3.68,6.25c1.12,0,5.83-6.21,5.45-6.92s-1.59-1.2-1.86-.93S244.72,210.57,244.6,210.57Z" transform="translate(-4.72 -62.97)" style="fill:#01d9cf"/><rect x="199.62" y="161.27" width="29.28" height="2.97" style="fill:#fff"/><rect x="199.62" y="166.98" width="29.28" height="2.97" style="fill:#fff"/><rect x="233.95" y="159.24" width="12.41" height="12.41" style="fill:#fff"/><path d="M244.6,229c-.14,0-2-4.25-2.38-4.12-.57.19-1.41.43-1.45,1.08s3.15,6.25,3.68,6.25c1.12,0,5.83-6.21,5.45-6.92s-1.59-1.2-1.86-.93S244.72,229,244.6,229Z" transform="translate(-4.72 -62.97)" style="fill:#01d9cf"/><path d="M124.73,215.23c-7.47-1.91-12.92-3.62-13.4-15-.23-5.41,1.1-9.38,4.44-13.16,2.7-3.07,4.12-4.27,4.43-8.73.47-6.77-2.17-11.87.07-18.33,2.4-6.9,9.73-7.35,12.19-13.82,2.13-5.6,2.61-11.52,8.88-14.52,5.56-2.66,9.84,1.8,8.63,7.17-.71,3.12-2.78,6-3,9.28s1.56,5.08,3.41,7.39c4.4,5.49,7.28,12.45,1.42,19.59-3.5,4.26-6.13,7.88-3.19,13.58,3.36,6.51,5.18,10.53-.11,17.49-4,5.22-8.34,5.51-13.5,6.64-4.64,1-10.44,3.92-14.73,1.38Z" transform="translate(-4.72 -62.97)" style="fill:#8494ab"/><path d="M128.79,207.23a6.56,6.56,0,0,1-.67.07.54.54,0,0,1-.56-.51.51.51,0,0,1,.51-.56c3.53-.15,6.65-3.87,8.22-7,1.25-2.49.81-4.5.24-7l-.45-2.1c-1.17-5.49-2.18-10.22,1.46-15.21,4-5.52,4.76-8.67,3.51-15.31-.1-.54-.22-1.11-.34-1.69a28.08,28.08,0,0,1-.84-6.66,14.36,14.36,0,0,1,.78-3.49,10,10,0,0,0,.7-4.2.54.54,0,0,1,.45-.6h0a.54.54,0,0,1,.6.46,10.85,10.85,0,0,1-.74,4.67,13.46,13.46,0,0,0-.73,3.22,27.13,27.13,0,0,0,.82,6.38c.12.59.24,1.17.34,1.72,1.3,6.92.51,10.39-3.7,16.14-3.36,4.6-2.45,8.9-1.28,14.35l.45,2.09c.59,2.64,1.1,4.92-.33,7.75C135.57,203.06,132.5,206.67,128.79,207.23Z" transform="translate(-4.72 -62.97)" style="fill:#fff"/><path d="M138.64,190.72a2.88,2.88,0,0,1-2.37-.81.54.54,0,0,1,.7-.81,1.72,1.72,0,0,0,1.89.45c2.13-.89,3.85-6,4-7.86.36-5.43,1.35-8.33,6.19-11.08a.54.54,0,0,1,.53.93c-4.66,2.65-5.32,5.27-5.65,10.23-.11,1.64-1.77,7.58-4.63,8.77A2.74,2.74,0,0,1,138.64,190.72Z" transform="translate(-4.72 -62.97)" style="fill:#fff"/><path d="M106.3,221.52c-5.51,5.93-12.3,11.35-21.73,4.52-4.75-3.44-5-8.33-5.25-14.28-.21-4.64,0-6.72-3.42-10.18-5.34-5.37-14.62-4.57-18.19-11.44-3.78-7.3,5.67-14.73,2.58-21.16C57.64,163.48,53,158.4,57,153.62c3.24-3.87,10.44-1.73,13.38,2.6,1.7,2.51,2.16,5.36,4.31,7.79s4.74,2.92,7.6,3.73c6.35,1.8,12.21,4.94,13.29,11.87.68,4.32,1.47,7.92,6.41,9.7,5.24,1.89,8.19,3.11,9.79,9.86,1.25,5.26-.4,8.33-2,12.64s-2.6,10.76-6.62,13.24Z" transform="translate(-4.72 -62.97)" style="fill:#0400a3"/><path d="M106.39,218.53a8,8,0,0,1-3.39-.67c-4.56-2-7.08-8-9.28-13.29a37.22,37.22,0,0,0-3.2-6.57c-3-4.18-6-6.91-11.39-10.11-6.21-3.71-7.82-6.55-9.25-12.67-1.16-4.95-2.6-9.88-5.34-12.75a.45.45,0,0,1,.08-.71.67.67,0,0,1,.84.08c2.91,3,4.41,8.12,5.61,13.2,1.38,5.89,2.84,8.46,8.73,12a35.53,35.53,0,0,1,11.77,10.44,37.91,37.91,0,0,1,3.33,6.77c2.12,5,4.54,10.83,8.61,12.62a7.22,7.22,0,0,0,5.24.13.7.7,0,0,1,.83.35.52.52,0,0,1-.34.72A10.13,10.13,0,0,1,106.39,218.53Z" transform="translate(-4.72 -62.97)" style="fill:#fff"/><path d="M85,191.66a.7.7,0,0,1-.39-.1.51.51,0,0,1-.16-.76c1.65-2.07.32-5.27-1.08-8.64-1.21-2.91-2.45-5.91-1.74-8.36a.59.59,0,0,1,.73-.36.54.54,0,0,1,.44.64c-.62,2.15.57,5,1.72,7.75,1.45,3.47,3,7.08,1,9.6A.62.62,0,0,1,85,191.66Z" transform="translate(-4.72 -62.97)" style="fill:#fff"/><path d="M91.75,198.87a.73.73,0,0,1-.23,0,15.76,15.76,0,0,1-2.29-1,8,8,0,0,0-3.56-1.08,17.65,17.65,0,0,0-2.27.09,9.93,9.93,0,0,1-5-.53,28.32,28.32,0,0,1-8.75-6.28c-.42-.42-1-1.08-1.53-1.78-.82-1-2.33-2.86-2.87-3a.57.57,0,0,1-.5-.62.56.56,0,0,1,.65-.43c1,.12,2,1.37,3.71,3.41.55.67,1.07,1.31,1.45,1.69a28.25,28.25,0,0,0,8.33,6,8.42,8.42,0,0,0,4.37.43,19.36,19.36,0,0,1,2.44-.1,9.38,9.38,0,0,1,4.13,1.22,14.49,14.49,0,0,0,2.1.9.56.56,0,0,1,.4.7A.58.58,0,0,1,91.75,198.87Z" transform="translate(-4.72 -62.97)" style="fill:#fff"/><path d="M107.78,218.8c-8.47-5.21-18-8.13-17.83-20.51.17-10.25,11.32-14.55,6.09-24.77C92.69,167,85.53,159.95,86.41,152c.94-8.53,12.13-6.85,13.28-14.85,1-6.75-7-13.2-1.7-19.4,4.64-5.46,14.77-2.46,18.45,2.46,4.7,6.28-.61,12.27,1.4,18.79,1.3,4.21,5.52,4.22,8.92,6.25s7,5.25,8.81,8.66c5.57,10.49-5,16.18-7.06,25.22-2,8.53,9.26,9.39,11.3,17.38,2.25,8.82-6.27,17.33-13.76,19.95C120.87,218.23,113.13,222.09,107.78,218.8Z" transform="translate(-4.72 -62.97)" style="fill:#b3b2da"/><path d="M116.82,220.11h-.15a.53.53,0,0,1-.45-.6c0-.21,2.94-21.67-5.44-42.77-5.31-13.36-3.84-23.48-2.67-31.61.7-4.84,1.3-9,.12-12.46a.54.54,0,0,1,.33-.68.53.53,0,0,1,.68.33c1.27,3.69.65,8-.07,13-1.16,8-2.6,18,2.6,31.07,8.49,21.37,5.54,43.1,5.51,43.31A.54.54,0,0,1,116.82,220.11Z" transform="translate(-4.72 -62.97)" style="fill:#fff"/><path d="M111.63,176.47a.54.54,0,0,1-.24-1c4.29-1.33,8.71-6.1,8.44-11.08,0-.59-.09-1.24-.15-1.92-.29-3.25-.65-7.29,1.4-9.58a5.86,5.86,0,0,1,4.4-1.75.53.53,0,0,1,.55.52.54.54,0,0,1-.52.55,4.75,4.75,0,0,0-3.63,1.39c-1.74,1.95-1.4,5.73-1.13,8.77.06.69.12,1.36.15,2,.31,5.66-4.53,10.72-9.19,12.16Z" transform="translate(-4.72 -62.97)" style="fill:#fff"/><path d="M108.45,177.09a8.09,8.09,0,0,1-5.52-1.08c-2.42-1.55-4-4.66-4.53-9-.05-.43-.1-.92-.16-1.47-.31-3.08-.77-7.73-3-9.52a3.4,3.4,0,0,0-2.65-.7.54.54,0,0,1-.13-1.06h0a4.48,4.48,0,0,1,3.44.93c2.56,2.07,3.05,7,3.38,10.25.05.53.1,1,.15,1.44.5,4,1.9,6.84,4,8.22,1.84,1.18,4.26,1.3,7.19.38a.53.53,0,0,1,.67.35.54.54,0,0,1-.35.67A14.44,14.44,0,0,1,108.45,177.09Z" transform="translate(-4.72 -62.97)" style="fill:#fff"/><path d="M119.9,210.76a5.08,5.08,0,0,1-2-.07.54.54,0,1,1,.25-1c3.38.83,7.72-3.5,9.21-6.15a14.85,14.85,0,0,0,1.19-4.43c.52-3,1.06-6.19,3.65-7.26a.52.52,0,0,1,.7.29.53.53,0,0,1-.29.7c-2,.84-2.53,3.7-3,6.45a15.5,15.5,0,0,1-1.31,4.78C127,206.4,123.46,210.23,119.9,210.76Z" transform="translate(-4.72 -62.97)" style="fill:#fff"/><path d="M115.16,211.26a6.31,6.31,0,0,1-2.11-.06c-4.09-.77-8.06-5.1-9.73-7.82a19,19,0,0,1-1.73-6c-.69-3.68-1.4-7.48-4-8.33a.54.54,0,0,1,.33-1c3.21,1,4,5.35,4.73,9.16a18.29,18.29,0,0,0,1.6,5.6c1.51,2.46,5.29,6.63,9,7.33a4.71,4.71,0,0,0,3.87-.86.54.54,0,1,1,.65.85A5.68,5.68,0,0,1,115.16,211.26Z" transform="translate(-4.72 -62.97)" style="fill:#fff"/><path d="M279,245.33c5.83-1.72,10.49-3.26,10.09-9.64-.2-3.3-1.87-5.5-5.49-7.15-2.91-1.32-4.38-1.75-5.26-4.61-1.4-4.58.44-9.3-2.83-13.6-3.63-4.77-10.65-2-14.31-6.22-3.27-3.79-5.31-8.87-11.45-8.28-5.12.49-6.73,6.18-4.23,9.84,1.41,2.07,3.7,3.43,4.77,5.68s.25,4-.4,6.09c-1.44,4.56-1.5,9.17,3.7,11.83,3.13,1.6,5.57,3,4.76,6.4-.84,3.53-1.18,5.54,3.17,8,3.27,1.84,6.11,1.56,9.73,1.56,3.41,0,8.07.77,11.2-.86Z" transform="translate(-4.72 -62.97)" style="fill:#8494ab"/><path d="M277,244.77a4.61,4.61,0,0,0,.92-2c.53-2.89-2.4-5.63-5-8.09a20.18,20.18,0,0,1-3.23-3.45c-1.73-2.8-2.39-5.35-2.41-9.4,0-4.81-1.45-6.69-5.54-9.58-3.43-2.43-6.83-5.13-8-8a.5.5,0,0,0-.65-.22.46.46,0,0,0-.33.57c1.2,3,4.71,5.78,8.25,8.27,4,2.79,5.25,4.48,5.28,9.05a17.18,17.18,0,0,0,2.51,9.73,20.55,20.55,0,0,0,3.34,3.57c2.55,2.37,5.39,5,4.91,7.58a4.89,4.89,0,0,1-2,2.86c-.19.16-.24.39-.1.52a.49.49,0,0,0,.61,0A8.29,8.29,0,0,0,277,244.77Z" transform="translate(-4.72 -62.97)" style="fill:#fff"/><path d="M267.45,226.4a.4.4,0,0,0,.09-.25.37.37,0,0,0-.48-.31c-2.25.38-4.07-1.32-6-3.14-1.73-1.61-3.54-3.3-5.85-3.65a.59.59,0,0,0-.63.34.35.35,0,0,0,.32.48c2,.3,3.75,1.9,5.39,3.43,2,1.88,4.09,3.8,6.82,3.33A.6.6,0,0,0,267.45,226.4Z" transform="translate(-4.72 -62.97)" style="fill:#fff"/><path d="M269.76,232.19a.44.44,0,0,0,.07-.14,7.91,7.91,0,0,0,.28-1.56,4.39,4.39,0,0,1,.75-2.32,12.79,12.79,0,0,1,1-1.27,6.41,6.41,0,0,0,1.77-3,14.32,14.32,0,0,0-.68-6.92,14,14,0,0,0-.61-1.45c-.37-.8-1.05-2.29-.9-2.65a.35.35,0,0,0-.23-.5.54.54,0,0,0-.6.25c-.33.61.11,1.66.86,3.29a14.08,14.08,0,0,1,.59,1.38,14.27,14.27,0,0,1,.68,6.61,5.45,5.45,0,0,1-1.56,2.63,14,14,0,0,0-1.11,1.37,5.13,5.13,0,0,0-.89,2.69A7.25,7.25,0,0,1,269,232a.32.32,0,0,0,.33.41A.59.59,0,0,0,269.76,232.19Z" transform="translate(-4.72 -62.97)" style="fill:#fff"/><path d="M281.81,254.82c7.8-1.42,15.11-.82,18.27-9.36,2.5-6.76-3.33-13.13,2.54-17.78,3.53-2.8,9.1-4.47,10.33-9.25,1.28-5-5.09-8.13-3.94-12.91.95-3.95,6.42-4.21,5-9.35a6.58,6.58,0,0,0-8.47-4.8c-4.26,1.22-4.62,5.12-7.45,7.83-1.89,1.81-4.56,0-7.34-.34s-6.29-.09-8.63,1.13c-7.59,4-1.51,12.33-2.89,19.15-1.33,6.59-10.61,2.61-15.41,7.56-5.6,5.78-1.38,15.78,4.14,20.5C271.63,250.34,276.53,255.78,281.81,254.82Z" transform="translate(-4.72 -62.97)" style="fill:#b3b2da"/><path d="M274.28,253.1l.13,0a.49.49,0,0,0,.58-.33c.05-.18,5.13-17.15,17.49-28.32,7-6.29,8.62-12.79,9.91-17.87.75-3,1.4-5.49,2.88-6.85a.38.38,0,0,0,0-.5.33.33,0,0,0-.46-.1c-1.6,1.46-2.26,4.06-3,7.12-1.29,5-2.93,11.42-9.8,17.58-12.61,11.31-17.8,28.55-17.85,28.73A.43.43,0,0,0,274.28,253.1Z" transform="translate(-4.72 -62.97)" style="fill:#fff"/><path d="M292,224a.37.37,0,0,0,.5,0,.41.41,0,0,0,0-.56c-2.5-2.47-4.13-7.22-2.5-10.21.19-.35.42-.73.65-1.12,1.11-1.85,2.46-4.12,1.76-6.33a5.79,5.79,0,0,0-2.42-2.91.34.34,0,0,0-.52.07.46.46,0,0,0,.19.55,4.7,4.7,0,0,1,2,2.38c.6,1.88-.68,4-1.73,5.75-.24.4-.47.78-.67,1.14-1.87,3.41,0,8.54,2.71,11.22Z" transform="translate(-4.72 -62.97)" style="fill:#fff"/><path d="M293.9,225.56a6,6,0,0,0,3.83,1.29c1.91-.12,3.66-1.48,5.05-3.91.14-.24.29-.52.45-.82.92-1.71,2.29-4.26,4-4.49a2.12,2.12,0,0,1,1.64.54.28.28,0,0,0,.43-.06.42.42,0,0,0-.13-.5h0a2.8,2.8,0,0,0-2.13-.7c-1.95.26-3.4,3-4.39,4.77-.16.3-.31.57-.45.81-1.3,2.24-2.88,3.5-4.58,3.6-1.48.09-3.08-.71-4.74-2.36a.37.37,0,0,0-.54,0,.41.41,0,0,0,0,.56A12.39,12.39,0,0,0,293.9,225.56Z" transform="translate(-4.72 -62.97)" style="fill:#fff"/><path d="M275.11,244.9a4.55,4.55,0,0,0,1.6.61.46.46,0,0,0,.53-.36.44.44,0,0,0-.37-.51c-3-.52-5-5.31-5.21-7.84a11.18,11.18,0,0,1,.64-3.72c.67-2.42,1.36-4.89-.35-6.68a.5.5,0,0,0-.67-.08.41.41,0,0,0,0,.62c1.35,1.42.72,3.67.11,5.87a11.68,11.68,0,0,0-.67,4C270.92,239.13,272.43,243.28,275.11,244.9Z" transform="translate(-4.72 -62.97)" style="fill:#fff"/><path d="M278.68,246.85a5.36,5.36,0,0,0,1.64.64c3.32.72,7.55-1.18,9.54-2.59a13.83,13.83,0,0,0,2.92-3.59c1.49-2.27,3-4.57,4.91-4.28a.35.35,0,0,0,.4-.33.42.42,0,0,0-.34-.44c-2.35-.37-4.07,2.24-5.62,4.58a13.32,13.32,0,0,1-2.73,3.38c-1.8,1.27-5.85,3.09-8.87,2.42a4,4,0,0,1-2.69-1.91.48.48,0,0,0-.62-.17.43.43,0,0,0-.18.6A4.73,4.73,0,0,0,278.68,246.85Z" transform="translate(-4.72 -62.97)" style="fill:#fff"/><path d="M77.19,273.94c-6.29-1.86-11.31-3.52-10.89-10.4.22-3.56,2-5.94,5.92-7.71,3.14-1.42,4.73-1.88,5.68-5,1.51-4.94-.48-10,3.05-14.67,3.92-5.14,11.49-2.13,15.44-6.71,3.53-4.09,5.73-9.57,12.36-8.93,5.52.53,7.26,6.67,4.56,10.62-1.52,2.23-4,3.7-5.15,6.13s-.27,4.34.43,6.57c1.56,4.92,1.62,9.89-4,12.76-3.38,1.73-6,3.27-5.14,6.9.91,3.81,1.28,6-3.42,8.61-3.53,2-6.59,1.68-10.5,1.69-3.68,0-8.71.83-12.08-.93Z" transform="translate(-4.72 -62.97)" style="fill:#8494ab"/><path d="M79.56,270.49a4.61,4.61,0,0,1-.92-2c-.53-2.89,2.4-5.63,5-8.09A20.19,20.19,0,0,0,86.92,257c1.73-2.8,2.39-5.35,2.41-9.4,0-4.81,1.45-6.69,5.54-9.58,3.43-2.43,6.83-5.13,8-8a.5.5,0,0,1,.65-.22.46.46,0,0,1,.33.57c-1.2,3-4.71,5.78-8.25,8.27-4,2.79-5.25,4.48-5.28,9.05a17.17,17.17,0,0,1-2.51,9.73A20.55,20.55,0,0,1,84.4,261c-2.55,2.37-5.39,5-4.91,7.58a4.89,4.89,0,0,0,2,2.86c.19.16.24.39.1.52a.49.49,0,0,1-.61,0A8.29,8.29,0,0,1,79.56,270.49Z" transform="translate(-4.72 -62.97)" style="fill:#fff"/><path d="M89.13,252.12a.4.4,0,0,1-.09-.25.37.37,0,0,1,.48-.31c2.25.38,4.07-1.32,6-3.14,1.73-1.61,3.54-3.3,5.85-3.65a.59.59,0,0,1,.63.34.35.35,0,0,1-.32.48c-2,.3-3.75,1.9-5.39,3.43-2,1.88-4.09,3.8-6.82,3.33A.6.6,0,0,1,89.13,252.12Z" transform="translate(-4.72 -62.97)" style="fill:#fff"/><path d="M86.82,257.91a.44.44,0,0,1-.07-.14,7.9,7.9,0,0,1-.28-1.56,4.39,4.39,0,0,0-.75-2.32,12.79,12.79,0,0,0-1-1.27,6.41,6.41,0,0,1-1.77-3,14.32,14.32,0,0,1,.68-6.92,14,14,0,0,1,.61-1.45c.37-.8,1.05-2.29.9-2.65a.35.35,0,0,1,.23-.5.54.54,0,0,1,.6.25c.33.61-.11,1.66-.86,3.29A14.08,14.08,0,0,0,84.5,243a14.27,14.27,0,0,0-.68,6.61,5.45,5.45,0,0,0,1.56,2.63,14,14,0,0,1,1.11,1.37,5.13,5.13,0,0,1,.89,2.69,7.25,7.25,0,0,0,.25,1.43.32.32,0,0,1-.33.41A.59.59,0,0,1,86.82,257.91Z" transform="translate(-4.72 -62.97)" style="fill:#fff"/><path d="M74.78,280.54c-7.8-1.42-15.11-.82-18.27-9.36-2.5-6.76,3.33-13.13-2.54-17.78-3.53-2.8-9.1-4.47-10.33-9.25-1.28-5,5.09-8.13,3.94-12.91-.95-3.95-6.42-4.21-5-9.35a6.58,6.58,0,0,1,8.47-4.8c4.26,1.22,4.62,5.12,7.45,7.83,1.89,1.81,4.56,0,7.34-.34s6.29-.09,8.63,1.13c7.59,4,1.51,12.33,2.89,19.15,1.33,6.59,10.61,2.61,15.41,7.56,5.6,5.78,1.38,15.78-4.14,20.5C85,276.06,80.05,281.5,74.78,280.54Z" transform="translate(-4.72 -62.97)" style="fill:#b3b2da"/><path d="M82.31,278.82l-.13,0a.49.49,0,0,1-.58-.33c-.05-.18-5.13-17.15-17.49-28.32-7-6.29-8.62-12.79-9.91-17.87-.75-3-1.4-5.49-2.88-6.85a.38.38,0,0,1,0-.5.33.33,0,0,1,.46-.1c1.6,1.46,2.26,4.06,3,7.12,1.29,5,2.93,11.42,9.8,17.58,12.61,11.31,17.8,28.55,17.85,28.73A.43.43,0,0,1,82.31,278.82Z" transform="translate(-4.72 -62.97)" style="fill:#fff"/><path d="M64.61,249.72a.37.37,0,0,1-.5,0,.41.41,0,0,1,0-.56c2.5-2.47,4.13-7.22,2.5-10.21-.19-.35-.42-.73-.65-1.12-1.11-1.85-2.46-4.12-1.76-6.33a5.79,5.79,0,0,1,2.42-2.91.34.34,0,0,1,.52.07.46.46,0,0,1-.19.55,4.7,4.7,0,0,0-2,2.38c-.6,1.88.68,4,1.73,5.75.24.4.47.78.67,1.14,1.87,3.41,0,8.54-2.71,11.22Z" transform="translate(-4.72 -62.97)" style="fill:#fff"/><path d="M62.68,251.28a6,6,0,0,1-3.83,1.29c-1.91-.12-3.66-1.48-5.05-3.91-.14-.24-.29-.52-.45-.82-.92-1.71-2.29-4.26-4-4.49a2.12,2.12,0,0,0-1.64.54.28.28,0,0,1-.43-.06.42.42,0,0,1,.13-.5h0a2.8,2.8,0,0,1,2.13-.7c1.95.26,3.4,3,4.39,4.77.16.3.31.57.45.81,1.3,2.24,2.88,3.5,4.58,3.6,1.48.09,3.08-.71,4.74-2.36a.37.37,0,0,1,.54,0,.41.41,0,0,1,0,.56A12.4,12.4,0,0,1,62.68,251.28Z" transform="translate(-4.72 -62.97)" style="fill:#fff"/><path d="M81.47,270.62a4.55,4.55,0,0,1-1.6.61.46.46,0,0,1-.53-.36.44.44,0,0,1,.37-.51c3-.52,5-5.31,5.21-7.84a11.18,11.18,0,0,0-.64-3.72c-.67-2.42-1.36-4.89.35-6.68a.5.5,0,0,1,.67-.08.41.41,0,0,1,0,.62c-1.35,1.42-.72,3.67-.11,5.87a11.68,11.68,0,0,1,.67,4C85.66,264.85,84.16,269,81.47,270.62Z" transform="translate(-4.72 -62.97)" style="fill:#fff"/><path d="M77.91,272.57a5.36,5.36,0,0,1-1.64.64c-3.32.72-7.55-1.18-9.54-2.59A13.84,13.84,0,0,1,63.82,267c-1.49-2.27-3-4.57-4.91-4.28a.35.35,0,0,1-.4-.33.42.42,0,0,1,.34-.44c2.35-.37,4.07,2.24,5.62,4.58a13.32,13.32,0,0,0,2.73,3.38c1.8,1.27,5.85,3.09,8.87,2.42a4,4,0,0,0,2.69-1.91.48.48,0,0,1,.62-.17.43.43,0,0,1,.18.6A4.73,4.73,0,0,1,77.91,272.57Z" transform="translate(-4.72 -62.97)" style="fill:#fff"/><polygon points="142.93 205.99 119.07 205.99 121.03 177.23 140.97 177.23 142.93 205.99" style="fill:#1b0c41"/><path d="M127.86,261.81c6-2,13-3.4,18.87-6.29l-1-15.32H125.75L124.2,263Z" transform="translate(-4.72 -62.97)" style="fill:#060d24"/><path d="M150.77,264.36a1.56,1.56,0,0,0-1.3-.69H122a1.56,1.56,0,0,0-1.3.69l-3.6,5.38a1.56,1.56,0,0,0,1.3,2.43h34.73a1.56,1.56,0,0,0,1.3-2.43Z" transform="translate(-4.72 -62.97)" style="fill:#1b0c41"/><rect x="65.88" y="97.57" width="130.25" height="87.31" rx="6.71" ry="6.71" style="fill:#1b0c41"/><rect x="71.87" y="103.35" width="118.26" height="74.84" style="fill:url(#linear-gradient-2)"/><rect x="99.99" y="111.39" width="57.11" height="40.91" style="fill:#1b0c41"/><rect x="102.52" y="120.14" width="52.05" height="28.46" style="fill:#01d9cf"/><path d="M156.34,203.36c-2.55.64-5.29,1.92-8,1.84a24.25,24.25,0,0,1-8.19-1.73c-4-1.54-6.34-2.08-10.45.15-4.56,2.48-8.66,4.29-13.8,2.6-3.1-1-5.11-3-8.62-3.13h-.08v8.48h52.05v-8.08A5.33,5.33,0,0,0,156.34,203.36Z" transform="translate(-4.72 -62.97)" style="fill:#01d9cf"/><path d="M109.69,193.68c.43.91,0,2.12.24,3.08.68,2.49,3.67,0,5.19.31,1.84.33,2.24,2.86,3.44,4,1.66,1.53,3.15-.77,4.45-1.62,1-.65,1.9-.44,3-.72a7.34,7.34,0,0,0,3.23-2.27c1.42-1.49,2.32-2.7,4.56-2.66,1.07,0,2.15.29,3.22.4s2.4-.09,3.31.56.84,1.81,1,2.88c.56,2.86,3.09,1.74,5,1.13,2.53-.84,3.47,2.47,5.78,2.24,1.45-.14,1.43-1.3,1.92-2.32.39-.82,1.4-1.62,2.3-.95.67.5.57,1.33,1.62,1.36a1.48,1.48,0,0,0,1.35-.79v-2.78h0c0-1.18,0-2.37,0-3.55v-8.83H107.24V193C107.24,192.73,109.37,193,109.69,193.68Z" transform="translate(-4.72 -62.97)" style="fill:#dbdbdb"/><path d="M142.72,207a.45.45,0,0,0-.09.18C142.63,207.26,142.67,207.19,142.72,207Z" transform="translate(-4.72 -62.97)" style="fill:#dbdbdb"/><path d="M120.21,189.14c3.65,3.21,6.46,14.34,11.62,12.25,2.92-1.18,13.12-12.26,16.29-12.57,2.63-.26,4.21.8,6.48,2.42a49.85,49.85,0,0,1,4.69,4.08V180.84H107.24v10.75C112.57,187.54,114.87,184.45,120.21,189.14Z" transform="translate(-4.72 -62.97)" style="fill:#fff"/><circle cx="128.01" cy="128.62" r="3.28" style="fill:#fff"/><path d="M120.14,186.44c2.1,0,4.24.11,6.34,0,.79,0,2.55-.34,2.17-1.59s-2-.5-2.32.33c-.11-2.5-3.57-2.11-2.53,0-.44-.44-1.2-1.23-1.91-1a.78.78,0,0,0-.19,1.41c-.36-.42-1.43-.92-2-.47A.72.72,0,0,0,120.14,186.44Z" transform="translate(-4.72 -62.97)" style="fill:url(#linear-gradient-3)"/><path d="M147.26,186.2c1.76,0,3.55.09,5.31,0,.66,0,2.13-.29,1.82-1.33s-1.68-.41-1.94.27c-.09-2.09-3-1.77-2.12,0-.37-.37-1-1-1.6-.82a.66.66,0,0,0-.16,1.18c-.3-.36-1.2-.77-1.64-.39A.6.6,0,0,0,147.26,186.2Z" transform="translate(-4.72 -62.97)" style="fill:url(#linear-gradient-4)"/><path d="M140.65,188.47c1.39,0,2.81.07,4.2,0,.52,0,1.69-.23,1.44-1s-1.33-.33-1.53.22c-.07-1.65-2.36-1.4-1.68,0-.29-.29-.79-.81-1.27-.65a.52.52,0,0,0-.13.93c-.24-.28-.95-.61-1.29-.31A.48.48,0,0,0,140.65,188.47Z" transform="translate(-4.72 -62.97)" style="fill:url(#linear-gradient-5)"/><circle cx="104.08" cy="114.88" r="1.19" style="fill:#fff"/><circle cx="108.09" cy="114.88" r="1.19" style="fill:#fff"/><circle cx="112.1" cy="114.88" r="1.19" style="fill:#fff"/><circle cx="153.38" cy="114.88" r="1.19" style="fill:#fff"/><path d="M115.09,173a2.88,2.88,0,0,0-1.55.53,6.13,6.13,0,0,1-1.37.5,5.15,5.15,0,0,1,.1.81s.76-.13.84-.16c.26-.08.46-.28.75-.2a2.15,2.15,0,0,1,.4.2c.16.08.54.46.72.39s-.18-.43-.23-.53,0-.38.16-.33.77.42,1.08.27-.82-.52-1-.65c.33.17,1.4.49,1.48.31.17-.36-1-.55-1.28-.7a1.54,1.54,0,0,0,.89.19C116.49,173.45,115.33,173.06,115.09,173Z" transform="translate(-4.72 -62.97)" style="fill:#f88667"/><path d="M100.73,182.51a2.14,2.14,0,0,0,2.77-.12c1.27-1.14,3.65-3.27,4.42-3.86,1.07-.83,5.89-3.84,5.89-3.84l-.72-1.36s-6,2.66-6.85,3.32-5.78,3.63-6,4.82A1.1,1.1,0,0,0,100.73,182.51Z" transform="translate(-4.72 -62.97)" style="fill:#fd425f"/><path d="M100.73,182.51a2.14,2.14,0,0,0,2.77-.12c1.27-1.14,3.65-3.27,4.42-3.86,1.07-.83,5.89-3.84,5.89-3.84l-.72-1.36s-6,2.66-6.85,3.32-5.78,3.63-6,4.82A1.1,1.1,0,0,0,100.73,182.51Z" transform="translate(-4.72 -62.97)" style="fill:#ca0045;opacity:0.32;mix-blend-mode:multiply"/><polygon points="92.35 134.48 92.69 133.46 107.93 133.46 107.61 134.48 92.35 134.48" style="fill:#110239"/><polygon points="90.54 139.91 90.89 138.88 106.2 138.88 105.88 139.91 90.54 139.91" style="fill:#110239"/><polygon points="94.65 129.04 94.99 128.03 110.22 128.03 109.9 129.04 94.65 129.04" style="fill:#110239"/><polygon points="88.71 145.4 89.06 144.36 104.46 144.36 104.13 145.4 88.71 145.4" style="fill:#110239"/><polygon points="86.86 150.95 87.21 149.9 102.7 149.9 102.36 150.95 86.86 150.95" style="fill:#110239"/><polygon points="84.99 156.56 85.35 155.49 100.91 155.49 100.58 156.56 84.99 156.56" style="fill:#110239"/><polygon points="83.1 162.23 83.46 161.15 99.11 161.15 98.77 162.23 83.1 162.23" style="fill:#110239"/><polygon points="81.46 167.89 81.82 166.81 97.47 166.81 97.13 167.89 81.46 167.89" style="fill:#110239"/><polygon points="79.82 173.54 80.18 172.47 95.83 172.47 95.49 173.54 79.82 173.54" style="fill:#110239"/><polygon points="78.18 179.2 78.54 178.13 94.19 178.13 93.85 179.2 78.18 179.2" style="fill:#110239"/><path d="M80.12,250.8H80a.71.71,0,0,1-.67-.93l20.26-60.31a.7.7,0,0,1,.67-.48h1l-20.5,61.23A.7.7,0,0,1,80.12,250.8Z" transform="translate(-4.72 -62.97)" style="fill:#110239"/><path d="M95.62,250.8h-.08a.7.7,0,0,1-.67-.92l19.63-60.31a.71.71,0,0,1,.67-.49h0a.7.7,0,0,1,.67.92L96.29,250.31A.71.71,0,0,1,95.62,250.8Z" transform="translate(-4.72 -62.97)" style="fill:#110239"/><polygon points="82.95 162.2 83.3 161.15 98.97 161.15 98.64 162.2 82.95 162.2" style="fill:#110239"/><polygon points="81.08 167.79 81.44 166.73 97.2 166.73 96.86 167.79 81.08 167.79" style="fill:#110239"/><polygon points="85.3 156.61 85.65 155.56 101.33 155.56 101 156.61 85.3 156.61" style="fill:#110239"/><polygon points="79.2 173.44 79.56 172.37 95.4 172.37 95.06 173.44 79.2 173.44" style="fill:#110239"/><polygon points="77.3 179.15 77.66 178.06 93.59 178.06 93.24 179.15 77.3 179.15" style="fill:#110239"/><polygon points="75.37 184.92 75.73 183.82 91.75 183.82 91.4 184.92 75.37 184.92" style="fill:#110239"/><polygon points="73.42 190.75 73.79 189.65 89.9 189.65 89.55 190.75 73.42 190.75" style="fill:#110239"/><polygon points="71.74 196.57 72.11 195.47 88.21 195.47 87.86 196.57 71.74 196.57" style="fill:#110239"/><polygon points="70.05 202.4 70.42 201.29 86.52 201.29 86.17 202.4 70.05 202.4" style="fill:#110239"/><path d="M72.79,272.4h-.07a.73.73,0,0,1-.69-1L90.3,217.06a.73.73,0,0,1,.69-.5h1L73.48,271.91A.73.73,0,0,1,72.79,272.4Z" transform="translate(-4.72 -62.97)" style="fill:#110239"/><path d="M88.74,272.4h-.08a.73.73,0,0,1-.69-.95l17.62-54.39a.73.73,0,0,1,.69-.5h0a.73.73,0,0,1,.69.94L89.43,271.9A.73.73,0,0,1,88.74,272.4Z" transform="translate(-4.72 -62.97)" style="fill:#110239"/><path d="M101.6,176.62l.09.1a6.4,6.4,0,0,0,1,.84c.22.14.55.24.73.39l.23.16a17.8,17.8,0,0,0-.33,2.81,4.92,4.92,0,0,1-2.63-.92A19.57,19.57,0,0,0,101.6,176.62Z" transform="translate(-4.72 -62.97)" style="fill:#f88667"/><path d="M102.64,179.84a2.8,2.8,0,0,0-.88-1.45,4.43,4.43,0,0,0-.46-.34,9.88,9.88,0,0,0,.31-1.43l.09.1a6.4,6.4,0,0,0,1,.84c.22.14.55.24.73.39l.23.16a17.8,17.8,0,0,0-.33,2.81,7.56,7.56,0,0,1-.77-.11A1.45,1.45,0,0,0,102.64,179.84Z" transform="translate(-4.72 -62.97)" style="fill:#e45940"/><path d="M102.67,211s.05,1.92.35,2.19,4.13.38,4.46,0,.14-.94-.69-1.17-1.31,0-1.86-.23-.41-1.1-.41-1.1Z" transform="translate(-4.72 -62.97)" style="fill:#110239"/><path d="M93.18,211s-.29,1.87,0,2.15,4.19.58,4.53.24.17-.94-.64-1.2-1.29-.1-1.85-.31-.14-1.05-.14-1.05Z" transform="translate(-4.72 -62.97)" style="fill:#110239"/><path d="M96,200.19a57.38,57.38,0,0,1,.8-10.7,4.88,4.88,0,0,1,1.91.37c1.17.53,2.34,1,3.52,1.55a75.69,75.69,0,0,0-3.29,9.75c-.31,1.67-3.81,10.22-3.81,10.22L93,211.13C93,209.75,96,200.66,96,200.19Z" transform="translate(-4.72 -62.97)" style="fill:#0400a3"/><path d="M100.35,190.63a19.51,19.51,0,0,0,1.89.77,80.31,80.31,0,0,0-3,8.71c-.3-.9-1.73-3.07-2.29-5.44a12.67,12.67,0,0,1-.18-4.84v0A9.11,9.11,0,0,1,100.35,190.63Z" transform="translate(-4.72 -62.97)" style="fill:#04006c"/><path d="M98.77,190.34c.83.28,2.33.68,3.46,1.08.79,2,3.12,6.71,3.25,8.84.13,2.35-.68,11.26-.68,11.26h-2.42s-.22-10-.56-10.69c-1.12-2.13-2.36-3.81-3.06-5.14A16.5,16.5,0,0,1,97,191c-.09-.46-.49-2,.29-2.48C97.89,188.72,98.08,190.1,98.77,190.34Z" transform="translate(-4.72 -62.97)" style="fill:#0400a3"/><path d="M103.12,191.91a9.86,9.86,0,0,1-4,.63A7.62,7.62,0,0,1,96,191.9s.93-7.24,2-9.52a4.78,4.78,0,0,1,2.83-2.72,6,6,0,0,0,2.52.79s0,4.45-.11,6.22S103.12,191.91,103.12,191.91Z" transform="translate(-4.72 -62.97)" style="fill:#fd425f"/><path d="M103.21,186q0-.29,0-.62v-.08c0-.21,0-.43,0-.65v-.11c0-.25,0-.5,0-.75h0a1.45,1.45,0,0,1-.27,0,6.29,6.29,0,0,1-1.94-.9l-.32-.16a8.44,8.44,0,0,0,.49,2.87,16.34,16.34,0,0,1,.35,6.76,10.8,10.8,0,0,0,1.55-.45s0-3.46.07-5.23c0-.16,0-.34,0-.54Z" transform="translate(-4.72 -62.97)" style="fill:#ca0045;opacity:0.32;mix-blend-mode:multiply"/><path d="M112,191.94a1.6,1.6,0,0,1,.28,0,1.15,1.15,0,0,0,.62-.08,2.42,2.42,0,0,1,1-.25c.18,0,1.23.28,1,.71,0,.06-.16.15-.2.13l-.41-.15a2.37,2.37,0,0,1,.28.12s.12.06.15.11a.27.27,0,0,1-.12.31c-.09,0-.16-.06-.24-.1h0c.07.06.23.1.13.32s-.19.09-.29.07l-.11,0a2.48,2.48,0,0,1,.22.12c.1.09-.12.38-.32.36s-.4-.19-.47-.17a1.58,1.58,0,0,1-1-.11l-.39-.17a4.2,4.2,0,0,1-.59-.4C111.8,192.38,112.06,192.3,112,191.94Z" transform="translate(-4.72 -62.97)" style="fill:#f88667"/><path d="M111.66,193.27l.85-1.69a48.58,48.58,0,0,1-5.77-4.26c-1.54-1.56-3.21-4.73-4.39-4.93s-2.36.45-1.68,2.09,4.13,3.81,4.84,4.53A69.78,69.78,0,0,0,111.66,193.27Z" transform="translate(-4.72 -62.97)" style="fill:#fd425f"/><path d="M101,173.33s3.12-.36,3.33.17.26,2,.46,2.31.57.68.43.89-.29.15-.37.38-.05,1.5-.46,1.69a3.47,3.47,0,0,1-3.27-1.12C100.38,176.44,99.52,173.44,101,173.33Z" transform="translate(-4.72 -62.97)" style="fill:#f88667"/><path d="M100.24,173.62l2.07,1a4.64,4.64,0,0,0,.53,2.26s-.19.28-.38.12a.76.76,0,0,1-.37-.55c0-.3-.23-1.11-.77-.71s0,.87.31,1c0,0,.44,1.57-.4,1.46a4.66,4.66,0,0,1-1.43-2.37C99.14,173.89,99.72,173.27,100.24,173.62Z" transform="translate(-4.72 -62.97)" style="fill:#161415"/><path d="M105.26,172.93s.74,1.06-1,1.77-4.19-1.16-4.19-1.16.06-.93,1.43-1.33a2.4,2.4,0,0,1,2.51.34C104.92,173.56,105.26,172.93,105.26,172.93Z" transform="translate(-4.72 -62.97)" style="fill:#161415"/><polygon points="172.43 178.15 174.3 162.08 120.36 155.87 117.78 178.15 172.43 178.15" style="fill:#1b0c41"/><polygon points="170.01 178.15 170.96 170.07 121.8 164.41 120.2 178.15 170.01 178.15" style="fill:#fff"/><circle cx="128.56" cy="222.57" r="1.14" transform="translate(-111.97 261.87) rotate(-83.43)" style="fill:#fff"/><circle cx="132.35" cy="223.01" r="1.14" transform="translate(-109.05 266.01) rotate(-83.43)" style="fill:#fff"/><circle cx="136.14" cy="223.45" r="1.14" transform="translate(-106.13 270.17) rotate(-83.43)" style="fill:#fff"/><path d="M171.54,223.59a2.88,2.88,0,0,1,.59,1.53,6.13,6.13,0,0,0,.49,1.37,5.17,5.17,0,0,0-.68.44s-.39-.67-.42-.75c-.1-.25-.08-.53-.33-.71a2.15,2.15,0,0,0-.41-.18c-.16-.07-.7-.11-.76-.3s.45-.14.55-.16.32-.21.15-.33-.82-.32-.9-.65.93.29,1.16.36c-.34-.14-1.28-.75-1.19-.94.17-.36,1,.39,1.36.53a1.54,1.54,0,0,1-.72-.56C170.27,222.84,171.32,223.48,171.54,223.59Z" transform="translate(-4.72 -62.97)" style="fill:#f88667"/><path d="M183.17,237.86a2.29,2.29,0,0,0-.63-2.9c-1.44-1.14-4.11-3.26-4.87-4-1.07-1-5.13-5.52-5.13-5.52l-1.3,1s3.89,5.86,4.75,6.63,4.88,5.44,6.17,5.43A1.17,1.17,0,0,0,183.17,237.86Z" transform="translate(-4.72 -62.97)" style="fill:#b3b2da"/><path d="M183.17,237.86a2.29,2.29,0,0,0-.63-2.9c-1.44-1.14-4.11-3.26-4.87-4-1.07-1-5.13-5.52-5.13-5.52l-1.3,1s3.89,5.86,4.75,6.63,4.88,5.44,6.17,5.43A1.17,1.17,0,0,0,183.17,237.86Z" transform="translate(-4.72 -62.97)" style="fill:#696c95"/><path d="M182.14,232.22l-.1.11a6.87,6.87,0,0,1-1,.92c-.23.16-.58.26-.78.43l-.25.18a19,19,0,0,1,.41,3s2.06-.18,2.8-1A20.94,20.94,0,0,1,182.14,232.22Z" transform="translate(-4.72 -62.97)" style="fill:#f88667"/><path d="M181.1,235.7a3,3,0,0,1,.91-1.57,4.75,4.75,0,0,1,.49-.38,10.57,10.57,0,0,1-.36-1.52l-.1.11a6.87,6.87,0,0,1-1,.92c-.23.16-.58.26-.78.43l-.25.18a19,19,0,0,1,.41,3,8.15,8.15,0,0,0,.82-.13A1.55,1.55,0,0,1,181.1,235.7Z" transform="translate(-4.72 -62.97)" style="fill:#e45940"/><path d="M178.06,270.11s0,2.06-.28,2.35-4.4.58-4.77.22-.19-1,.68-1.28,1.4-.06,2-.33.39-1.19.39-1.19Z" transform="translate(-4.72 -62.97)" style="fill:#161415"/><path d="M188.07,269.51s.51,2,.23,2.29-4.4,1.06-4.8.73-.28-1,.56-1.34,1.39-.2,1.94-.52.27-1.23.27-1.23Z" transform="translate(-4.72 -62.97)" style="fill:#161415"/><path d="M188.11,257.62a61.43,61.43,0,0,0-.21-11.48,5.23,5.23,0,0,0-2.06.28c-1.28.5-2.57,1-3.85,1.45a81,81,0,0,1,2.93,10.63c.23,1.81,1.19,11.71,1.19,11.71h2.33C188.48,268.71,188.08,258.11,188.11,257.62Z" transform="translate(-4.72 -62.97)" style="fill:#0400a3"/><path d="M184,247.13a20.85,20.85,0,0,1-2.07.71,85.15,85.15,0,0,1,2.93,10.6c.37-.94,1.82-4.29,2.55-6.79a13.56,13.56,0,0,0,.48-5.16v0A9.75,9.75,0,0,0,184,247.13Z" transform="translate(-4.72 -62.97)" style="fill:#04006c"/><path d="M185.76,246.91c-.9.25-2.53.58-3.77.95a90.76,90.76,0,0,0-4.12,10.33c-.73,3.08-2.12,12.22-2.12,12.22l2.61.45s3.11-12.24,3.51-12.91c1.33-2.21,2.75-3.93,3.58-5.31a17.28,17.28,0,0,0,2.49-6.16C187.25,246.64,186.51,246.7,185.76,246.91Z" transform="translate(-4.72 -62.97)" style="fill:#0400a3"/><path d="M180.81,248.62a18.19,18.19,0,0,0,4.25.08c1.59-.18,3-.75,3.38-1.35,0,0-1.09-6.61-2.28-9a5.12,5.12,0,0,0-3.08-2.86,6.43,6.43,0,0,1-2.68.89s.11,4.76.24,6.66S180.81,248.62,180.81,248.62Z" transform="translate(-4.72 -62.97)" style="fill:#b3b2da"/><path d="M182.72,241.83a9,9,0,0,0,.47-3.08l-.34.18a6.73,6.73,0,0,1-2.06,1,1.55,1.55,0,0,1-.29,0c0,1.16.09,2.33.14,3.07.13,1.9.18,5.6.18,5.6s.59.09,1.46.14A16.14,16.14,0,0,1,182.72,241.83Z" transform="translate(-4.72 -62.97)" style="fill:#696c95"/><path d="M182.94,230.12s-.94-1.81-2.11-1.7-1.92.32-2.06.78a13,13,0,0,1-.65,2.18c-.29.47-.92,1.1-.9,1.3s.69.26.73.35a6.92,6.92,0,0,0,.7,1.74,4.87,4.87,0,0,0,2.81-1.48C181.78,232.61,183.07,231.3,182.94,230.12Z" transform="translate(-4.72 -62.97)" style="fill:#f88667"/><path d="M180.54,230.33a2.17,2.17,0,0,1-2.29,0c-1.26-.53-.81-3.39,1.8-3.26s2.52,1.06,3,1.26a1.82,1.82,0,0,1,1.1,1,2.51,2.51,0,0,1-.74,3.1c-1.21,1.13-2,1-2,1-.06-.32,0-.87.24-1a1.82,1.82,0,0,0,.43-.24.51.51,0,0,0-.51-.84c-.29,0-.42.56-.58.75s-.29.16-.39.12-.34-.65.06-1.27C180.88,230.49,180.83,230.08,180.54,230.33Z" transform="translate(-4.72 -62.97)" style="fill:#161415"/><path d="M167.83,240.7a1.84,1.84,0,0,1-.93-.25,1.11,1.11,0,0,0-.4-.21,2.37,2.37,0,0,1-.48-.2.92.92,0,0,0-.49-.15c-.21,0,0,.24.08.37s.76.24.78.45-.72,0-.87,0c-.35-.08-.43-.34-.67-.55s-.25-.14-.27.08.12.29.23.4a1.94,1.94,0,0,0,.79.51,2.26,2.26,0,0,1-.79-.4c-.13-.1-.63-.64-.81-.45-.36.39,1.06,1.22,1.36,1.25a2.66,2.66,0,0,1-.82-.35c-.15-.09-.51-.31-.49,0,0,.47,1,.6,1.4.73a3.11,3.11,0,0,1-.83-.17c-.37-.09-.31.21.05.37a4.26,4.26,0,0,0,.54.17,2.88,2.88,0,0,0,1.85-.15c.25-.08.8,0,.91-.17C168.21,241.63,167.92,241.06,167.83,240.7Z" transform="translate(-4.72 -62.97)" style="fill:#f88667"/><path d="M167.2,242.32v-1.88s5.57-.66,7.92-1.28,5.74-2.71,7-2.23,2,1.77.43,2.95-6.11,1.31-7.19,1.6A77.18,77.18,0,0,1,167.2,242.32Z" transform="translate(-4.72 -62.97)" style="fill:#b3b2da"/><rect x="207.48" y="165.23" width="65.76" height="44.09" rx="1.53" ry="1.53" style="fill:#1b0c41"/><rect x="210.51" y="168.15" width="56.69" height="37.79" style="fill:url(#linear-gradient-6)"/><circle cx="270.01" cy="187.28" r="1.19" style="fill:#fff"/><path d="M266.18,252.07a6.16,6.16,0,0,1-2.45-.91c-.82-.52-1.62-1.07-2.44-1.59a9.71,9.71,0,0,0-1.38-.77,4.47,4.47,0,0,0-.66-.2,4.36,4.36,0,0,0-.47-.09,2.45,2.45,0,0,0-2,1.05c-.4.42-.89,1-1.55.89a2.1,2.1,0,0,1-1.07-.76c-.57-.65-.38-2-1-2.49-.91-.82-1.45.09-2.35.26-2.21.42-2.55-2-3.09-3.72a3.64,3.64,0,0,0-1.4-2.22,3.47,3.47,0,0,0-3.81,0,3.64,3.64,0,0,0-1.4,2.22c-.54,1.73-.88,4.14-3.09,3.72-.9-.17-1.44-1.08-2.35-.26-.57.51-.39,1.84-1,2.49a2.1,2.1,0,0,1-1.07.76c-.65.13-1.15-.47-1.55-.89a2.45,2.45,0,0,0-2-1.05,4.36,4.36,0,0,0-.47.09,4.47,4.47,0,0,0-.66.2,9.71,9.71,0,0,0-1.38.77c-.82.52-1.62,1.07-2.44,1.59a6.16,6.16,0,0,1-2.45.91,29.46,29.46,0,0,1-4.38-.1c3.44.95,10.11,4.27,13.38,3.78,2.73-.41,4.36-1.38,6.62,1a30.66,30.66,0,0,0,2.6,2.87,6,6,0,0,0,7,0,30.65,30.65,0,0,0,2.6-2.87c2.27-2.33,3.89-1.36,6.62-1,3.26.48,9.94-2.83,13.38-3.78A29.47,29.47,0,0,1,266.18,252.07Z" transform="translate(-4.72 -62.97)" style="fill:url(#linear-gradient-7)"/><g style="opacity:0.55;mix-blend-mode:screen"><path d="M219,253.52a.12.12,0,0,1-.12-.12v-6.32a.12.12,0,0,1,.25,0v6.32A.12.12,0,0,1,219,253.52Z" transform="translate(-4.72 -62.97)" style="fill:#fff"/><path d="M222.61,255.44a.12.12,0,0,1-.12-.12V245.14a.12.12,0,0,1,.25,0v10.17A.12.12,0,0,1,222.61,255.44Z" transform="translate(-4.72 -62.97)" style="fill:#fff"/><path d="M226.24,259.25a.12.12,0,0,1-.12-.12V241.36a.12.12,0,0,1,.25,0v17.76A.12.12,0,0,1,226.24,259.25Z" transform="translate(-4.72 -62.97)" style="fill:#fff"/><path d="M229.87,255.88a.12.12,0,0,1-.12-.12v-11a.12.12,0,0,1,.25,0v11A.12.12,0,0,1,229.87,255.88Z" transform="translate(-4.72 -62.97)" style="fill:#fff"/><path d="M233.5,253.52a.12.12,0,0,1-.12-.12v-6.32a.12.12,0,0,1,.25,0v6.32A.12.12,0,0,1,233.5,253.52Z" transform="translate(-4.72 -62.97)" style="fill:#fff"/><path d="M237.13,255.3a.12.12,0,0,1-.12-.12v-9.87a.12.12,0,0,1,.25,0v9.87A.12.12,0,0,1,237.13,255.3Z" transform="translate(-4.72 -62.97)" style="fill:#fff"/><path d="M240.76,258a.12.12,0,0,1-.12-.12V242.64a.12.12,0,0,1,.25,0v15.21A.12.12,0,0,1,240.76,258Z" transform="translate(-4.72 -62.97)" style="fill:#fff"/><path d="M244.39,262.2a.12.12,0,0,1-.12-.12V238.41a.12.12,0,0,1,.25,0v23.66A.12.12,0,0,1,244.39,262.2Z" transform="translate(-4.72 -62.97)" style="fill:#fff"/><path d="M248,258a.12.12,0,0,1-.12-.12V242.64a.12.12,0,0,1,.25,0v15.21A.12.12,0,0,1,248,258Z" transform="translate(-4.72 -62.97)" style="fill:#fff"/><path d="M251.64,255.3a.12.12,0,0,1-.12-.12v-9.87a.12.12,0,0,1,.25,0v9.87A.12.12,0,0,1,251.64,255.3Z" transform="translate(-4.72 -62.97)" style="fill:#fff"/><path d="M255.27,255.88a.12.12,0,0,1-.12-.12v-11a.12.12,0,0,1,.25,0v11A.12.12,0,0,1,255.27,255.88Z" transform="translate(-4.72 -62.97)" style="fill:#fff"/><path d="M258.9,259.25a.12.12,0,0,1-.12-.12V241.36a.12.12,0,0,1,.25,0v17.76A.12.12,0,0,1,258.9,259.25Z" transform="translate(-4.72 -62.97)" style="fill:#fff"/><path d="M262.53,255.44a.12.12,0,0,1-.12-.12V245.14a.12.12,0,0,1,.25,0v10.17A.12.12,0,0,1,262.53,255.44Z" transform="translate(-4.72 -62.97)" style="fill:#fff"/><path d="M266.16,253.52a.12.12,0,0,1-.12-.12v-6.32a.12.12,0,0,1,.25,0v6.32A.12.12,0,0,1,266.16,253.52Z" transform="translate(-4.72 -62.97)" style="fill:#fff"/></g><circle cx="239.67" cy="188.78" r="5.48" style="fill:#005b98;opacity:0.55;mix-blend-mode:multiply"/><path d="M244.39,257.47a5.72,5.72,0,1,1,5.72-5.72A5.73,5.73,0,0,1,244.39,257.47Zm0-11a5.25,5.25,0,1,0,5.25,5.25A5.25,5.25,0,0,0,244.39,246.5Z" transform="translate(-4.72 -62.97)" style="fill:#fff"/><rect x="238.9" y="185.79" width="1.54" height="4.5" rx="0.76" ry="0.76" style="fill:#fff"/><rect x="238.76" y="191.44" width="1.82" height="0.33" style="fill:#fff"/><rect x="239.5" y="190.21" width="0.33" height="1.38" style="fill:#fff"/><path d="M245.55,252.14a1.67,1.67,0,0,1-.35,1.08,1.39,1.39,0,0,1-1.64,0,1.66,1.66,0,0,1-.35-1.08h-.38a2,2,0,0,0,.45,1.35,1.31,1.31,0,0,0,1,.39h.2a1.31,1.31,0,0,0,1-.39,2,2,0,0,0,.45-1.35Z" transform="translate(-4.72 -62.97)" style="fill:#fff"/><circle cx="255.96" cy="172.37" r="0.44" style="fill:#fff"/><circle cx="257.69" cy="172.37" r="0.44" style="fill:#fff"/><circle cx="259.43" cy="172.37" r="0.44" style="fill:#fff"/><circle cx="224.76" cy="200.65" r="0.44" style="fill:#fff"/><circle cx="226.49" cy="200.65" r="0.44" style="fill:#fff"/><circle cx="228.22" cy="200.65" r="0.44" style="fill:#fff"/><polygon points="264.28 220.34 263.73 218.77 239.19 218.77 239.72 220.34 264.28 220.34" style="fill:#fff"/><polygon points="267.2 228.7 266.64 227.12 241.97 227.12 242.5 228.7 267.2 228.7" style="fill:#fff"/><polygon points="270.14 237.16 269.58 235.55 244.78 235.55 245.32 237.16 270.14 237.16" style="fill:#fff"/><polygon points="273.12 245.7 272.56 244.08 247.62 244.08 248.16 245.7 273.12 245.7" style="fill:#fff"/><polygon points="276.14 254.33 275.56 252.69 250.5 252.69 251.04 254.33 276.14 254.33" style="fill:#fff"/><path d="M281.62,319.18l-16.76-48a1.13,1.13,0,0,0-1.08-.74H262.2l16.95,48.74Z" transform="translate(-4.72 -62.97)" style="fill:#fff"/><path d="M254.47,319.18h2.48l-16-48a1.13,1.13,0,0,0-1.08-.76h0a1.09,1.09,0,0,0-1.08,1.41Z" transform="translate(-4.72 -62.97)" style="fill:#fff"/><path d="M304.88,269.63a6.73,6.73,0,0,0-.16,2.58c.31.59,6.32.76,6.69.36s-.24-1.09-.56-1.25-4.44-1.69-4.44-1.69Z" transform="translate(-4.72 -62.97)" style="fill:#110239"/><path d="M297,269.09h1.64a15.12,15.12,0,0,1,0,2.64c-.14.41-2,2.53-3.11,2.53-.58,0-1.29,0-1.4-.51a3.22,3.22,0,0,1,.68-1.81C295.66,270.87,297,269.09,297,269.09Z" transform="translate(-4.72 -62.97)" style="fill:#110239"/><path d="M305.2,244.83s-3.74,1.07-6.06-.06a5.52,5.52,0,0,0-1.63,3.6c-.07.74-1.57,21.71-1.57,21.71h3.18s1.07-10.89,1.31-12.27,1.72-7.84,1.72-7.84,1.29,5.75,1.64,7.84c.05.32.71,12.15.71,12.15h3.08s-.42-12.89-.42-12.2C307.16,258,306.81,248.7,305.2,244.83Z" transform="translate(-4.72 -62.97)" style="fill:#fd425f"/><path d="M312,229.08l2.23,4.95s-.65.73-.87.57-3.56-4.18-3.89-4.38S312,229.08,312,229.08Z" transform="translate(-4.72 -62.97)" style="fill:#0400a3"/><path d="M310.19,230.86a11.46,11.46,0,0,1,1.65-.55l.61-.24-.44-1s-2.85.92-2.53,1.13a6.89,6.89,0,0,1,.66.69Z" transform="translate(-4.72 -62.97)" style="fill:#04006c"/><path d="M306.48,229.7s0,1.42.88,1.75c0,0,4.46-1.85,5.35-2s4.16-.2,4.16-.2l-3.29-5.87s-1.58,3.15-3,4.19A27.56,27.56,0,0,1,306.48,229.7Z" transform="translate(-4.72 -62.97)" style="fill:#fff"/><path d="M309.37,230.63l1.08-.42a4.54,4.54,0,0,1-.94-2c-.34.19-.69.38-1,.55A4.09,4.09,0,0,0,309.37,230.63Z" transform="translate(-4.72 -62.97)" style="fill:#110239"/><ellipse cx="315.67" cy="225.86" rx="2.61" ry="4.39" transform="translate(-67.15 75.15) rotate(-22.52)" style="fill:#fee08d"/><ellipse cx="315.85" cy="225.78" rx="2.22" ry="3.73" transform="translate(-67.1 75.21) rotate(-22.52)" style="fill:#110239"/><path d="M311.71,232.64c-.11-.06-.08-.46-.05-.57s.15-.37,0-.53-.48.46-.51.57a.77.77,0,0,0-.05.49,1.94,1.94,0,0,0,.43.64l-.07.23a4.88,4.88,0,0,1,.54.27c.22.12.2.28.41.42l.2-.46A9.48,9.48,0,0,0,311.71,232.64Z" transform="translate(-4.72 -62.97)" style="fill:#f88667"/><path d="M313.14,231c-.19-.21-.49-.13-.73,0s-.66.52-.53.81.74-.29.74-.29c-.23.2-.67.36-.56.56s.67-.09.79-.18c-.12,0-.74.41-.49.6s.62-.15.76-.24c-.18.06-.43.22-.38.47s.35,0,.51,0,.45-.13.47-.42a1.29,1.29,0,0,0,0-.16,1.57,1.57,0,0,0-.2-.62A2.72,2.72,0,0,0,313.14,231Z" transform="translate(-4.72 -62.97)" style="fill:#f88667"/><path d="M299.26,229.85s1.07,4.15.46,4.48c0,0,2.18,4.51,3.14,4.3s.46-4.06.46-4.06a1.68,1.68,0,0,1-.74-.43,21.72,21.72,0,0,1-.87-2.73Z" transform="translate(-4.72 -62.97)" style="fill:#f88667"/><path d="M301.08,236.73a2.52,2.52,0,0,1-.54-1.7c.11-.87,1-1.28,1.74-1.59a14.76,14.76,0,0,0-.59-2l-2.44-1.56s1.07,4.15.46,4.48c0,0,2.18,4.51,3.14,4.3.25-.05.4-.36.49-.77A2.38,2.38,0,0,1,301.08,236.73Z" transform="translate(-4.72 -62.97)" style="fill:#e45940"/><path d="M289.68,232.66a2.53,2.53,0,0,1-.26-.55c-.06-.16-.1-.33-.15-.5a1.29,1.29,0,0,1-.11-.49,1.43,1.43,0,0,1,.06-.3c0-.13.08-.25.11-.38s0-.22,0-.34a2,2,0,0,1,.2-.62,2.31,2.31,0,0,1,.29-.39,1.47,1.47,0,0,1,.17-.18.45.45,0,0,0,.16-.19.18.18,0,0,0-.13-.25.68.68,0,0,0-.63.21c-.17.23-.25.51-.43.74-.57.68-1.11-.12-1.78-.41a4,4,0,0,1-.64-.42c-.12-.09-.63-.58-.87-.45s.17.5.34.6.64.5.71.53a3.63,3.63,0,0,1-1-.59c-.25-.2-.5-.39-.64-.28-.42.35,1.24,1.14,1.37,1.22-.14,0-1.44-.91-1.57-.57-.07.19.2.37.42.49s.74.26.85.34c-.2.07-1.06-.52-1.06-.16s.54.41.74.47.82.48,1,.57c.64.31.91.27,1.16.66s.45,1.55.68,2Z" transform="translate(-4.72 -62.97)" style="fill:#f88667"/><path d="M311.35,233.31c-.57,1.67-1.8,4.63-2.21,4.42-.76-.39-2.4-1.73-3.62-2.55a8.58,8.58,0,0,0-1.42-.82l.85,4s4,3.07,4.88,2.6c.67-.37,2.3-5,2.88-7Z" transform="translate(-4.72 -62.97)" style="fill:#110239"/><path d="M307.35,239.07a27.38,27.38,0,0,0-2.66-2.65l.14,1.92s4.07,3.06,5,2.68A10.53,10.53,0,0,1,307.35,239.07Z" transform="translate(-4.72 -62.97)" style="fill:#330045;opacity:0.32;mix-blend-mode:multiply"/><path d="M304.1,234.36l-1.53-.23a1.49,1.49,0,0,1-1,.51,4.69,4.69,0,0,1-1.64-.73,19.21,19.21,0,0,0-2.29,1.14,15,15,0,0,1,.13,3l-.5,9.28a41.71,41.71,0,0,0,5.24.31,15.21,15.21,0,0,0,3.66-.44s-.32-7.72-1-10.07C304.81,236.25,304.1,234.36,304.1,234.36Z" transform="translate(-4.72 -62.97)" style="fill:#110239"/><path d="M298.27,234.87s-6,1.72-6.53,1.57-2.34-5.26-2.34-5.26l-1.5.61s1.61,7.38,2.64,7.73,7.2-1.44,7.2-1.44A3.77,3.77,0,0,0,298.27,234.87Z" transform="translate(-4.72 -62.97)" style="fill:#110239"/><path d="M315.55,226.29a1.26,1.26,0,0,0-1.53-.91,1.06,1.06,0,0,0-.51.37,6.15,6.15,0,0,0,.29.87,5.93,5.93,0,0,0,.77,1.34,1,1,0,0,0,.28,0A1.26,1.26,0,0,0,315.55,226.29Z" transform="translate(-4.72 -62.97)" style="fill:#6cd3fe"/><path d="M299.18,227.81A2.56,2.56,0,0,1,301,227c1.08,0,1.71.19,2,1s.92,3,.92,3-.06,2-1.84,1.44-3.71-1.67-3.47-2.47S299.18,227.81,299.18,227.81Z" transform="translate(-4.72 -62.97)" style="fill:#f88667"/><path d="M299.44,227.46s1,.29.95.73a4.63,4.63,0,0,0,.15,2.18s-.26.22-.46,0-.09-1-.62-.86-.4,1.07.18,1.15a1.55,1.55,0,0,0,1.08.55c.58,0,1.31-.69,1.6-.75a4.27,4.27,0,0,1,1.48,0s.81,2.25-.12,2.67-3.2-.22-4.41-1.47c0,0-1.33,0-1.2-1.78.1-1.38-.79-1.69-.06-2.67C298.54,226.56,299.44,227.46,299.44,227.46Z" transform="translate(-4.72 -62.97)" style="fill:#110239"/><path d="M298.38,227.09s.23-1,1.78-1.25,1.71.66,2.3.7.7-.29.48-.42c0,0,.37-.38,1,.45s-.22,2.13-1.43,2.29A4.09,4.09,0,0,1,298.38,227.09Z" transform="translate(-4.72 -62.97)" style="fill:#110239"/><path d="M303.3,231.33a2.32,2.32,0,0,1-1.15.19s.12.31.76.26C303.28,231.75,303.3,231.33,303.3,231.33Z" transform="translate(-4.72 -62.97)" style="fill:#fff"/><path d="M163.08,147.16s1.31,4.74,2,5.51a13.43,13.43,0,0,0,2.76,1.92l-.56,1s-3.84-2-4.5-3.55a12.09,12.09,0,0,1-.78-2.45,7.38,7.38,0,0,1-.32-2.63A.83.83,0,0,1,163.08,147.16Z" transform="translate(-4.72 -62.97)" style="fill:#01d9cf"/><path d="M163.08,147.16s1.31,4.74,2,5.51a13.43,13.43,0,0,0,2.76,1.92l-.56,1s-3.84-2-4.5-3.55a12.09,12.09,0,0,1-.78-2.45,7.38,7.38,0,0,1-.32-2.63A.83.83,0,0,1,163.08,147.16Z" transform="translate(-4.72 -62.97)" style="fill:#00a1cc;opacity:0.65;mix-blend-mode:multiply"/><path d="M176.24,169.77l1-.9s3.87-.28,4.1.06-3.67,2.18-4.17,2.14S176.31,170.15,176.24,169.77Z" transform="translate(-4.72 -62.97)" style="fill:#110239"/><path d="M169.15,156.68s3.66-.93,4-.33,4.1,12.52,4.1,12.52l-1,.9s-4.08-10.06-5.26-11.11S168.6,157.09,169.15,156.68Z" transform="translate(-4.72 -62.97)" style="fill:#f88667"/><path d="M169.15,156.68s3.66-.93,4-.33,4.1,12.52,4.1,12.52l-1,.9s-4.08-10.06-5.26-11.11S168.6,157.09,169.15,156.68Z" transform="translate(-4.72 -62.97)" style="fill:#e45940"/><path d="M167.26,154.48a3.26,3.26,0,0,0,.76-.31,1,1,0,0,1,.65-.18c.17,0,1.58.61,1.21.87-.12.08-.42-.06-.55-.11s-.35-.15-.51-.22c.15,0,.91.31.83.49s-.91-.1-1.09-.21c.14,0,.61.2.61.37s-.57,0-.69,0a.83.83,0,0,0-.26-.13,1,1,0,0,0-.34.06,2,2,0,0,1-.6,0c-.12,0-.39,0-.45-.09a.43.43,0,0,1,.08-.43A.86.86,0,0,1,167.26,154.48Z" transform="translate(-4.72 -62.97)" style="fill:#f88667"/><path d="M167.26,154.48a3.26,3.26,0,0,0,.76-.31,1,1,0,0,1,.65-.18c.17,0,1.58.61,1.21.87-.12.08-.42-.06-.55-.11s-.35-.15-.51-.22c.15,0,.91.31.83.49s-.91-.1-1.09-.21c.14,0,.61.2.61.37s-.57,0-.69,0a.83.83,0,0,0-.26-.13,1,1,0,0,0-.34.06,2,2,0,0,1-.6,0c-.12,0-.39,0-.45-.09a.43.43,0,0,1,.08-.43A.86.86,0,0,1,167.26,154.48Z" transform="translate(-4.72 -62.97)" style="fill:#e45940"/><polygon points="168.89 85.19 169.75 85.54 166.79 92.68 165.92 92.21 168.89 85.19" style="fill:#110239"/><rect x="160.6" y="92.08" width="5.63" height="0.87" style="fill:#110239"/><path d="M155.36,151c.75-.43.88-.91.46-2.48a3.31,3.31,0,0,1,1.72-3.64c.77-.32,1.45-.46,1.92-1.28s-.42-2.58,1.07-3.88a2.6,2.6,0,0,1,2.64-.19c.33-.18.47,1.76.5,3.23-1.88,2.88-1.35,6.64-.66,9.87a1.49,1.49,0,0,0,.07.22c-.15,2.5-.27,4.56-.27,4.56s-4.52,2.56-7.6.37S153.85,151.85,155.36,151Z" transform="translate(-4.72 -62.97)" style="fill:#110239"/><path d="M168.66,169.18l1.15.66s1.41,3.62,1.15,3.93-3.16-2.87-3.27-3.36S168.32,169.36,168.66,169.18Z" transform="translate(-4.72 -62.97)" style="fill:#110239"/><path d="M167.2,156.46s7.38.52,8.07,1.18-5.58,12.13-5.58,12.13l-1-.59s1.55-5.46,2-6.72,1.18-2.79,1-3-7.58.92-7.52-1.18S167.2,156.46,167.2,156.46Z" transform="translate(-4.72 -62.97)" style="fill:#f88667"/><path d="M163.56,144a7,7,0,0,0-.3,3.68l-2.58-.62a29.21,29.21,0,0,1,1.51-4.13C162.63,142.34,163.56,144,163.56,144Z" transform="translate(-4.72 -62.97)" style="fill:#f88667"/><path d="M162.48,145.91a1.29,1.29,0,0,0-1.33,1.28l-.48-.12a29.21,29.21,0,0,1,1.51-4.13c.45-.6,1.38,1.08,1.38,1.08a8.7,8.7,0,0,0-.43,2A1.36,1.36,0,0,0,162.48,145.91Z" transform="translate(-4.72 -62.97)" style="fill:#e45940"/><path d="M163.82,141.26a3.92,3.92,0,0,1,1.24.88c.24.4,0,1,0,1.33a5.67,5.67,0,0,1,.07,1c-.06.09-.43,0-.49.08s-.54.38-.69.72-.35.37-.7.2a5.66,5.66,0,0,1-1.7-2.77A1.82,1.82,0,0,1,163.82,141.26Z" transform="translate(-4.72 -62.97)" style="fill:#f88667"/><path d="M163,140.14a7,7,0,0,1,.52,1.31,3.09,3.09,0,0,1-.52,1.62c-.21.15,0-1.23-.57-.81s0,1.21,0,1.37a1,1,0,0,1-.82.73c-.55,0-1.45-2.68-.86-3.36A3.09,3.09,0,0,1,163,140.14Z" transform="translate(-4.72 -62.97)" style="fill:#110239"/><path d="M162.88,139.59a1.48,1.48,0,0,1,1.8.08c.92.74.89,1.86,1.65,1.76,0,0-.5,1.29-1.6,1S162.5,140.37,162.88,139.59Z" transform="translate(-4.72 -62.97)" style="fill:#110239"/><path d="M159.87,154.19l3.42-.26s1.78,2,3.54,2h6a11.48,11.48,0,0,1-1.77,4.73s-5.71.18-8.5,0S157.15,157.31,159.87,154.19Z" transform="translate(-4.72 -62.97)" style="fill:#fd425f"/><path d="M159.55,154.6c.1-.13.2-.27.32-.4l3.42-.26s1.73,1.93,3.47,2C164.67,156.13,160.66,156.6,159.55,154.6Z" transform="translate(-4.72 -62.97)" style="fill:#ca0045;opacity:0.32;mix-blend-mode:multiply"/><path d="M171.26,156.33c-.87-.09-1.72-.29-2.58-.4h3.77C172.09,156.12,171.9,156.39,171.26,156.33Z" transform="translate(-4.72 -62.97)" style="fill:#ca0045;opacity:0.32;mix-blend-mode:multiply"/><path d="M161,145.88a14.59,14.59,0,0,0,2.1.68s1.11,2.44,1.54,3.1-1.09,3.19-1.18,4.28c0,0-.92.87-3.69.34C159.78,154.27,159.05,147.42,161,145.88Z" transform="translate(-4.72 -62.97)" style="fill:#01d9cf"/><path d="M160.58,147.34a1.32,1.32,0,0,1,1.55.49c.29.6,0,1.66,0,2.3a12.53,12.53,0,0,0,.25,2.24,4.67,4.67,0,0,0,.9,1.67c-.36.21-1.39.65-3.54.23a22.52,22.52,0,0,1,.29-6.74C160.27,147.46,160.45,147.4,160.58,147.34Z" transform="translate(-4.72 -62.97)" style="fill:#00a1cc;opacity:0.65;mix-blend-mode:multiply"/><path d="M166.72,154.48a3.26,3.26,0,0,0,.76-.31,1,1,0,0,1,.65-.18c.17,0,1.58.61,1.21.87-.12.08-.42-.06-.55-.11s-.35-.15-.51-.22c.15,0,.91.31.83.49s-.91-.1-1.09-.21c.14,0,.61.2.61.37s-.57,0-.69,0a.83.83,0,0,0-.26-.13,1,1,0,0,0-.34.06,2,2,0,0,1-.6,0c-.12,0-.39,0-.45-.09a.43.43,0,0,1,.08-.43A.86.86,0,0,1,166.72,154.48Z" transform="translate(-4.72 -62.97)" style="fill:#f88667"/><path d="M167,154.45l-.3,1.13s-7.41-.86-7.58-2.18.3-7.43,2.09-6.79,0,5.07.3,5.42A59.21,59.21,0,0,0,167,154.45Z" transform="translate(-4.72 -62.97)" style="fill:#01d9cf"/><circle cx="222.63" cy="27.57" r="12.97" style="fill:#fff"/><path d="M35.18,263.13s-5.59,0-7.55-1.34-2.3-6.51.54-8.63,3.44-2.78,3.56-4.18.1-4.58,3.78-4.59,3.31,3,3.58,4.84c.19,1.31,2,3.25,3.58,4.46C44.72,255.24,47,264.44,35.18,263.13Z" transform="translate(-4.72 -62.97)" style="fill:#141c1e"/><path d="M36.83,249.93a3.2,3.2,0,0,1-1,.15,3,3,0,0,1-1.65-.47c-.15,1,.32,2.28-.71,2.57,0,0,.06,4.51,1.88,4.51s2.06-4.54,2.06-4.54S36.59,252,36.83,249.93Z" transform="translate(-4.72 -62.97)" style="fill:#e45940"/><path d="M38,248.8c-.19-.4-.66-.21-.66-.21.09-1.1.09-2.82.09-2.82l-1.9-.2-1.9.2s0,1.72.09,2.82c0,0-.47-.2-.66.21-.32.69.45,1.14.45,1.14s.53,2.31,2,2.45c1.49-.13,2-2.46,2-2.45S38.3,249.49,38,248.8Z" transform="translate(-4.72 -62.97)" style="fill:#f88667"/><path d="M37.68,245.74a3.85,3.85,0,0,1-3.74,2.38,1.7,1.7,0,0,1-.07.86s-.38-1.08-.8-.84a1.45,1.45,0,0,0-.59.65s-.4-3,1.58-3.72A4.06,4.06,0,0,1,37.68,245.74Z" transform="translate(-4.72 -62.97)" style="fill:#141c1e"/><path d="M36.81,245.51a2.37,2.37,0,0,0,0,.43c0,.3,0,.61,0,.91a2.22,2.22,0,0,1,.49,1.39,1.65,1.65,0,0,0,.09.74s.38-1.08.8-.84a1.45,1.45,0,0,1,.59.65S38.6,245.45,36.81,245.51Z" transform="translate(-4.72 -62.97)" style="fill:#141c1e"/><path d="M40.82,259.37c-.55-1.59-.26-5.88-.26-5.88-.68-.21-3.33-1.45-3.33-1.45l-1.72,4.16-1.81-4.13s-2.14,1-2.82,1.24a32.51,32.51,0,0,1-.68,6.06s1.68,2.74,0,8.89H40.82C39.14,262.11,40.82,259.37,40.82,259.37Z" transform="translate(-4.72 -62.97)" style="fill:#01d9cf"/><path d="M40.82,259.37a18.5,18.5,0,0,1-.23-2.47c-.25.68-.55,2.16-.81,2.83-.87,2.26-1.81,3.2-4.35,3.24-2,0-3.92-3.24-4.13-3.85s-.55-1.37-.8-2a9.36,9.36,0,0,1-.31,2.3s1.68,2.74,0,8.89H40.82C39.14,262.11,40.82,259.37,40.82,259.37Z" transform="translate(-4.72 -62.97)" style="fill:#00a1cc;opacity:0.65;mix-blend-mode:multiply"/><path d="M38.49,266.38c-6.78-1-14.58-2.15-14.51.46s3.07,4.29,5.66,5.43a21.57,21.57,0,0,1,4.42-1c2.63-.51,5.25-.17,7.93-.27a10.68,10.68,0,0,0,4.15-3.35S43.77,267.16,38.49,266.38Z" transform="translate(-4.72 -62.97)" style="fill:#616161"/><path d="M32,270.85c3.47-.3,7-.15,10.5-.28-.52-.43-.8-.79-.17-1,2.78-2.15,4.79-4,3.22-4.22a26.88,26.88,0,0,0-6.71.07,6.55,6.55,0,0,1-3.37-.08l-4.24-.3c-4.26,1-5.09,2.65-5.14,2.63C26.09,268.34,29.14,269.47,32,270.85Z" transform="translate(-4.72 -62.97)" style="fill:#fff"/><path d="M32,270.85c3.47-.3,7-.15,10.5-.28-.52-.43-.8-.79-.17-1,2.78-2.15,4.79-4,3.22-4.22a26.88,26.88,0,0,0-6.71.07,6.55,6.55,0,0,1-3.37-.08l-4.24-.3c-4.26,1-5.09,2.65-5.14,2.63C26.09,268.34,29.14,269.47,32,270.85Z" transform="translate(-4.72 -62.97)" style="fill:#e7e7e7"/><path d="M31,269.66l1.38,1.89s-1.49,1.06-1.9,1.25-3.77.33-4.64-.36-1.05-1.42-.65-1.8a5,5,0,0,1,2.36-.73C28.94,269.73,31,269.66,31,269.66Z" transform="translate(-4.72 -62.97)"/><path d="M30.48,269.81l.89,2.82s13.23-.83,14.56-3,1.22-6.18-3.66-4.56S30.48,269.81,30.48,269.81Z" transform="translate(-4.72 -62.97)" style="fill:#fff"/><path d="M45.31,269.07A4.4,4.4,0,0,1,43,268.3a9.51,9.51,0,0,0-2.84-1c-.86-.17-1.62-.17-2.31-.37-3.84,1.43-7.39,2.88-7.39,2.88l.7,2.21,1,.23a7.05,7.05,0,0,1,1.22.15l.26,0c3.84-.35,11.27-1.22,12.25-2.8a5,5,0,0,0,.4-.81A2.91,2.91,0,0,1,45.31,269.07Z" transform="translate(-4.72 -62.97)" style="fill:#e7e7e7"/><path d="M41.74,269.81l-1.16,1.5s1.93,1.17,2.33,1.37,3.19.33,4.07-.31,1.07-1.35.68-1.73a5,5,0,0,0-2.32-.77A20.26,20.26,0,0,0,41.74,269.81Z" transform="translate(-4.72 -62.97)"/><path d="M43.36,269.07l-1.06,3.41s-17-1.09-18.37-3.34.53-5.73,5.79-4.12S43.36,269.07,43.36,269.07Z" transform="translate(-4.72 -62.97)" style="fill:#fff"/><rect x="29.39" y="198.2" width="2.85" height="4.74" rx="0.12" ry="0.12" style="fill:#272c66"/><path d="M40.17,263.5l-2.16.33-.21,1.3a22.34,22.34,0,0,1,2.84,0C40.83,265.25,40.33,263.58,40.17,263.5Z" transform="translate(-4.72 -62.97)" style="fill:#f88667"/><path d="M37.89,265.3a1.46,1.46,0,0,0,.55-1.58c-.09-.42-.51-.51-1.12-.68a1.76,1.76,0,0,0-.95-.11c-.45.43.94.69,1.27.84,0,0-1.44-.45-1.61-.22-.31.45,1.05.67,1.38.79a2.29,2.29,0,0,0-1-.22c-.26,0-.25.17-.23.22.11.27,1.22.47,1.22.47-.2,0-.9-.32-.81,0s.37.29.53.36A1.1,1.1,0,0,0,37.89,265.3Z" transform="translate(-4.72 -62.97)" style="fill:#f88667"/><path d="M31.17,263.5l2.16.33.21,1.3a22.35,22.35,0,0,0-2.84,0C30.51,265.25,31,263.58,31.17,263.5Z" transform="translate(-4.72 -62.97)" style="fill:#f88667"/><path d="M33.45,265.3a1.46,1.46,0,0,1-.55-1.58c.09-.42.51-.51,1.12-.68a1.76,1.76,0,0,1,.95-.11c.45.43-.94.69-1.27.84,0,0,1.44-.45,1.61-.22.31.45-1.05.67-1.38.79a2.29,2.29,0,0,1,1-.22c.26,0,.25.17.23.22-.11.27-1.22.47-1.22.47.2,0,.9-.32.81,0s-.37.29-.53.36A1.1,1.1,0,0,1,33.45,265.3Z" transform="translate(-4.72 -62.97)" style="fill:#f88667"/><path d="M31.22,253.15c-.56.16-1.94.68-3.22,4.23A20.29,20.29,0,0,0,26.48,264c.18,1.34,5.89,1.3,5.89,1.3l.34-2.07s-2.9-.76-2.84-1,.72-1.81,1-2.68C30.91,259.38,31.62,253,31.22,253.15Z" transform="translate(-4.72 -62.97)" style="fill:#01d9cf"/><path d="M40.08,253.31c.41.07,1.9.76,3.22,4.07A17.56,17.56,0,0,1,44.83,264c-.18,1.34-5.89,1.3-5.89,1.3l-.34-2.07s2.9-.76,2.84-1-.72-1.81-1-2.68C40.4,259.38,39.68,253.24,40.08,253.31Z" transform="translate(-4.72 -62.97)" style="fill:#01d9cf"/><path d="M172.68,114.26c-4.08,0-8.12-.1-12.17.11a49.43,49.43,0,0,1-8.29-.32,8.42,8.42,0,0,1-2.76-.74c-.82-.38-1.89-.82-.65-1.34,2.73-1.14,5.95,1.17,8.56-.24-.28-.55-1.25-1.38-.8-2.14.29-.5,1.91-.73,2.4-.79a11.26,11.26,0,0,1,5.79.63c2,1,4,.79,6.26.79,1,0,5.14-.53,5.61,1,.27.87-.79.49.13,1.29.66.57,1.86.47,2.63.46.5,0,1.88-.13,2.24.4.52.76-.27,1.2-.83,1.35C179.39,115.07,173.89,114.26,172.68,114.26Z" transform="translate(-4.72 -62.97)" style="fill:#fff"/><path d="M174.79,126.14a38.16,38.16,0,0,0,6.09.14,9,9,0,0,1,2.6.12,19,19,0,0,0,5.47-.19c1.11-.12,2.46.06,3.5-.56,2.06-1.23-.86-1.8-1.78-1.69a6.53,6.53,0,0,1-4.43-.78,5.09,5.09,0,0,0-2.28-.54c-.66-.07-1.75-.45-2.37-.09-.27.16-.39.52-.74.69a4.47,4.47,0,0,1-1.63.25,15.87,15.87,0,0,1-2.77-.41c-.64-.07-5.38-.91-5.63,0-.18.66,1.71.6,1.56,1.25-.1.45-2.13.42-2.49.48-.54.09-2.6,0-2.62.9a12.35,12.35,0,0,0,4.48.64l.22,0h0A12.47,12.47,0,0,1,174.79,126.14Z" transform="translate(-4.72 -62.97)" style="fill:#fff"/><path d="M251.54,67.79a36.87,36.87,0,0,0,6,.14,8.68,8.68,0,0,1,2.55.12,18.35,18.35,0,0,0,5.38-.19c1.09-.12,2.42.06,3.44-.56,2-1.23-.84-1.8-1.74-1.69a6.32,6.32,0,0,1-4.36-.78,4.93,4.93,0,0,0-2.24-.54c-.65-.07-1.72-.45-2.33-.09-.27.16-.38.52-.72.69a4.32,4.32,0,0,1-1.6.25,15.35,15.35,0,0,1-2.73-.41c-.63-.07-5.28-.91-5.53,0-.18.66,1.68.6,1.53,1.25-.1.45-2.1.42-2.44.48-.53.09-2.56,0-2.58.9a12,12,0,0,0,4.4.64l.22,0h0A12.05,12.05,0,0,1,251.54,67.79Z" transform="translate(-4.72 -62.97)" style="fill:#fff"/><polygon points="259.01 48.08 256.56 48.08 256.56 45.63 255.17 45.63 255.17 48.08 252.71 48.08 252.71 49.47 255.17 49.47 255.17 51.93 256.56 51.93 256.56 49.47 259.01 49.47 259.01 48.08" style="fill:#fff9fd"/><polygon points="191.6 79.73 189.15 79.73 189.15 77.28 187.76 77.28 187.76 79.73 185.3 79.73 185.3 81.12 187.76 81.12 187.76 83.58 189.15 83.58 189.15 81.12 191.6 81.12 191.6 79.73" style="fill:#fff9fd"/><polygon points="314.29 95.54 311.82 95.54 311.82 93.08 310.44 93.08 310.44 95.54 307.98 95.54 307.98 96.93 310.44 96.93 310.44 99.39 311.82 99.39 311.82 96.93 314.29 96.93 314.29 95.54" style="fill:#fff9fd"/><polygon points="308.89 2.46 306.43 2.46 306.43 0 305.04 0 305.04 2.46 302.58 2.46 302.58 3.84 305.04 3.84 305.04 6.3 306.43 6.3 306.43 3.84 308.89 3.84 308.89 2.46" style="fill:#fff9fd"/><polygon points="6.3 196.49 3.84 196.49 3.84 194.03 2.46 194.03 2.46 196.49 0 196.49 0 197.87 2.46 197.87 2.46 200.33 3.84 200.33 3.84 197.87 6.3 197.87 6.3 196.49" style="fill:#fff9fd"/></g></g></svg>