<svg xmlns="http://www.w3.org/2000/svg" xmlns:xlink="http://www.w3.org/1999/xlink" viewBox="0 0 280.37 272.98"><defs><linearGradient id="linear-gradient" x1="115.04" y1="151" x2="163.36" y2="218.66" gradientUnits="userSpaceOnUse"><stop offset="0" stop-color="#668fc0"/><stop offset="0.01" stop-color="#6890c1" stop-opacity="0.98"/><stop offset="0.15" stop-color="#7b9bc7" stop-opacity="0.72"/><stop offset="0.28" stop-color="#8ca5cd" stop-opacity="0.5"/><stop offset="0.42" stop-color="#99add2" stop-opacity="0.32"/><stop offset="0.56" stop-color="#a4b3d5" stop-opacity="0.18"/><stop offset="0.7" stop-color="#abb8d8" stop-opacity="0.08"/><stop offset="0.84" stop-color="#b0bad9" stop-opacity="0.02"/><stop offset="0.99" stop-color="#b1bbda" stop-opacity="0"/></linearGradient><linearGradient id="linear-gradient-2" x1="47.75" y1="219.03" x2="79.82" y2="239.61" gradientUnits="userSpaceOnUse"><stop offset="0" stop-color="#668fc0"/><stop offset="0.99" stop-color="#b1bbda" stop-opacity="0"/></linearGradient><linearGradient id="linear-gradient-3" x1="6.71" y1="206.65" x2="65.55" y2="244.41" xlink:href="#linear-gradient-2"/><linearGradient id="linear-gradient-4" x1="197.67" y1="153.94" x2="228.32" y2="173.61" xlink:href="#linear-gradient-2"/><linearGradient id="linear-gradient-5" x1="84.33" y1="247.54" x2="116.41" y2="268.13" xlink:href="#linear-gradient-2"/><linearGradient id="linear-gradient-6" x1="233.16" y1="187.67" x2="265.14" y2="187.67" gradientUnits="userSpaceOnUse"><stop offset="0" stop-color="#668fc0"/><stop offset="0.99" stop-color="#b1bbda"/></linearGradient><linearGradient id="linear-gradient-7" x1="261" y1="177.2" x2="277.37" y2="177.2" xlink:href="#linear-gradient-6"/><clipPath id="clip-path" transform="translate(-27.59 -16.05)"><polygon id="SVGID" points="179.19 167.77 185.54 164.06 192.64 168.18 186.29 171.88 179.19 167.77" style="fill:none"/></clipPath><linearGradient id="linear-gradient-8" x1="37.62" y1="115" x2="189.01" y2="115" xlink:href="#linear-gradient-6"/><linearGradient id="linear-gradient-9" x1="-924.85" y1="146.37" x2="-924.26" y2="173.85" gradientTransform="matrix(-1, 0, 0, 1, -719.5, -16.05)" gradientUnits="userSpaceOnUse"><stop offset="0" stop-color="#e8b3b6"/><stop offset="0.11" stop-color="#ebbdc0"/><stop offset="0.35" stop-color="#efcdcf"/><stop offset="0.62" stop-color="#f2d6d7"/><stop offset="1" stop-color="#f3d9da"/></linearGradient><linearGradient id="linear-gradient-10" x1="-919.41" y1="143.81" x2="-918.82" y2="171.29" xlink:href="#linear-gradient-9"/><linearGradient id="Degradado_sin_nombre_20" x1="214.69" y1="140.85" x2="197.92" y2="130.72" gradientUnits="userSpaceOnUse"><stop offset="0.01" stop-color="#ce9f8d"/><stop offset="1" stop-color="#d16a8d"/></linearGradient><linearGradient id="Degradado_sin_nombre_20-2" x1="220.35" y1="158.63" x2="235.68" y2="145.44" xlink:href="#Degradado_sin_nombre_20"/><linearGradient id="linear-gradient-11" x1="211.8" y1="98.55" x2="223.02" y2="123.5" gradientTransform="matrix(1, 0, 0, 1, 0, 0)" xlink:href="#linear-gradient-9"/><linearGradient id="Degradado_sin_nombre_173" x1="238.86" y1="122.52" x2="226.3" y2="104.17" gradientUnits="userSpaceOnUse"><stop offset="0" stop-color="#3d365f"/><stop offset="1" stop-color="#58467e"/></linearGradient><linearGradient id="Degradado_sin_nombre_151" x1="233.87" y1="113.95" x2="227.68" y2="105.24" gradientUnits="userSpaceOnUse"><stop offset="0" stop-color="#9a4a7a"/><stop offset="1" stop-color="#bc677d"/></linearGradient><linearGradient id="Degradado_sin_nombre_159" x1="221.76" y1="118.79" x2="233.07" y2="135" gradientUnits="userSpaceOnUse"><stop offset="0.01" stop-color="#66a1c1"/><stop offset="1" stop-color="#3e5b96"/></linearGradient><linearGradient id="linear-gradient-12" x1="195.31" y1="12.7" x2="204.6" y2="-7.52" gradientTransform="matrix(0.97, 0.22, -0.22, 0.97, 27.29, 83.61)" xlink:href="#linear-gradient-9"/><linearGradient id="Degradado_sin_nombre_173-2" x1="237.09" y1="123.75" x2="224.52" y2="105.39" xlink:href="#Degradado_sin_nombre_173"/><linearGradient id="linear-gradient-13" x1="197.76" y1="108.97" x2="197.59" y2="91.51" gradientTransform="matrix(1, 0, 0, 1, 0, 0)" xlink:href="#linear-gradient-9"/><linearGradient id="linear-gradient-14" x1="226.64" y1="125.01" x2="226.47" y2="107.55" gradientTransform="matrix(1, 0, 0, 1, 0, 0)" xlink:href="#linear-gradient-9"/><linearGradient id="linear-gradient-15" x1="223.94" y1="125.04" x2="223.77" y2="107.58" gradientTransform="matrix(1, 0, 0, 1, 0, 0)" xlink:href="#linear-gradient-9"/><linearGradient id="Degradado_sin_nombre_173-3" x1="236.26" y1="124.3" x2="223.7" y2="105.96" xlink:href="#Degradado_sin_nombre_173"/><linearGradient id="linear-gradient-16" x1="227.11" y1="125" x2="226.94" y2="107.55" gradientTransform="translate(284.48 -134.85) rotate(77.02)" xlink:href="#linear-gradient-9"/><linearGradient id="linear-gradient-17" x1="141.06" y1="110.66" x2="184.36" y2="110.66" xlink:href="#linear-gradient-6"/><linearGradient id="Degradado_sin_nombre_151-2" x1="141.06" y1="93.74" x2="184.36" y2="93.74" xlink:href="#Degradado_sin_nombre_151"/><clipPath id="clip-path-2" transform="translate(-27.59 -16.05)"><polygon points="172.85 121.08 172.85 118.73 174.89 117.55 174.9 119.91 172.85 121.08" style="fill:none"/></clipPath><clipPath id="clip-path-3" transform="translate(-27.59 -16.05)"><polygon points="176.23 119.05 176.22 116.7 178.26 115.52 178.27 117.87 176.23 119.05" style="fill:none"/></clipPath><clipPath id="clip-path-4" transform="translate(-27.59 -16.05)"><polygon points="179.6 117.03 179.6 114.67 181.64 113.49 181.65 115.85 179.6 117.03" style="fill:none"/></clipPath><linearGradient id="linear-gradient-18" x1="164.7" y1="145.73" x2="173.56" y2="158.13" gradientUnits="userSpaceOnUse"><stop offset="0" stop-color="#668fc0"/><stop offset="0.18" stop-color="#7296c4" stop-opacity="0.85"/><stop offset="0.57" stop-color="#8fa7ce" stop-opacity="0.45"/><stop offset="0.99" stop-color="#b1bbda" stop-opacity="0"/></linearGradient><linearGradient id="linear-gradient-19" x1="87.99" y1="169.47" x2="96.85" y2="181.87" xlink:href="#linear-gradient-18"/><linearGradient id="linear-gradient-20" x1="151.19" y1="215.64" x2="227.34" y2="258.7" xlink:href="#linear-gradient-2"/><linearGradient id="linear-gradient-21" x1="-811.75" y1="195.98" x2="-724.68" y2="245.17" gradientTransform="matrix(-1, 0, 0, 1, -636.81, 0)" gradientUnits="userSpaceOnUse"><stop offset="0" stop-color="#d16a8d"/><stop offset="0.99" stop-color="#ce9f8d"/></linearGradient><linearGradient id="linear-gradient-22" x1="-768.46" y1="253.46" x2="-825.83" y2="173.32" xlink:href="#linear-gradient-21"/><clipPath id="clip-path-5" transform="translate(-27.59 -16.05)"><path id="SVGID-2" data-name="SVGID" d="M193.08,184.06c-9.25-5.36-24.2-5.36-33.39,0-4,2.32-6.22,5.25-6.77,8.26.55,3,2.82,6,6.82,8.28,9.31,5.39,24.25,5.39,33.5,0,3.94-2.3,6.17-5.21,6.71-8.21C199.4,189.34,197.11,186.39,193.08,184.06Z" style="fill:none"/></clipPath><linearGradient id="linear-gradient-23" x1="-822.5" y1="196.05" x2="-799.2" y2="196.05" gradientTransform="matrix(-1, 0, 0, 1, -664.4, -16.05)" xlink:href="#linear-gradient-6"/><linearGradient id="linear-gradient-24" x1="-828.51" y1="188.25" x2="-809.13" y2="188.25" gradientTransform="matrix(-1, 0, 0, 1, -664.4, -16.05)" xlink:href="#linear-gradient-6"/><linearGradient id="Degradado_sin_nombre_173-4" x1="-853.56" y1="208.72" x2="-836.76" y2="208.72" gradientTransform="matrix(-1, 0, 0, 1, -636.81, 0)" xlink:href="#Degradado_sin_nombre_173"/><linearGradient id="linear-gradient-25" x1="-880.94" y1="219.06" x2="-843.41" y2="219.06" gradientTransform="matrix(-1, 0, 0, 1, -636.81, 0)" gradientUnits="userSpaceOnUse"><stop offset="0" stop-color="#3e5b96"/><stop offset="0.99" stop-color="#66a1c1"/></linearGradient><linearGradient id="linear-gradient-26" x1="-867.93" y1="215.86" x2="-889.74" y2="242.21" xlink:href="#linear-gradient-25"/><linearGradient id="Degradado_sin_nombre_173-5" x1="62.55" y1="197.78" x2="86.43" y2="169.76" xlink:href="#Degradado_sin_nombre_173"/><linearGradient id="linear-gradient-27" x1="42.72" y1="194.49" x2="43.3" y2="221.97" gradientTransform="matrix(1, 0, 0, 1, 0, 0)" xlink:href="#linear-gradient-9"/><linearGradient id="Degradado_sin_nombre_173-6" x1="42.66" y1="222.13" x2="50.49" y2="222.13" xlink:href="#Degradado_sin_nombre_173"/><linearGradient id="linear-gradient-28" x1="48.16" y1="191.93" x2="48.75" y2="219.42" gradientTransform="matrix(1, 0, 0, 1, 0, 0)" xlink:href="#linear-gradient-9"/><linearGradient id="Degradado_sin_nombre_173-7" x1="48.1" y1="219.57" x2="55.94" y2="219.57" xlink:href="#Degradado_sin_nombre_173"/><linearGradient id="Degradado_sin_nombre_159-2" x1="81.59" y1="200.58" x2="60.94" y2="212.14" xlink:href="#Degradado_sin_nombre_159"/><linearGradient id="Degradado_sin_nombre_146" x1="85.59" y1="178.51" x2="71.34" y2="194.56" gradientUnits="userSpaceOnUse"><stop offset="0.01" stop-color="#c98093"/><stop offset="1" stop-color="#b6496a"/></linearGradient><linearGradient id="linear-gradient-29" x1="81.74" y1="183.33" x2="99.97" y2="195.22" gradientTransform="matrix(1, 0, 0, 1, 0, 0)" xlink:href="#linear-gradient-9"/><linearGradient id="Degradado_sin_nombre_146-2" x1="83.32" y1="176.47" x2="69.05" y2="192.56" xlink:href="#Degradado_sin_nombre_146"/><linearGradient id="Degradado_sin_nombre_173-8" x1="56.26" y1="192.42" x2="80.14" y2="164.4" xlink:href="#Degradado_sin_nombre_173"/><linearGradient id="Degradado_sin_nombre_146-3" x1="82.04" y1="175.33" x2="67.78" y2="191.41" xlink:href="#Degradado_sin_nombre_146"/><linearGradient id="linear-gradient-30" x1="45.69" y1="159.35" x2="50.7" y2="159.35" gradientTransform="matrix(1, 0, 0, 1, 0, 0)" xlink:href="#linear-gradient-9"/><linearGradient id="linear-gradient-31" x1="49.86" y1="160.45" x2="54.18" y2="160.77" gradientTransform="matrix(1, 0, 0, 1, 0, 0)" xlink:href="#linear-gradient-9"/><linearGradient id="linear-gradient-32" x1="43.84" y1="162.06" x2="54.43" y2="151.92" gradientTransform="matrix(1, 0, 0, 1, 0, 0)" xlink:href="#linear-gradient-9"/><linearGradient id="Degradado_sin_nombre_173-9" x1="57.4" y1="193.36" x2="81.27" y2="165.37" xlink:href="#Degradado_sin_nombre_173"/><linearGradient id="linear-gradient-33" x1="42.77" y1="160.68" x2="52.89" y2="150.99" gradientTransform="matrix(1, 0, 0, 1, 0, 0)" xlink:href="#linear-gradient-9"/><linearGradient id="linear-gradient-34" x1="53.53" y1="174.04" x2="77.01" y2="174.04" gradientUnits="userSpaceOnUse"><stop offset="0" stop-color="#678dc3"/><stop offset="1" stop-color="#6facab"/></linearGradient><linearGradient id="linear-gradient-35" x1="53.53" y1="173.27" x2="76.85" y2="173.27" gradientUnits="userSpaceOnUse"><stop offset="0" stop-color="#6facab"/><stop offset="1" stop-color="#678dc3"/></linearGradient><linearGradient id="linear-gradient-36" x1="78.82" y1="207.92" x2="102.67" y2="179.94" gradientUnits="userSpaceOnUse"><stop offset="0" stop-color="#58467e"/><stop offset="1" stop-color="#3d365f"/></linearGradient><linearGradient id="Degradado_sin_nombre_173-10" x1="47.83" y1="189" x2="71.71" y2="160.98" xlink:href="#Degradado_sin_nombre_173"/><linearGradient id="Degradado_sin_nombre_173-11" x1="87.4" y1="193.38" x2="96.73" y2="188.47" xlink:href="#Degradado_sin_nombre_173"/><linearGradient id="linear-gradient-37" x1="64.89" y1="170.01" x2="77.71" y2="170.01" xlink:href="#linear-gradient-35"/><linearGradient id="linear-gradient-38" x1="64.08" y1="169.88" x2="77.71" y2="169.88" xlink:href="#linear-gradient-34"/><linearGradient id="linear-gradient-39" x1="98.73" y1="185.35" x2="100.61" y2="185.35" xlink:href="#linear-gradient-34"/><linearGradient id="linear-gradient-40" x1="63.9" y1="103.1" x2="83.81" y2="105.35" gradientTransform="translate(23.13 71.99) rotate(10.02)" xlink:href="#linear-gradient-9"/><linearGradient id="linear-gradient-41" x1="73.28" y1="178.97" x2="77.16" y2="178.97" gradientTransform="matrix(1, 0, 0, 1, 0, 0)" xlink:href="#linear-gradient-9"/><linearGradient id="Degradado_sin_nombre_146-4" x1="74.39" y1="91.33" x2="60.13" y2="107.4" gradientTransform="translate(23.13 71.99) rotate(10.02)" xlink:href="#Degradado_sin_nombre_146"/><linearGradient id="Degradado_sin_nombre_20-3" x1="172.08" y1="63.73" x2="166.51" y2="77.64" xlink:href="#Degradado_sin_nombre_20"/><linearGradient id="Degradado_sin_nombre_20-4" x1="162.12" y1="85.08" x2="177.63" y2="63.79" xlink:href="#Degradado_sin_nombre_20"/><clipPath id="clip-path-6" transform="translate(-27.59 -16.05)"><polygon points="168.31 78.95 168.29 71.58 174.73 67.86 174.75 75.23 168.31 78.95" style="fill:none"/></clipPath><linearGradient id="Degradado_sin_nombre_20-5" x1="130.03" y1="72.76" x2="133.88" y2="58.51" xlink:href="#Degradado_sin_nombre_20"/><linearGradient id="linear-gradient-42" x1="246.61" y1="154.45" x2="255.47" y2="166.85" xlink:href="#linear-gradient"/><linearGradient id="linear-gradient-43" x1="222.01" y1="109.73" x2="265.32" y2="109.73" xlink:href="#linear-gradient-6"/><linearGradient id="Degradado_sin_nombre_151-3" x1="222.01" y1="92.81" x2="265.32" y2="92.81" xlink:href="#Degradado_sin_nombre_151"/><clipPath id="clip-path-7" transform="translate(-27.59 -16.05)"><polygon id="SVGID-3" data-name="SVGID" points="253.81 120.15 253.8 117.8 255.84 116.62 255.85 118.97 253.81 120.15" style="fill:none"/></clipPath><clipPath id="clip-path-8" transform="translate(-27.59 -16.05)"><polygon id="SVGID-4" data-name="SVGID" points="257.18 118.13 257.18 115.77 259.21 114.59 259.22 116.95 257.18 118.13" style="fill:none"/></clipPath><clipPath id="clip-path-9" transform="translate(-27.59 -16.05)"><polygon id="SVGID-5" data-name="SVGID" points="260.56 116.1 260.55 113.74 262.59 112.56 262.6 114.92 260.56 116.1" style="fill:none"/></clipPath><clipPath id="clip-path-10" transform="translate(-27.59 -16.05)"><polygon id="SVGID-6" data-name="SVGID" points="255.74 150.87 255.7 135.37 289.76 115.64 289.81 131.14 255.74 150.87" style="fill:none"/></clipPath><linearGradient id="linear-gradient-44" x1="62.32" y1="163.7" x2="97.27" y2="115.78" xlink:href="#linear-gradient-6"/><linearGradient id="Degradado_sin_nombre_151-4" x1="61.83" y1="136.85" x2="96.53" y2="106.23" xlink:href="#Degradado_sin_nombre_151"/><clipPath id="clip-path-11" transform="translate(-27.59 -16.05)"><polygon points="95.87 143.11 95.86 140.75 97.9 139.57 97.91 141.93 95.87 143.11" style="fill:none"/></clipPath><clipPath id="clip-path-12" transform="translate(-27.59 -16.05)"><polygon points="99.24 141.07 99.23 138.72 101.28 137.54 101.28 139.89 99.24 141.07" style="fill:none"/></clipPath><clipPath id="clip-path-13" transform="translate(-27.59 -16.05)"><polygon points="102.62 139.05 102.61 136.69 104.65 135.51 104.66 137.87 102.62 139.05" style="fill:none"/></clipPath><linearGradient id="Degradado_sin_nombre_146-5" x1="97.6" y1="212.93" x2="67.26" y2="232" xlink:href="#Degradado_sin_nombre_146"/><linearGradient id="Degradado_sin_nombre_146-6" x1="101.31" y1="218.79" x2="70.91" y2="237.91" xlink:href="#Degradado_sin_nombre_146"/><linearGradient id="Degradado_sin_nombre_146-7" x1="105.73" y1="225.84" x2="75.32" y2="244.96" xlink:href="#Degradado_sin_nombre_146"/><linearGradient id="linear-gradient-45" x1="66.81" y1="457.58" x2="87.17" y2="459.88" gradientTransform="matrix(0.87, -0.49, 0.49, 0.87, -167.45, -153.22)" xlink:href="#linear-gradient-9"/><linearGradient id="linear-gradient-46" x1="112.12" y1="283.65" x2="121.16" y2="273.09" gradientTransform="translate(-66.21 -71.86) rotate(-8.81)" xlink:href="#linear-gradient-9"/><linearGradient id="linear-gradient-47" x1="60.95" y1="282.72" x2="65.67" y2="283.07" gradientTransform="translate(-11.12 -80.4) rotate(-8.81)" xlink:href="#linear-gradient-9"/><linearGradient id="linear-gradient-48" x1="112.13" y1="283.69" x2="121.26" y2="273.01" gradientTransform="matrix(1, 0, 0, 1, 2.63, -77.13)" xlink:href="#linear-gradient-9"/><linearGradient id="linear-gradient-49" x1="117.22" y1="279.4" x2="123.96" y2="279.6" gradientTransform="translate(-66.21 -71.86) rotate(-8.81)" xlink:href="#linear-gradient-9"/><linearGradient id="Degradado_sin_nombre_173-12" x1="123.09" y1="192.26" x2="146.97" y2="164.24" xlink:href="#Degradado_sin_nombre_173"/><linearGradient id="linear-gradient-50" x1="113.35" y1="284.7" x2="122.38" y2="274.14" gradientTransform="translate(-38.62 -55.8) rotate(-8.81)" xlink:href="#linear-gradient-9"/><linearGradient id="Degradado_sin_nombre_173-13" x1="124.32" y1="193.31" x2="148.2" y2="165.3" gradientTransform="translate(31.43 -16.56) rotate(8.84)" xlink:href="#Degradado_sin_nombre_173"/><linearGradient id="Degradado_sin_nombre_173-14" x1="121.48" y1="190.88" x2="145.35" y2="162.87" gradientTransform="translate(31.69 -15.49) rotate(8.84)" xlink:href="#Degradado_sin_nombre_173"/><linearGradient id="Degradado_sin_nombre_173-15" x1="121.86" y1="191.2" x2="145.73" y2="163.19" gradientTransform="translate(31.1 -16.18) rotate(8.84)" xlink:href="#Degradado_sin_nombre_173"/><linearGradient id="Degradado_sin_nombre_173-16" x1="120.71" y1="190.22" x2="144.59" y2="162.21" gradientTransform="translate(31.32 -15.64) rotate(8.84)" xlink:href="#Degradado_sin_nombre_173"/><linearGradient id="Degradado_sin_nombre_159-3" x1="125.85" y1="210.96" x2="109.76" y2="231.85" xlink:href="#Degradado_sin_nombre_159"/><linearGradient id="Degradado_sin_nombre_173-17" x1="136.99" y1="204.14" x2="160.87" y2="176.14" xlink:href="#Degradado_sin_nombre_173"/><linearGradient id="linear-gradient-51" x1="120.76" y1="292.13" x2="135.06" y2="292.13" gradientTransform="translate(-38.62 -55.8) rotate(-8.81)" xlink:href="#linear-gradient-9"/><linearGradient id="Degradado_sin_nombre_159-4" x1="129.34" y1="213.66" x2="113.23" y2="234.58" xlink:href="#Degradado_sin_nombre_159"/><linearGradient id="Degradado_sin_nombre_173-18" x1="133.43" y1="208.72" x2="157.28" y2="180.74" xlink:href="#Degradado_sin_nombre_173"/><linearGradient id="Degradado_sin_nombre_173-19" x1="124.59" y1="201.17" x2="148.44" y2="173.19" xlink:href="#Degradado_sin_nombre_173"/></defs><title>5</title><g style="isolation:isolate"><g id="Слой_1" data-name="Слой 1"><polygon points="109 257.51 22.25 203.9 171.32 117.82 260.33 171.63 109 257.51" style="opacity:0.48;mix-blend-mode:multiply;fill:url(#linear-gradient)"/><polygon points="80.13 244.47 41.88 222.16 51.72 216.93 89.98 239.23 80.13 244.47" style="opacity:0.48;mix-blend-mode:multiply;fill:url(#linear-gradient-2)"/><polygon points="61.1 242.94 0 208.17 6.31 205 67.41 239.78 61.1 242.94" style="opacity:0.48;mix-blend-mode:multiply;fill:url(#linear-gradient-3)"/><polygon points="230.19 179.41 191.94 157.11 199.89 150.77 238.14 173.07 230.19 179.41" style="opacity:0.48;mix-blend-mode:multiply;fill:url(#linear-gradient-4)"/><polygon points="116.72 272.98 78.46 250.68 84.85 243.43 126.56 267.74 116.72 272.98" style="opacity:0.48;mix-blend-mode:multiply;fill:url(#linear-gradient-5)"/><path d="M255.89,191.59c3.73-2.16,3.75-5.67,0-7.84a14.8,14.8,0,0,0-13.47,0c-2.2,1.27-3.11,3-2.74,4.66l-6.53-.43c-.12-2.48,1.45-5,4.73-6.88,6.25-3.62,16.36-3.62,22.57,0s6.22,9.51,0,13.14a22.89,22.89,0,0,1-10.9,2.72v-3.75A13.58,13.58,0,0,0,255.89,191.59Z" transform="translate(-27.59 -16.05)" style="opacity:0.51;mix-blend-mode:multiply;fill:url(#linear-gradient-6)"/><path d="M237.86,194.23c-3-1.73-4.51-4-4.62-6.26l6.53.43a5.17,5.17,0,0,0,2.68,3.18,13.87,13.87,0,0,0,7.17,1.62V197A23.12,23.12,0,0,1,237.86,194.23Z" transform="translate(-27.59 -16.05)" style="fill:#fff;opacity:0.4;mix-blend-mode:hard-light"/><path d="M283.65,176.33c3.73-2.16,3.75-5.67,0-7.84a14.8,14.8,0,0,0-13.47,0c-2.2,1.27-3.11,3-2.74,4.66l-6.53-.43c-.12-2.48,1.45-5,4.73-6.88,6.25-3.62,16.36-3.62,22.57,0s6.22,9.51,0,13.14a22.89,22.89,0,0,1-10.9,2.72v-3.75A13.58,13.58,0,0,0,283.65,176.33Z" transform="translate(-27.59 -16.05)" style="fill:#fff;opacity:0.4;mix-blend-mode:hard-light"/><path d="M265.62,179c-3-1.73-4.51-4-4.62-6.26l6.53.43a5.17,5.17,0,0,0,2.68,3.18,13.87,13.87,0,0,0,7.17,1.62v3.75A23.12,23.12,0,0,1,265.62,179Z" transform="translate(-27.59 -16.05)" style="opacity:0.51;mix-blend-mode:multiply;fill:url(#linear-gradient-7)"/><g style="isolation:isolate"><g style="clip-path:url(#clip-path)"><polyline points="157.95 148.01 155.03 153.7 163.38 153.1 157.95 148.01" style="fill:#fff"/></g></g><path d="M154.89,222.4a3.55,3.55,0,0,1,3.23,0,1,1,0,0,1,0,1.88,3.56,3.56,0,0,1-3.24,0,1,1,0,0,1,0-1.88" transform="translate(-27.59 -16.05)" style="fill:#fff"/><path d="M171.23,219.22a3.55,3.55,0,0,1,3.23,0,1,1,0,0,1,0,1.88,3.56,3.56,0,0,1-3.24,0,1,1,0,0,1,0-1.88" transform="translate(-27.59 -16.05)" style="fill:#fff"/><path d="M166.65,194.83a3.55,3.55,0,0,1,3.23,0,1,1,0,0,1,0,1.88,3.56,3.56,0,0,1-3.24,0,1,1,0,0,1,0-1.88" transform="translate(-27.59 -16.05)" style="fill:#fff"/><path d="M188.77,194.83a3.55,3.55,0,0,1,3.23,0,1,1,0,0,1,0,1.88,3.56,3.56,0,0,1-3.24,0,1,1,0,0,1,0-1.88" transform="translate(-27.59 -16.05)" style="fill:#fff"/><polyline points="86.86 198.8 130.92 224.52 203.65 182.93" style="fill:none;stroke:#fff;stroke-miterlimit:10"/><polyline points="130.92 224.52 128.92 207.29 145.25 204.11 140.33 179.45 162.79 179.81 158.42 150.43" style="fill:none;stroke:#fff;stroke-miterlimit:10;opacity:0.4;mix-blend-mode:hard-light"/><g style="opacity:0.4;mix-blend-mode:hard-light"><g style="isolation:isolate"><path d="M37.62,104.28l.3,107.12a2.53,2.53,0,0,0,3.8,2.19l145.08-84a4.46,4.46,0,0,0,2.22-3.87l-.3-107.12a2.53,2.53,0,0,0-3.8-2.19l-145.08,84A4.46,4.46,0,0,0,37.62,104.28Z" transform="translate(-27.59 -16.05)" style="fill:url(#linear-gradient-8)"/></g><g style="opacity:0.7000000000000001;mix-blend-mode:overlay"><g style="isolation:isolate"><path d="M48,110.51l.3,107.12a2.53,2.53,0,0,0,3.8,2.19l145.08-84a4.46,4.46,0,0,0,2.22-3.87l-.3-107.12a2.53,2.53,0,0,0-3.8-2.19l-145.08,84A4.46,4.46,0,0,0,48,110.51Z" transform="translate(-27.59 -16.05)" style="fill:#fff"/></g></g></g><g style="opacity:0.4;mix-blend-mode:hard-light"><g style="isolation:isolate"><path d="M59.11,153.27l.08,21a4.85,4.85,0,0,0,7.28,4.2l42.59-24.67a11.43,11.43,0,0,0,5.69-9.92l-.08-21a4.85,4.85,0,0,0-7.28-4.2L64.81,143.35A11.43,11.43,0,0,0,59.11,153.27Z" transform="translate(-27.59 -16.05)" style="fill:#fff"/></g></g><path d="M114.25,120.88a4.85,4.85,0,0,0-6.85-2.2L64.81,143.35a11.41,11.41,0,0,0-5.66,9.44Z" transform="translate(-27.59 -16.05)" style="fill:#fff;opacity:0.4;mix-blend-mode:hard-light"/><g style="isolation:isolate"><path d="M74.26,169.08a5.56,5.56,0,0,1-2.81-.73c-2-1.14-3.07-3.47-3.07-6.57,0-6.12,4.33-13.63,9.7-16.73h0c2.72-1.58,5.32-1.82,7.3-.69s3.08,3.49,3.09,6.63c0,6.22-4.2,13.55-9.6,16.67A9.32,9.32,0,0,1,74.26,169.08Zm4.55-22.75c-5,2.87-9,9.8-9,15.45,0,2.55.84,4.42,2.34,5.29s3.66.65,6-.68C83,163.56,87,156.66,87,151c0-2.59-.84-4.49-2.35-5.36s-3.58-.62-5.84.68Z" transform="translate(-27.59 -16.05)" style="fill:#fff;opacity:0.4;mix-blend-mode:hard-light"/></g><path d="M87,151c0-2.59-.84-4.49-2.35-5.36s-3.58-.62-5.84.68l-.74-1.28c2.72-1.58,5.32-1.82,7.3-.69s3.08,3.49,3.09,6.63Z" transform="translate(-27.59 -16.05)" style="fill:#fff"/><g style="isolation:isolate"><path d="M95.48,157.12a5.55,5.55,0,0,1-2.81-.73c-2-1.14-3.07-3.47-3.07-6.56,0-6.12,4.33-13.63,9.7-16.73h0c2.72-1.58,5.32-1.82,7.3-.69s3.08,3.49,3.09,6.63c0,6.22-4.2,13.55-9.6,16.68A9.33,9.33,0,0,1,95.48,157.12Zm8.36-23.94a7.79,7.79,0,0,0-3.82,1.19h0c-5,2.87-9,9.8-9,15.45,0,2.55.84,4.42,2.34,5.29s3.66.65,6-.68c4.9-2.84,8.88-9.74,8.86-15.39,0-2.59-.84-4.49-2.35-5.36A4,4,0,0,0,103.84,133.18Z" transform="translate(-27.59 -16.05)" style="fill:#fff;opacity:0.4;mix-blend-mode:hard-light"/></g><path d="M100.09,155.71l-.74-1.28c4.9-2.84,8.88-9.74,8.86-15.39,0-2.59-.84-4.49-2.35-5.36l.73-1.28c2,1.14,3.08,3.49,3.09,6.63C109.7,145.26,105.49,152.59,100.09,155.71Z" transform="translate(-27.59 -16.05)" style="fill:#fff"/><g style="opacity:0.22"><g style="isolation:isolate"><polygon points="34.23 167.53 34.38 173.96 102.51 134.54 102.35 128.11 34.23 167.53" style="fill:#fff"/></g></g><polygon points="203.04 118.19 201.82 157 205.31 157.66 208.47 123.54 203.04 118.19" style="fill:url(#linear-gradient-9)"/><polygon points="205.41 156.6 201.82 156.36 197.58 159.56 199.53 159.08 205.31 157.66 205.41 156.6" style="fill:#3d365f"/><polygon points="197.6 115.63 196.37 154.44 199.87 155.1 203.02 120.98 197.6 115.63" style="fill:url(#linear-gradient-10)"/><polygon points="201.82 146.02 195.45 144.85 197.36 118.19 203.04 118.19 201.82 146.02" style="fill:url(#Degradado_sin_nombre_20)"/><path d="M234.41,132.89a10.59,10.59,0,0,1,3.11,5.94c.32,3.36-2.4,24.7-2.4,24.7l-7.57-1,.66-28.28Z" transform="translate(-27.59 -16.05)" style="fill:url(#Degradado_sin_nombre_20-2)"/><polygon points="199.97 154.04 196.37 153.8 192.13 157 194.09 156.52 199.87 155.1 199.97 154.04" style="fill:#3d365f"/><path d="M224.35,121.78a51,51,0,0,1-9.07-6.26c-4.31-3.92-5.05-12.38-8-15.73l1.4-1.81a19.27,19.27,0,0,1,4.67,7c1,2.48,2.92,6.88,11.49,11Z" transform="translate(-27.59 -16.05)" style="fill:url(#linear-gradient-11)"/><path d="M227.09,105.91s.54-2.95,4.89-2.16,7.33,8.39,4.31,11.81-.59,5,.35,4c0,0-.84,3.48-4.8,2.5-3.45-.85-4-5.55-2.21-8.2s.36-5.78-1.38-5.8Z" transform="translate(-27.59 -16.05)" style="fill:url(#Degradado_sin_nombre_173)"/><path d="M229,108.71a2.3,2.3,0,0,0,.28-2.66,2,2,0,0,0-2.75-.88Z" transform="translate(-27.59 -16.05)" style="fill:url(#Degradado_sin_nombre_151)"/><path d="M227.68,116.63l2.05,1.27a4.46,4.46,0,0,1,2.12,4.14,16.29,16.29,0,0,0,3.94,11.8s-4.47,6.73-11.82,1.11a9.91,9.91,0,0,0-2.36-9.57c-2.49-2.62,3.23-9.4,3.23-9.4Z" transform="translate(-27.59 -16.05)" style="fill:url(#Degradado_sin_nombre_159)"/><path d="M230.76,119.48s1.67,8.91-4.71,15.05c-1.58,1.52-4.86.88-15,3.22l-1-1.59s2.3-2.45,7.72-3.55,7.33-2,8.09-6.29S228,118.63,230.76,119.48Z" transform="translate(-27.59 -16.05)" style="fill:url(#linear-gradient-12)"/><path d="M226.41,113.43h0a2.13,2.13,0,0,0,2.61-2l.13-3.52a2.92,2.92,0,0,0-2.26-3l-1.72-.4Z" transform="translate(-27.59 -16.05)" style="fill:url(#Degradado_sin_nombre_173-2)"/><polygon points="198.12 105.39 200.63 101.4 198.15 93.53 194.67 93.69 198.12 105.39" style="fill:url(#linear-gradient-13)"/><path d="M228.22,117.45s-2.73,4.87-3.17,4.56.56-5,.56-5Z" transform="translate(-27.59 -16.05)" style="fill:url(#linear-gradient-14)"/><path d="M222.8,114.05l2.14.35,2.34-5a3.35,3.35,0,0,0-2.51-4h0a3.34,3.34,0,0,0-4,2.52l-.48,2.09A3.35,3.35,0,0,0,222.8,114.05Z" transform="translate(-27.59 -16.05)" style="fill:url(#linear-gradient-15)"/><path d="M226.28,111.05l-.1-2.39a5.51,5.51,0,0,1-2.58-3.24,3.62,3.62,0,0,0-2.75,2.18s-1.82-4.45,5.16-2.84c1.89.44,2.54,2.3,1.71,5.89Z" transform="translate(-27.59 -16.05)" style="fill:url(#Degradado_sin_nombre_173-3)"/><ellipse cx="226.97" cy="111.32" rx="1.5" ry="1.49" transform="translate(39.94 291.45) rotate(-77.02)" style="fill:url(#linear-gradient-16)"/><polygon points="184.36 76.47 141.06 101.56 141.06 144.86 184.36 119.76 184.36 76.47" style="opacity:0.51;mix-blend-mode:multiply;fill:url(#linear-gradient-17)"/><polygon points="184.36 76.47 141.06 101.56 141.06 111.01 184.36 85.92 184.36 76.47" style="fill:url(#Degradado_sin_nombre_151-2)"/><g style="isolation:isolate"><g style="clip-path:url(#clip-path-2)"><path d="M173.87,118.14a2.25,2.25,0,0,0-1,1.76c0,.65.46.92,1,.59a2.24,2.24,0,0,0,1-1.77c0-.65-.46-.91-1-.58" transform="translate(-27.59 -16.05)" style="fill:#fff"/></g></g><g style="isolation:isolate"><g style="clip-path:url(#clip-path-3)"><path d="M177.24,116.11a2.25,2.25,0,0,0-1,1.77c0,.65.46.91,1,.58a2.23,2.23,0,0,0,1-1.76c0-.65-.46-.92-1-.59" transform="translate(-27.59 -16.05)" style="fill:#fff"/></g></g><g style="isolation:isolate"><g style="clip-path:url(#clip-path-4)"><path d="M180.62,114.08a2.25,2.25,0,0,0-1,1.76c0,.65.46.92,1,.59a2.24,2.24,0,0,0,1-1.77c0-.65-.46-.91-1-.58" transform="translate(-27.59 -16.05)" style="fill:#fff"/></g></g><g style="opacity:0.4;mix-blend-mode:hard-light"><g style="isolation:isolate"><path d="M192.78,126.06c-7.74,4.48-14,15.35-14,24.27l28-16.23c0-8.92-6.32-12.53-14.07-8" transform="translate(-27.59 -16.05)" style="fill:#fff"/></g></g><path d="M193.85,130.32c5.57-3.23,10.1-.63,10.11,5.78m-10.11-5.78c-5.57,3.22-10.06,11-10,17.45" transform="translate(-27.59 -16.05)" style="fill:none;stroke:#fff;stroke-miterlimit:10;stroke-width:0.25px"/><path d="M193.26,128.41c6.6-3.82,12-.91,12.26,6.46l1.33-.77c0-8.92-6.32-12.53-14.07-8s-14,15.35-14,24.27l2.27-1.32C181.33,141.34,186.67,132.23,193.26,128.41Z" transform="translate(-27.59 -16.05)" style="fill:#fff;opacity:0.4;mix-blend-mode:hard-light"/><polygon points="165.94 125.19 171.32 111.48 168.41 123.75 165.94 125.19" style="fill:#fff;opacity:0.4;mix-blend-mode:hard-light"/><g style="isolation:isolate"><path d="M194.77,138.81a3.66,3.66,0,0,0-1.67,2.87c0,1.06.76,1.47,1.68.94a3.63,3.63,0,0,0,1.65-2.86c0-1.06-.74-1.48-1.66-.95" transform="translate(-27.59 -16.05)" style="fill:#fff"/></g><polygon points="181.38 90.99 169.41 97.93 169.41 98.84 181.38 91.9 181.38 90.99" style="fill:#fff;opacity:0.4;mix-blend-mode:hard-light"/><polygon points="181.38 93.18 169.41 100.12 169.41 101.03 181.38 94.1 181.38 93.18" style="fill:#fff;opacity:0.4;mix-blend-mode:hard-light"/><polygon points="181.38 95.37 169.41 102.31 169.41 103.22 181.38 96.29 181.38 95.37" style="fill:#fff;opacity:0.4;mix-blend-mode:hard-light"/><polygon points="181.38 97.56 174.43 101.6 174.43 102.52 181.38 98.48 181.38 97.56" style="fill:#fff;opacity:0.4;mix-blend-mode:hard-light"/><polygon points="181.38 99.76 174.43 103.79 174.43 104.71 181.38 100.67 181.38 99.76" style="fill:#fff;opacity:0.4;mix-blend-mode:hard-light"/><path d="M176.27,125.93a8.4,8.4,0,0,0-3.81,6.58c0,2.43,1.74,3.37,3.84,2.15a8.31,8.31,0,0,0,3.78-6.56l-3.81,2.2Z" transform="translate(-27.59 -16.05)" style="fill:#fff;opacity:0.4;mix-blend-mode:hard-light"/><path d="M176.28,125.92h0v4.36l3.81-2.2C180.08,125.67,178.39,124.71,176.28,125.92Z" transform="translate(-27.59 -16.05)" style="fill:#fff"/><path d="M185,119.85h0v4.36l3.81-2.2C188.83,119.6,187.14,118.63,185,119.85Z" transform="translate(-27.59 -16.05)" style="fill:#fff"/><path d="M185,119.86a8.4,8.4,0,0,0-3.81,6.58c0,2.43,1.74,3.37,3.84,2.15a7.71,7.71,0,0,0,2.66-2.8l-2.7-1.56Z" transform="translate(-27.59 -16.05)" style="fill:#fff;opacity:0.4;mix-blend-mode:hard-light"/><path d="M185,124.22l2.7,1.56a7.71,7.71,0,0,0,1.11-3.76Z" transform="translate(-27.59 -16.05)" style="fill:#fff"/><polygon points="156.14 171.99 142.37 163.05 185.84 137.95 200.27 146.94 156.14 171.99" style="opacity:0.48;mix-blend-mode:multiply;fill:url(#linear-gradient-18)"/><polygon points="79.43 195.72 65.66 186.79 109.13 161.68 123.56 170.68 79.43 195.72" style="opacity:0.48;mix-blend-mode:multiply;fill:url(#linear-gradient-19)"/><path d="M240.09,257.91l-30.65-17.74,0,0a2.49,2.49,0,0,0-2.47.26,5.52,5.52,0,0,0-.78.56L201,238a11.67,11.67,0,0,0,2.38-6.23h.05v-6.21h0c.14-4.6-2.82-9.25-8.92-12.78-11.79-6.83-30.85-6.83-42.57,0-6.06,3.53-9,8.17-8.77,12.78h0v6.21h.06c.31,4.24,3.23,8.44,8.82,11.67,11.86,6.87,30.92,6.87,42.7,0a24.58,24.58,0,0,0,3.11-2.17l5.92,3.43a6.08,6.08,0,0,0-.3,1.8,2.54,2.54,0,0,0,.89,2.15l.14.1.11.06,31,17.92a2.42,2.42,0,0,0,2.62-.17,7.83,7.83,0,0,0,3.54-6.16C241.7,259,241.06,258.09,240.09,257.91Zm-83.51-23a15,15,0,0,1-5.87-5.62c.64-2.76,2.77-5.43,6.43-7.57,8.86-5.16,23.26-5.16,32.18,0,3.72,2.15,5.88,4.85,6.53,7.64a14.8,14.8,0,0,1-5.76,5.55C180.83,240.27,165.88,240.27,156.58,234.89Z" transform="translate(-27.59 -16.05)" style="opacity:0.48;mix-blend-mode:multiply;fill:url(#linear-gradient-20)"/><path d="M146.28,191.26v6.21h.06c.31,4.24,3.23,8.44,8.82,11.67,11.86,6.87,30.92,6.87,42.7,0,5.56-3.24,8.43-7.43,8.69-11.67h.05v-6.21h-.29c-.84-3.71-3.71-7.31-8.66-10.18-11.79-6.83-30.85-6.83-42.57,0-4.91,2.86-7.74,6.46-8.54,10.18Zm14.07,11.57c-3.75-2.17-5.9-4.91-6.51-7.73.6-2.81,2.74-5.54,6.46-7.71,8.86-5.16,23.26-5.16,32.18,0,3.78,2.19,6,4.94,6.56,7.78-.6,2.8-2.72,5.51-6.41,7.66C183.72,208,169.32,208,160.35,202.84Z" transform="translate(-27.59 -16.05)" style="fill:url(#linear-gradient-21)"/><path d="M197.65,178.48c-11.79-6.83-30.85-6.83-42.57,0s-11.72,17.94.07,24.77,30.92,6.87,42.7,0S209.51,185.35,197.65,178.48Zm-4.41,22.1c-9.25,5.39-24.19,5.39-33.5,0s-9.3-14-.06-19.43,24.14-5.36,33.39,0S202.43,195.23,193.24,200.59Z" transform="translate(-27.59 -16.05)" style="fill:url(#linear-gradient-22)"/><path d="M193.08,184.06c-9.25-5.36-24.2-5.36-33.39,0-4,2.32-6.22,5.25-6.77,8.26.55,3,2.82,6,6.82,8.28,9.31,5.39,24.25,5.39,33.5,0,3.94-2.3,6.17-5.21,6.71-8.21C199.4,189.34,197.11,186.39,193.08,184.06Z" transform="translate(-27.59 -16.05)" style="fill:#fff;opacity:0.32"/><g style="opacity:0.36"><g style="clip-path:url(#clip-path-5)"><g style="opacity:0.51;mix-blend-mode:multiply"><polygon points="158.1 216.21 148.8 217.97 134.8 143.78 144.1 142.02 158.1 216.21" style="fill:url(#linear-gradient-23)"/><polygon points="164.12 208.78 158.73 209.8 144.73 135.61 150.12 134.59 164.12 208.78" style="fill:url(#linear-gradient-24)"/></g></g></g><path d="M216.55,210.87l-13.91-8.05h0a1.11,1.11,0,0,0-1.11.12,3.47,3.47,0,0,0-1.57,2.72,1.14,1.14,0,0,0,.4,1l.06,0,0,0,13.88,8h0l2.38-3.73Z" transform="translate(-27.59 -16.05)" style="fill:url(#Degradado_sin_nombre_173-4)"/><path d="M243.69,223.87l-31.09-18,0,0a2.49,2.49,0,0,0-2.47.26,7.76,7.76,0,0,0-3.5,6.09,2.54,2.54,0,0,0,.89,2.15l.14.1.11.06,31,17.95.06,0,5.32-8.33A5.08,5.08,0,0,0,243.69,223.87Z" transform="translate(-27.59 -16.05)" style="fill:url(#linear-gradient-25)"/><path d="M241.3,224.07a7.85,7.85,0,0,0-3.54,6.16c0,2.27,1.61,3.17,3.57,2a7.83,7.83,0,0,0,3.54-6.16c0-2.26-1.61-3.17-3.57-2" transform="translate(-27.59 -16.05)" style="fill:url(#linear-gradient-26)"/><path d="M210.13,215.77a1.66,1.66,0,0,0,.25.16l-.11-.06Z" transform="translate(-27.59 -16.05)" style="fill:#b0d3db"/><path d="M215.21,207.27l0,0Z" transform="translate(-27.59 -16.05)" style="fill:#b0d3db"/><path d="M73.49,168.78s-2.31,9.41-9.47,14c-4.55,2.9-6.52,9.55-1.24,12.84a15,15,0,0,0,15.39-.44C87,188.9,82.7,171.8,73.49,168.78Z" transform="translate(-27.59 -16.05)" style="fill:url(#Degradado_sin_nombre_173-5)"/><polygon points="45.03 182.37 46.25 221.17 42.76 221.83 39.6 187.71 45.03 182.37" style="fill:url(#linear-gradient-27)"/><polygon points="42.66 220.78 46.25 220.53 50.49 223.73 48.54 223.25 42.76 221.83 42.66 220.78" style="fill:url(#Degradado_sin_nombre_173-6)"/><polygon points="50.47 179.81 51.7 218.61 48.2 219.27 45.05 185.15 50.47 179.81" style="fill:url(#linear-gradient-28)"/><polygon points="48.1 218.22 51.7 217.97 55.94 221.17 53.98 220.69 48.2 219.27 48.1 218.22" style="fill:url(#Degradado_sin_nombre_173-7)"/><path d="M78.16,195.15l2.86,20s-8.27,3.82-16.09.29c0,0-1.34-12.39,4.15-22.2Z" transform="translate(-27.59 -16.05)" style="fill:url(#Degradado_sin_nombre_159-2)"/><path d="M79.87,187.11a11.29,11.29,0,0,0-1.71,8,9.52,9.52,0,0,1-9.08-1.86s1.61-3.9,1.29-5.89Z" transform="translate(-27.59 -16.05)" style="fill:url(#Degradado_sin_nombre_146)"/><path d="M76.07,177.64s3.55-1.44,5.25,1.15,5,10.06,10.4,11.32,8.45,0,8.45,0l.5,2s-8.38,2.72-13.42,0S78.89,184.34,76.07,177.64Z" transform="translate(-27.59 -16.05)" style="fill:url(#linear-gradient-29)"/><path d="M80.06,183.83a5.06,5.06,0,0,0,3.07-2c-1.18-2-2-4.85-5.17-4.61Z" transform="translate(-27.59 -16.05)" style="fill:url(#Degradado_sin_nombre_146-2)"/><path d="M74.88,174.59h0a2.07,2.07,0,0,1-2-2.46l.64-3.35a2.82,2.82,0,0,1,2.77-2.3H78Z" transform="translate(-27.59 -16.05)" style="fill:url(#Degradado_sin_nombre_173-8)"/><path d="M78,177.24a50.67,50.67,0,0,0,2.31,4.88c1.13,2,1.33,3.56-1.89,6.64l-7,1.46s-3.39-7.24-.17-12C71.17,178.19,75,176.75,78,177.24Z" transform="translate(-27.59 -16.05)" style="fill:url(#Degradado_sin_nombre_146-3)"/><polygon points="48.44 163.77 45.69 161.53 47.33 155.08 50.7 154.93 48.44 163.77" style="fill:url(#linear-gradient-30)"/><polygon points="49.43 159.86 47.44 159.91 49.15 160.95 49.43 159.86" style="fill:url(#linear-gradient-31)"/><path d="M49.53,151.33H51.6a2.2,2.2,0,0,1,2.2,2.2v4.17a2.2,2.2,0,0,1-2.2,2.2H47.33a0,0,0,0,1,0,0v-6.38A2.2,2.2,0,0,1,49.53,151.33Z" style="fill:url(#linear-gradient-32)"/><path d="M75.52,172.37l.61-2.24a5.33,5.33,0,0,0,3.14-2.5,3.52,3.52,0,0,1,2.12,2.65s2.68-3.81-4.25-3.81c-1.88,0-2.89,1.62-2.89,5.19Z" transform="translate(-27.59 -16.05)" style="fill:url(#Degradado_sin_nombre_173-9)"/><ellipse cx="47.22" cy="156.42" rx="1.45" ry="1.45" style="fill:url(#linear-gradient-33)"/><polygon points="53.69 177.69 53.53 176.91 65.82 166.87 77.01 170.4 64.89 181.22 53.69 177.69" style="fill:url(#linear-gradient-34)"/><polygon points="53.53 176.91 65.65 166.09 76.85 169.62 64.73 180.44 53.53 176.91" style="fill:url(#linear-gradient-35)"/><path d="M85.66,193l.31-.28,7.65-6.83a.3.3,0,0,1,.29-.06l7.17,2.26a.3.3,0,0,1,.11.51l-8,7.11a.3.3,0,0,1-.29.06l-7.17-2.26A.3.3,0,0,1,85.66,193Z" transform="translate(-27.59 -16.05)" style="fill:url(#linear-gradient-36)"/><polygon points="57.87 176.7 57.98 177.23 58.39 177.14 58.3 176.67 57.87 176.7" style="fill:url(#Degradado_sin_nombre_173-10)"/><path d="M85.55,192.46l8-7.11a.3.3,0,0,1,.29-.06l7.17,2.26a.3.3,0,0,1,.11.51l-8,7.11a.3.3,0,0,1-.29.06L85.66,193A.3.3,0,0,1,85.55,192.46Z" transform="translate(-27.59 -16.05)" style="fill:url(#Degradado_sin_nombre_173-11)"/><polygon points="65.59 169.62 77.72 158.8 77.01 170.4 64.89 181.22 65.59 169.62" style="fill:url(#linear-gradient-37)"/><polygon points="65.59 169.62 77.72 158.8 76.81 158.55 64.84 169.2 64.08 180.96 64.89 181.22 65.59 169.62" style="fill:url(#linear-gradient-38)"/><path d="M98.25,185.57c-.13.84.28,1.42.92,1.3a2.11,2.11,0,0,0,1.4-1.74c.13-.84-.28-1.42-.92-1.3A2.11,2.11,0,0,0,98.25,185.57Z" transform="translate(-27.59 -16.05)" style="fill:#fff"/><path d="M98.87,186.81a2.11,2.11,0,0,0,1.4-1.74,1.09,1.09,0,0,0-.48-1.26c.56,0,.91.53.78,1.31a2.11,2.11,0,0,1-1.4,1.74.77.77,0,0,1-.45,0Z" transform="translate(-27.59 -16.05)" style="fill:url(#linear-gradient-39)"/><path d="M71.17,178.19a4.78,4.78,0,0,0-3.2,4.89c.33,3.93,3.77,12.64,10.5,11.05,4.74-1.12,7.57-4.36,13.38-4.3l-.41-2.2a31.29,31.29,0,0,0-10.4,1.88C75.76,191.5,72.1,189.87,71.17,178.19Z" transform="translate(-27.59 -16.05)" style="fill:url(#linear-gradient-40)"/><path d="M76.69,177.33s1,2.73.13,3.17-2-.37-3.54-2.93Z" transform="translate(-27.59 -16.05)" style="fill:url(#linear-gradient-41)"/><path d="M73,185.36a6.19,6.19,0,0,1-4.91.09s-1.75-5.95,3.05-7.26Z" transform="translate(-27.59 -16.05)" style="fill:url(#Degradado_sin_nombre_146-4)"/><g style="opacity:0.68;mix-blend-mode:hard-light"><g style="isolation:isolate"><path d="M83,120.46v.85a3.42,3.42,0,0,0,5.13,2.91l88-51.18a6.64,6.64,0,0,0,3.31-5.86l-5.73-3.42L86.35,114.6A6.64,6.64,0,0,0,83,120.46Z" transform="translate(-27.59 -16.05)" style="fill:#fff"/></g></g><path d="M179.45,66.32a7.36,7.36,0,0,1,.29-1.95l-3-1.1a2.85,2.85,0,0,0-2.39.13h0l-14.91,8.64V82.73L176.16,73a6.64,6.64,0,0,0,3.31-5.86Z" transform="translate(-27.59 -16.05)" style="fill:url(#Degradado_sin_nombre_20-3)"/><path d="M161.72,83.85l16.74-9.7a6.64,6.64,0,0,0,3.31-5.86v-.85a3.42,3.42,0,0,0-5.12-2.91l-14.91,8.64Z" transform="translate(-27.59 -16.05)" style="fill:url(#Degradado_sin_nombre_20-4)"/><g style="isolation:isolate"><g style="clip-path:url(#clip-path-6)"><path d="M170.94,75a1.18,1.18,0,0,1-1.17.12c-.65-.36-.66-1.56,0-2.68a3.4,3.4,0,0,1,1.18-1.25,1.18,1.18,0,0,1,1.16-.12c.65.36.66,1.57,0,2.69A3.38,3.38,0,0,1,170.94,75m0-4.94A5.37,5.37,0,0,0,169,72c-1,1.78-1,3.7,0,4.28a1.88,1.88,0,0,0,1.85-.2,5,5,0,0,0,1.5-1.41l1.62.91.69-1.21-1.63-.91c.69-1.59.57-3.15-.34-3.66a1.89,1.89,0,0,0-1.85.2" transform="translate(-27.59 -16.05)" style="fill:#fff"/></g></g><polygon points="131.82 55.93 134.13 57.05 134.13 67.8 131.82 66.69 131.82 55.93" style="fill:url(#Degradado_sin_nombre_20-5)"/><g style="opacity:0.68;mix-blend-mode:hard-light"><g style="isolation:isolate"><path d="M48,109.94l.28,13,151.09-87.5-.23-10.65a2.56,2.56,0,0,0-3.84-2.17L49.69,106.92A3.4,3.4,0,0,0,48,109.94Z" transform="translate(-27.59 -16.05)" style="fill:#fff"/></g></g><g style="opacity:0.63"><g style="opacity:0.39;mix-blend-mode:overlay"><g style="isolation:isolate"><polygon points="113.28 85.62 113.4 114.65 137.36 101.21 137.24 72.18 113.28 85.62" style="fill:#fff"/></g></g><g style="opacity:0.39;mix-blend-mode:overlay"><g style="isolation:isolate"><polygon points="113.28 118.73 113.4 127.85 164.99 98 164.87 88.88 113.28 118.73" style="fill:#fff"/></g></g><g style="opacity:0.39;mix-blend-mode:overlay"><g style="isolation:isolate"><polygon points="113.28 130.24 113.4 134.21 164.99 104.36 164.87 100.39 113.28 130.24" style="fill:#fff"/></g></g><g style="opacity:0.39;mix-blend-mode:overlay"><g style="isolation:isolate"><polygon points="140.75 70.23 140.87 99.27 164.83 85.83 164.71 56.8 140.75 70.23" style="fill:#fff"/></g></g></g><polygon points="236.24 178.17 222.47 169.24 265.94 144.13 280.37 153.13 236.24 178.17" style="opacity:0.48;mix-blend-mode:multiply;fill:url(#linear-gradient-42)"/><polygon points="265.31 75.54 222.01 100.63 222.01 143.93 265.31 118.83 265.31 75.54" style="opacity:0.51;mix-blend-mode:multiply;fill:url(#linear-gradient-43)"/><polygon points="265.31 75.54 222.01 100.63 222.01 110.08 265.31 84.99 265.31 75.54" style="fill:url(#Degradado_sin_nombre_151-3)"/><g style="isolation:isolate"><g style="clip-path:url(#clip-path-7)"><path d="M254.83,117.21a2.25,2.25,0,0,0-1,1.77c0,.65.45.91,1,.58a2.22,2.22,0,0,0,1-1.76c0-.65-.45-.92-1-.59" transform="translate(-27.59 -16.05)" style="fill:#fff"/></g></g><g style="isolation:isolate"><g style="clip-path:url(#clip-path-8)"><path d="M258.2,115.18a2.25,2.25,0,0,0-1,1.77c0,.65.45.92,1,.59a2.24,2.24,0,0,0,1-1.77c0-.65-.45-.92-1-.59" transform="translate(-27.59 -16.05)" style="fill:#fff"/></g></g><g style="isolation:isolate"><g style="clip-path:url(#clip-path-9)"><path d="M261.57,113.15a2.24,2.24,0,0,0-1,1.77c0,.65.45.92,1,.59a2.25,2.25,0,0,0,1-1.77c0-.65-.45-.92-1-.59" transform="translate(-27.59 -16.05)" style="fill:#fff"/></g></g><polygon points="238.46 104.54 226.49 111.48 226.49 112.39 238.46 105.46 238.46 104.54" style="fill:#fff;opacity:0.4;mix-blend-mode:hard-light"/><polygon points="250.56 97.62 241.95 102.61 241.95 109.46 250.56 104.47 250.56 97.62" style="fill:#fff;opacity:0.4;mix-blend-mode:hard-light"/><polygon points="253.73 95.86 251.65 97.07 251.65 98.73 253.73 97.52 253.73 95.86" style="fill:#fff;opacity:0.4;mix-blend-mode:hard-light"/><polygon points="253.73 98.39 251.65 99.6 251.65 101.26 253.73 100.05 253.73 98.39" style="fill:#fff;opacity:0.4;mix-blend-mode:hard-light"/><polygon points="253.73 100.92 251.65 102.13 251.65 103.8 253.73 102.58 253.73 100.92" style="fill:#fff;opacity:0.4;mix-blend-mode:hard-light"/><polygon points="238.46 106.73 226.49 113.67 226.49 114.59 238.46 107.65 238.46 106.73" style="fill:#fff;opacity:0.4;mix-blend-mode:hard-light"/><polygon points="238.46 108.93 226.49 115.86 226.49 116.78 238.46 109.84 238.46 108.93" style="fill:#fff;opacity:0.4;mix-blend-mode:hard-light"/><polygon points="263.22 90.79 254.62 95.82 254.62 96.74 263.22 91.71 263.22 90.79" style="fill:#fff;opacity:0.4;mix-blend-mode:hard-light"/><polygon points="263.22 93.34 254.62 98.37 254.62 99.28 263.22 94.25 263.22 93.34" style="fill:#fff;opacity:0.4;mix-blend-mode:hard-light"/><polygon points="263.22 95.89 254.62 100.91 254.62 101.83 263.22 96.8 263.22 95.89" style="fill:#fff;opacity:0.4;mix-blend-mode:hard-light"/><g style="isolation:isolate"><g style="clip-path:url(#clip-path-10)"><path d="M286.07,126.62a6.43,6.43,0,0,0-1.33,1.24.67.67,0,0,0,.47.07.81.81,0,0,0,.21-.09,1.87,1.87,0,0,0,.24-.17,2.29,2.29,0,0,1,.24-.17c.53-.31,1.3-.16,3.84,3.38h0c-.41-.62-2.43-3.65-3-4.25-.17-.19-.41-.18-.7,0m-8.36-1.78a.94.94,0,0,0-.35.48c-.25.62-.58,1.38-.93,2.2,1,.93,2.26,3.16,3.37,2.64l.1-.05a3.05,3.05,0,0,0,1-1.28c-.27-.39-.55-.84-.82-1.29-.92-1.51-1.8-3.05-2.42-2.7" transform="translate(-27.59 -16.05)" style="fill:#fff;opacity:0.400000005960465"/><path d="M282.32,125.88a5.68,5.68,0,0,0-.94,2c-.13.33-.28.67-.44,1,.65.94,1.3,1.58,1.86,1.26a1,1,0,0,0,.25-.22c.62-.74,1.18-1.44,1.69-2-.83-.41-1.81-2.05-2.34-2l-.08,0m-14.55,2.5c-.62.36-1.49,2.91-2.4,5.49s-1.86,5.16-2.65,5.62a.46.46,0,0,1-.25.07,6.07,6.07,0,0,0-3,.25,1.69,1.69,0,0,0-.71.83c-.53,1.23-2.59,8.64-2.94,9.89h0c1.7-4.38,2.6-5.76,3.17-6.09a.58.58,0,0,1,.69.06c.18.12.34.26.54.15l.1-.07c.89-.8,2.15-4.64,2.79-5.32l.08-.07c.29-.17.57.38.94.88s.83.93,1.49.54l.11-.07c1.46-1,3.22-7.15,4.12-7.78l.05,0c.88-.51,2,1.9,2.87,1.57l.05,0c.71-.41,2.38-3.9,3.62-6.74-.3-.29-.56-.46-.78-.37l-.05,0c-.88.51-2,4.23-2.85,4.88l-.05,0c-.92.53-3.44-2.19-4.58-3.65a.25.25,0,0,0-.35-.07" transform="translate(-27.59 -16.05)" style="fill:#fff;opacity:0.400000005960465"/><path d="M276.43,127.52c-1.24,2.84-2.91,6.33-3.62,6.74l-.05,0c-.86.33-2-2.08-2.87-1.57l-.05,0c-.89.64-2.65,6.78-4.12,7.78l-.11.07c-.66.38-1.12-.06-1.49-.54s-.65-1-.94-.88l-.08.07c-.64.68-1.9,4.52-2.79,5.32l-.1.07c-.21.12-.36,0-.54-.15a.58.58,0,0,0-.69-.06c-.57.33-1.47,1.71-3.17,6.09l33.91-19.64c-2.54-3.53-3.31-3.69-3.84-3.38a2.29,2.29,0,0,0-.24.17,1.87,1.87,0,0,1-.24.17.81.81,0,0,1-.21.09.67.67,0,0,1-.47-.07c-.5.57-1.07,1.27-1.69,2a1,1,0,0,1-.25.22c-.56.32-1.2-.32-1.86-1.26a3.05,3.05,0,0,1-1,1.28l-.1.05c-1.11.52-2.42-1.71-3.37-2.64" transform="translate(-27.59 -16.05)" style="fill:#fff;opacity:0.639215707778931"/><polyline points="262.22 114.79 262.14 114.83 262.14 114.83 228.23 134.47 228.2 134.49 228.15 134.52 228.15 134.82 262.22 115.09 262.22 114.79" style="fill:#fff"/></g></g><g style="opacity:0.22"><g style="isolation:isolate"><polygon points="89.22 97.71 89.24 105.96 98 100.89 97.98 92.64 89.22 97.71" style="fill:#fff"/></g></g><g style="opacity:0.22"><g style="isolation:isolate"><polygon points="100.32 91.39 100.34 99.63 109.11 94.56 109.08 86.31 100.32 91.39" style="fill:#fff"/></g></g><g style="opacity:0.22"><g style="isolation:isolate"><polygon points="89.22 114.45 89.24 122.7 98 117.63 97.98 109.38 89.22 114.45" style="fill:#fff"/></g></g><g style="opacity:0.22"><g style="isolation:isolate"><polygon points="100.32 108.13 100.34 116.38 109.11 111.3 109.08 103.06 100.32 108.13" style="fill:#fff"/></g></g><g style="opacity:0.22"><g style="isolation:isolate"><polygon points="89.22 131.19 89.24 139.44 98 134.37 97.98 126.12 89.22 131.19" style="fill:#fff"/></g></g><g style="opacity:0.22"><g style="isolation:isolate"><polygon points="100.32 124.87 100.34 133.12 109.11 128.05 109.08 119.8 100.32 124.87" style="fill:#fff"/></g></g><polygon points="107.38 98.49 64.07 123.59 64.07 169.26 69.6 161.53 107.38 139.64 107.38 98.49" style="opacity:0.51;mix-blend-mode:multiply;fill:url(#linear-gradient-44)"/><polygon points="107.38 98.49 64.07 123.59 64.07 133.03 107.38 107.94 107.38 98.49" style="fill:url(#Degradado_sin_nombre_151-4)"/><g style="isolation:isolate"><g style="clip-path:url(#clip-path-11)"><path d="M96.88,140.16a2.25,2.25,0,0,0-1,1.76c0,.65.46.92,1,.59a2.24,2.24,0,0,0,1-1.77c0-.65-.46-.91-1-.58" transform="translate(-27.59 -16.05)" style="fill:#fff"/></g></g><g style="isolation:isolate"><g style="clip-path:url(#clip-path-12)"><path d="M100.26,138.13a2.25,2.25,0,0,0-1,1.77c0,.65.46.91,1,.58a2.23,2.23,0,0,0,1-1.76c0-.65-.46-.92-1-.59" transform="translate(-27.59 -16.05)" style="fill:#fff"/></g></g><g style="isolation:isolate"><g style="clip-path:url(#clip-path-13)"><path d="M103.63,136.1a2.25,2.25,0,0,0-1,1.77c0,.65.46.91,1,.58a2.24,2.24,0,0,0,1-1.76c0-.65-.46-.92-1-.59" transform="translate(-27.59 -16.05)" style="fill:#fff"/></g></g><polygon points="103.48 116.83 88.69 125.56 88.69 126.47 103.48 117.75 103.48 116.83" style="fill:#fff;opacity:0.4;mix-blend-mode:hard-light"/><polygon points="103.48 119.02 88.69 127.75 88.69 128.66 103.48 119.94 103.48 119.02" style="fill:#fff;opacity:0.4;mix-blend-mode:hard-light"/><polygon points="103.48 121.21 88.69 129.94 88.69 130.85 103.48 122.13 103.48 121.21" style="fill:#fff;opacity:0.4;mix-blend-mode:hard-light"/><path d="M119.28,150.3a8.4,8.4,0,0,0-3.81,6.58c0,2.43,1.74,3.37,3.84,2.15a8.31,8.31,0,0,0,3.78-6.56l-3.81,2.2Z" transform="translate(-27.59 -16.05)" style="fill:#fff;opacity:0.4;mix-blend-mode:hard-light"/><path d="M119.29,150.3h0v4.36l3.81-2.2C123.08,150,121.39,149.08,119.29,150.3Z" transform="translate(-27.59 -16.05)" style="fill:#fff"/><path d="M128,144.22h0v4.36l3.81-2.2C131.83,144,130.14,143,128,144.22Z" transform="translate(-27.59 -16.05)" style="fill:#fff"/><path d="M128,144.23a8.4,8.4,0,0,0-3.81,6.58c0,2.43,1.74,3.37,3.84,2.15a7.71,7.71,0,0,0,2.66-2.8l-2.7-1.56Z" transform="translate(-27.59 -16.05)" style="fill:#fff;opacity:0.4;mix-blend-mode:hard-light"/><path d="M128,148.59l2.7,1.56a7.71,7.71,0,0,0,1.11-3.76Z" transform="translate(-27.59 -16.05)" style="fill:#fff"/><polygon points="73.93 137.22 70.74 139.15 70.74 158.61 73.93 156.68 73.93 137.22" style="fill:#fff;opacity:0.4;mix-blend-mode:hard-light"/><polygon points="77.85 128.41 74.66 130.34 74.66 156.28 77.85 154.36 77.85 128.41" style="fill:#fff"/><polygon points="81.78 134.77 78.58 136.69 78.58 153.96 81.78 152.03 81.78 134.77" style="fill:#fff;opacity:0.4;mix-blend-mode:hard-light"/><polygon points="85.7 129.1 82.51 131.03 82.51 151.78 85.7 149.85 85.7 129.1" style="fill:#fff;opacity:0.4;mix-blend-mode:hard-light"/><polygon points="97.88 219.98 84.89 218.94 86.94 212.4 93.61 213.22 97.88 219.98" style="fill:url(#Degradado_sin_nombre_146-5)"/><polygon points="83.79 210.66 82.78 233.48 79.53 249.17 82.44 249.81 88.44 233.96 90.26 214.22 83.79 210.66" style="fill:url(#Degradado_sin_nombre_146-6)"/><polygon points="89.26 215.53 95.73 233.96 91.66 252.89 94.57 253.53 100.68 234.01 97.09 216.01 89.26 215.53" style="fill:url(#Degradado_sin_nombre_146-7)"/><path d="M112.2,207.08s-2.38,4.17.2,6.86,11.2,6.31,15.4.85c3-3.85,3.12-8.12,7.64-11.74l-1.69-1.44a31.26,31.26,0,0,0-6.85,8C124.06,214.46,120.21,215.51,112.2,207.08Z" transform="translate(-27.59 -16.05)" style="fill:url(#linear-gradient-45)"/><polygon points="110.78 186.38 104.83 184.14 102.2 193.07 109.11 195.25 110.78 186.38" style="fill:#e9e8e0"/><polygon points="110.5 186.06 104.85 183.75 101.33 191.98 107.76 195.08 110.5 186.06" style="fill:#fffff4"/><path d="M132.86,200.7a.61.61,0,0,1-.42-.89c.32-.71,1.38-.45,1,.52" transform="translate(-27.59 -16.05)" style="fill:none;stroke:#313c48;stroke-miterlimit:10;stroke-width:0.25px"/><path d="M134.24,201.24a.61.61,0,0,1-.42-.89c.32-.71,1.38-.45,1,.52" transform="translate(-27.59 -16.05)" style="fill:none;stroke:#313c48;stroke-miterlimit:10;stroke-width:0.25px"/><path d="M135.62,201.78a.61.61,0,0,1-.42-.89c.32-.71,1.38-.45,1,.52" transform="translate(-27.59 -16.05)" style="fill:none;stroke:#313c48;stroke-miterlimit:10;stroke-width:0.25px"/><path d="M137,202.32a.61.61,0,0,1-.42-.89c.32-.71,1.38-.45,1,.52" transform="translate(-27.59 -16.05)" style="fill:none;stroke:#313c48;stroke-miterlimit:10;stroke-width:0.25px"/><polygon points="91.67 191.2 88.11 191.51 88.8 184.27 92.42 183.54 91.67 191.2" style="fill:url(#linear-gradient-46)"/><polygon points="91.86 189.08 89.72 189.47 91.74 190.31 91.86 189.08" style="fill:url(#linear-gradient-47)"/><path d="M119.47,195.68h2.27a1.78,1.78,0,0,1,1.78,1.78V202a3,3,0,0,1-3,3h-4a0,0,0,0,1,0,0v-6.34A3,3,0,0,1,119.47,195.68Z" transform="translate(-56.96 4.77) rotate(-8.84)" style="fill:url(#linear-gradient-48)"/><polygon points="91.64 186.92 92.42 185.53 93.42 186.91 91.64 186.92" style="fill:url(#linear-gradient-49)"/><path d="M116.43,203.54a2.88,2.88,0,0,0,3.13-.9l1.91-2.3s1.63-1.36,1.08-4.94c0,0-.08-2-2.44-1.62l-3.08.48a2.86,2.86,0,0,0-2.44,3.34c.26,1.15,1.5,5.83,1.5,5.83Z" transform="translate(-27.59 -16.05)" style="fill:url(#Degradado_sin_nombre_173-12)"/><path d="M122.76,201.15a1.58,1.58,0,1,1-1.8-1.32A1.58,1.58,0,0,1,122.76,201.15Z" transform="translate(-27.59 -16.05)" style="fill:url(#linear-gradient-50)"/><ellipse cx="122.85" cy="195.04" rx="2.72" ry="2.73" transform="translate(-56.1 5.14) rotate(-8.84)" style="fill:url(#Degradado_sin_nombre_173-13)"/><ellipse cx="116.03" cy="197.26" rx="2.72" ry="2.73" transform="translate(-56.53 4.12) rotate(-8.84)" style="fill:url(#Degradado_sin_nombre_173-14)"/><ellipse cx="120.24" cy="193.1" rx="1.96" ry="1.97" transform="matrix(0.99, -0.15, 0.15, 0.99, -55.84, 4.72)" style="fill:url(#Degradado_sin_nombre_173-15)"/><ellipse cx="116.85" cy="194.75" rx="2.59" ry="2.6" transform="translate(-56.13 4.22) rotate(-8.84)" style="fill:url(#Degradado_sin_nombre_173-16)"/><path d="M125.41,233.44l-15.11-1.66.52-12.24V209.45a2.57,2.57,0,0,1,2.55-2.57l12.11-.07Z" transform="translate(-27.59 -16.05)" style="fill:url(#Degradado_sin_nombre_159-3)"/><path d="M135.45,206.26l-.59.17.14-.6,3.46-3.7a.28.28,0,0,1,.38.05h0a.28.28,0,0,1,.08.37Z" transform="translate(-27.59 -16.05)" style="fill:url(#Degradado_sin_nombre_173-17)"/><path d="M125.47,206.81s9.71,10.32,10.44,10.21-.89-9,.08-12.74a1.16,1.16,0,0,1,1.56-.77l.15.06a1.18,1.18,0,0,1,.61,1.61,2.29,2.29,0,0,0-.1,1.63c.49,1.72,4,13.91-1.3,15S122.85,216.62,125.47,206.81Z" transform="translate(-27.59 -16.05)" style="fill:url(#linear-gradient-51)"/><path d="M125.47,206.81l9.73,9-3.39,6.54S118.59,216,125.47,206.81Z" transform="translate(-27.59 -16.05)" style="fill:url(#Degradado_sin_nombre_159-4)"/><polygon points="91.62 252.89 91.22 254.68 98.39 254.68 98.65 252.76 94.74 252.87 91.62 252.89" style="fill:url(#Degradado_sin_nombre_173-18)"/><polygon points="79.53 249.17 79.12 250.95 86.3 250.95 86.56 249.03 82.65 249.14 79.53 249.17" style="fill:url(#Degradado_sin_nombre_173-19)"/><polygon points="6.64 178 0.87 174.65 0.87 208.03 6.64 211.39 6.64 178 6.64 178" style="fill:#fff"/><polygon points="16.06 192.98 10.29 189.62 10.29 213.38 16.06 216.73 16.06 192.97 16.06 192.98" style="fill:#fff"/><polygon points="25.14 205.62 19.37 202.27 19.37 218.73 25.14 222.08 25.14 205.62 25.14 205.62" style="fill:#fff;opacity:0.4;mix-blend-mode:hard-light"/><polygon points="33.8 193.82 28.03 190.47 28.03 223.86 33.8 227.21 33.8 193.82 33.8 193.82" style="fill:#fff"/></g></g></svg>