<svg xmlns="http://www.w3.org/2000/svg" xmlns:xlink="http://www.w3.org/1999/xlink" viewBox="0 0 339.7 253"><defs><linearGradient id="linear-gradient" x1="158.31" y1="39.74" x2="132.05" y2="188.35" gradientUnits="userSpaceOnUse"><stop offset="0" stop-color="#fff"/><stop offset="1" stop-color="#f1fdfc"/></linearGradient><linearGradient id="linear-gradient-2" x1="160.21" y1="104.14" x2="141.17" y2="293.88" gradientUnits="userSpaceOnUse"><stop offset="0" stop-color="#666eec"/><stop offset="1" stop-color="#5453e9"/></linearGradient><linearGradient id="linear-gradient-3" x1="12.33" y1="100.46" x2="21.93" y2="100.46" xlink:href="#linear-gradient"/><linearGradient id="linear-gradient-4" x1="38.83" y1="139.46" x2="113.43" y2="139.46" xlink:href="#linear-gradient"/><linearGradient id="linear-gradient-5" x1="12.33" y1="122.03" x2="21.93" y2="122.03" xlink:href="#linear-gradient"/><linearGradient id="linear-gradient-6" x1="38.83" y1="161.03" x2="113.43" y2="161.03" xlink:href="#linear-gradient"/><linearGradient id="linear-gradient-7" x1="12.33" y1="143.59" x2="21.93" y2="143.59" xlink:href="#linear-gradient"/><linearGradient id="linear-gradient-8" x1="38.83" y1="182.59" x2="113.43" y2="182.59" xlink:href="#linear-gradient"/><linearGradient id="linear-gradient-9" x1="12.33" y1="165.16" x2="21.93" y2="165.16" xlink:href="#linear-gradient"/><linearGradient id="linear-gradient-10" x1="38.83" y1="204.16" x2="113.43" y2="204.16" xlink:href="#linear-gradient"/><linearGradient id="linear-gradient-11" x1="12.33" y1="196.04" x2="102.17" y2="196.04" gradientUnits="userSpaceOnUse"><stop offset="0" stop-color="#aaedeb"/><stop offset="1" stop-color="#88e3de"/></linearGradient><clipPath id="clip-path" transform="translate(-10.3 -39)"><path id="SVGID" d="M203.61,118.77V266.16h84.71a4.5,4.5,0,0,0,4.5-4.5V118.77Z" style="fill:none"/></clipPath><linearGradient id="linear-gradient-12" x1="278.07" y1="144.68" x2="271.41" y2="256.35" gradientTransform="translate(79.61 470.48) rotate(-90)" xlink:href="#linear-gradient-11"/><linearGradient id="linear-gradient-13" x1="136.91" y1="171.66" x2="214.02" y2="171.66" gradientTransform="translate(3.81 347.13) rotate(-90)" gradientUnits="userSpaceOnUse"><stop offset="0.01" stop-color="#f6deaf"/><stop offset="0.95" stop-color="#ecd69d"/></linearGradient><linearGradient id="linear-gradient-14" x1="170.88" y1="118.21" x2="160.38" y2="145.83" gradientUnits="userSpaceOnUse"><stop offset="0.36" stop-color="#a0a7fc"/><stop offset="0.5" stop-color="#929bfc"/><stop offset="0.65" stop-color="#7d87fb"/></linearGradient><clipPath id="clip-path-2" transform="translate(-10.3 -39)"><rect id="SVGID-2" data-name="SVGID" x="155.91" y="84.18" width="97.29" height="19.64" style="fill:none"/></clipPath><linearGradient id="linear-gradient-15" x1="205.35" y1="68.4" x2="207.09" y2="111.77" xlink:href="#linear-gradient-11"/></defs><title>3svg</title><g style="isolation:isolate"><g id="Слой_2" data-name="Слой 2"><rect y="45.18" width="282.53" height="181.98" rx="5" ry="5" style="fill:url(#linear-gradient)"/><path d="M10.3,118.77V261.66a4.5,4.5,0,0,0,4.5,4.5H288.33a4.5,4.5,0,0,0,4.5-4.5V118.77Z" transform="translate(-10.3 -39)" style="fill:url(#linear-gradient-2)"/><rect x="146.57" y="-22.66" width="9.99" height="257.87" rx="5" ry="5" transform="translate(247.54 -84.29) rotate(90)" style="fill:#d2dbfe"/><circle cx="14.14" cy="54.04" r="2.27" style="fill:#efc2ce"/><circle cx="23.2" cy="54.04" r="2.27" style="fill:#ecd69d"/><circle cx="32.27" cy="54.04" r="2.27" style="fill:#9ceae6"/><image width="96" height="80" transform="translate(9.3 93.6)" xlink:href="3svg1.png" style="opacity:0.30000000000000004;mix-blend-mode:multiply"/><circle cx="17.13" cy="100.46" r="4.8" style="fill:url(#linear-gradient-3)"/><path d="M110.81,142.08H41.45a2.62,2.62,0,0,1-2.62-2.62h0a2.62,2.62,0,0,1,2.62-2.62h69.36a2.62,2.62,0,0,1,2.62,2.62h0A2.62,2.62,0,0,1,110.81,142.08Z" transform="translate(-10.3 -39)" style="fill:url(#linear-gradient-4)"/><circle cx="17.13" cy="122.03" r="4.8" style="fill:url(#linear-gradient-5)"/><path d="M110.81,163.65H41.45A2.62,2.62,0,0,1,38.83,161h0a2.62,2.62,0,0,1,2.62-2.62h69.36a2.62,2.62,0,0,1,2.62,2.62h0A2.62,2.62,0,0,1,110.81,163.65Z" transform="translate(-10.3 -39)" style="fill:url(#linear-gradient-6)"/><circle cx="17.13" cy="143.59" r="4.8" style="fill:url(#linear-gradient-7)"/><path d="M110.81,185.21H41.45a2.62,2.62,0,0,1-2.62-2.62h0A2.62,2.62,0,0,1,41.45,180h69.36a2.62,2.62,0,0,1,2.62,2.62h0A2.62,2.62,0,0,1,110.81,185.21Z" transform="translate(-10.3 -39)" style="fill:url(#linear-gradient-8)"/><circle cx="17.13" cy="165.16" r="4.8" style="fill:url(#linear-gradient-9)"/><path d="M110.81,206.78H41.45a2.62,2.62,0,0,1-2.62-2.62h0a2.62,2.62,0,0,1,2.62-2.62h69.36a2.62,2.62,0,0,1,2.62,2.62h0A2.62,2.62,0,0,1,110.81,206.78Z" transform="translate(-10.3 -39)" style="fill:url(#linear-gradient-10)"/><image width="95" height="32" transform="translate(9.3 180.6)" xlink:href="3svg2.png" style="opacity:0.30000000000000004;mix-blend-mode:multiply"/><rect x="12.33" y="182.95" width="89.83" height="26.19" rx="3" ry="3" style="fill:url(#linear-gradient-11)"/><g style="clip-path:url(#clip-path)"><g style="opacity:0.30000000000000004;mix-blend-mode:multiply"><image width="161" height="197" transform="translate(178.7 56)" xlink:href="3svg3.png"/></g></g><rect x="220.8" y="85.73" width="87.91" height="123.41" rx="3" ry="3" style="fill:#fff"/><rect x="227.74" y="156.88" width="94.61" height="77.11" transform="translate(460.19 -118.61) rotate(90)" style="fill:url(#linear-gradient-12)"/><circle cx="228.57" cy="97.99" r="2.27" style="fill:#efc2ce"/><circle cx="237.64" cy="97.99" r="2.27" style="fill:#ecd69d"/><circle cx="246.7" cy="97.99" r="2.27" style="fill:#9ceae6"/><image width="57" height="57" transform="translate(236.3 128.6)" xlink:href="3svg4.png" style="opacity:0.30000000000000004;mix-blend-mode:multiply"/><path d="M300.5,200.24v-9.62l-5.06-.32a20.9,20.9,0,0,0-2.35-5.66l3.35-3.81-6.8-6.8-3.81,3.35a20.9,20.9,0,0,0-5.66-2.35l-.32-5.06h-9.62l-.32,5.06a20.9,20.9,0,0,0-5.66,2.35L260.45,174l-6.8,6.8,3.35,3.81a20.9,20.9,0,0,0-2.35,5.66l-5.06.32v9.62l5.06.32a20.9,20.9,0,0,0,2.35,5.66L253.65,210l6.8,6.8,3.81-3.35a20.89,20.89,0,0,0,5.66,2.35l.32,5.06h9.62l.32-5.06a20.89,20.89,0,0,0,5.66-2.35l3.81,3.35,6.8-6.8-3.35-3.81a20.9,20.9,0,0,0,2.35-5.66ZM275,205a9.52,9.52,0,1,1,9.52-9.52A9.52,9.52,0,0,1,275,205Z" transform="translate(-10.3 -39)" style="fill:#fff"/><g style="opacity:0.30000000000000004;mix-blend-mode:multiply"><image width="161" height="197" transform="translate(79.7 56)" xlink:href="3svg5.png"/></g><rect x="121.22" y="85.73" width="87.91" height="123.41" rx="3" ry="3" style="fill:#fff"/><rect x="128.16" y="156.88" width="94.61" height="77.11" transform="translate(360.61 -19.03) rotate(90)" style="fill:#929bfc"/><rect x="151.94" y="133.11" width="47.06" height="77.11" transform="translate(336.83 -42.81) rotate(90)" style="fill:url(#linear-gradient-13)"/><circle cx="128.35" cy="97.99" r="2.27" style="fill:#efc2ce"/><circle cx="137.41" cy="97.99" r="2.27" style="fill:#ecd69d"/><circle cx="146.48" cy="97.99" r="2.27" style="fill:#9ceae6"/><image width="57" height="10" transform="translate(136.3 165.6)" xlink:href="3svg6.png" style="opacity:0.30000000000000004;mix-blend-mode:multiply"/><path d="M199.4,210.67H151.53a1.81,1.81,0,0,1-1.81-1.81h0a1.81,1.81,0,0,1,1.81-1.81H199.4a1.81,1.81,0,0,1,1.81,1.81h0A1.81,1.81,0,0,1,199.4,210.67Z" transform="translate(-10.3 -39)" style="fill:#fff"/><image width="57" height="9" transform="translate(136.3 176.6)" xlink:href="3svg7.png" style="opacity:0.30000000000000004;mix-blend-mode:multiply"/><path d="M199.4,221.31H151.53a1.81,1.81,0,0,1-1.81-1.81h0a1.81,1.81,0,0,1,1.81-1.81H199.4a1.81,1.81,0,0,1,1.81,1.81h0A1.81,1.81,0,0,1,199.4,221.31Z" transform="translate(-10.3 -39)" style="fill:#fff"/><image width="31" height="10" transform="translate(149.3 186.6)" xlink:href="3svg8.png" style="opacity:0.30000000000000004;mix-blend-mode:multiply"/><path d="M185.9,231.94H165a1.81,1.81,0,0,1-1.81-1.81h0a1.81,1.81,0,0,1,1.81-1.81H185.9a1.81,1.81,0,0,1,1.81,1.81h0A1.81,1.81,0,0,1,185.9,231.94Z" transform="translate(-10.3 -39)" style="fill:#fff"/><circle cx="165.39" cy="132.66" r="14.92" style="fill:url(#linear-gradient-14)"/><path d="M175.68,186.18a14.52,14.52,0,1,1,14.52-14.52A14.53,14.53,0,0,1,175.68,186.18Z" transform="translate(-10.3 -39)" style="fill:#929bfc"/><image width="24" height="28" transform="translate(153.36 120.65)" xlink:href="3svg9.png" style="opacity:0.1;mix-blend-mode:multiply"/><circle cx="165.39" cy="127.49" r="5.17" style="fill:#fff"/><path d="M175.68,185.27a13.56,13.56,0,0,0,9.94-4.33,10.53,10.53,0,0,0-19.88,0A13.56,13.56,0,0,0,175.68,185.27Z" transform="translate(-10.3 -39)" style="fill:#fff"/><g style="clip-path:url(#clip-path-2)"><g style="opacity:0.30000000000000004;mix-blend-mode:multiply"><image width="148" height="95" transform="translate(118.7)" xlink:href="3svg10.png"/></g></g><path d="M240,72.86H171.78a3,3,0,0,0-3,3V87.23a3,3,0,0,0,3,3h5.88V95.5l5.24-5.22H240a3,3,0,0,0,3-3V75.91A3,3,0,0,0,240,72.86Z" transform="translate(-10.3 -39)" style="fill:url(#linear-gradient-15)"/></g></g></svg>