<?xml version="1.0" encoding="UTF-8" standalone="no"?><!-- Generator: Gravit.io --><svg xmlns="http://www.w3.org/2000/svg" xmlns:xlink="http://www.w3.org/1999/xlink" style="isolation:isolate" viewBox="0 0 50 50" width="50pt" height="50pt"><defs><clipPath id="_clipPath_3PAgoTIQ5ME2mC8nNOuVhPu1khfb4XDh"><rect width="50" height="50"/></clipPath></defs><g clip-path="url(#_clipPath_3PAgoTIQ5ME2mC8nNOuVhPu1khfb4XDh)"><g><g><g><path d=" M 25 0 C 11.214 0 0 11.214 0 25 C 0 29.703 1.307 34.268 3.786 38.233 C 2.798 41.692 1.014 48.237 0.995 48.305 C 0.903 48.643 1.002 49.005 1.255 49.248 C 1.508 49.491 1.873 49.578 2.206 49.476 L 12.115 46.428 C 15.997 48.766 20.442 50 25 50 C 38.786 50 50 38.786 50 25 C 50 11.214 38.786 0 25 0 Z  M 25 48.077 C 20.655 48.077 16.422 46.863 12.759 44.566 C 12.604 44.469 12.426 44.42 12.248 44.42 C 12.153 44.42 12.058 44.435 11.965 44.463 L 3.312 47.126 C 3.948 44.806 5.09 40.656 5.753 38.347 C 5.83 38.08 5.787 37.791 5.636 37.558 C 3.207 33.82 1.923 29.478 1.923 25 C 1.923 12.276 12.276 1.923 25 1.923 C 37.724 1.923 48.077 12.276 48.077 25 C 48.077 37.724 37.724 48.077 25 48.077 Z " fill="rgb(175,186,196)"/><path d=" M 41.332 30.89 C 39.557 29.905 38.045 28.916 36.942 28.195 C 36.1 27.645 35.491 27.248 35.045 27.024 C 33.798 26.402 32.853 26.841 32.493 27.205 C 32.448 27.25 32.408 27.299 32.373 27.351 C 31.078 29.294 29.387 31.153 28.891 31.253 C 28.319 31.163 25.641 29.641 22.98 27.425 C 20.263 25.161 18.553 22.992 18.302 21.515 C 20.045 19.721 20.673 18.592 20.673 17.308 C 20.673 15.984 17.585 10.456 17.026 9.897 C 16.465 9.337 15.203 9.25 13.273 9.635 C 13.088 9.672 12.916 9.763 12.782 9.897 C 12.548 10.131 7.081 15.705 9.679 22.461 C 12.531 29.875 19.851 38.493 29.184 39.893 C 30.244 40.052 31.238 40.131 32.169 40.131 C 37.66 40.131 40.9 37.368 41.813 31.888 C 41.881 31.488 41.688 31.088 41.332 30.89 Z  M 29.469 37.991 C 19.6 36.512 13.384 26.734 11.474 21.77 C 9.58 16.847 13.073 12.458 13.95 11.465 C 14.663 11.344 15.414 11.293 15.728 11.342 C 16.383 12.253 18.65 16.537 18.75 17.308 C 18.75 17.813 18.586 18.515 16.628 20.474 C 16.447 20.654 16.346 20.898 16.346 21.154 C 16.346 26.188 26.965 33.173 28.846 33.173 C 30.482 33.173 32.614 30.424 33.829 28.633 C 33.899 28.636 34.017 28.66 34.186 28.744 C 34.532 28.918 35.132 29.31 35.89 29.806 C 36.892 30.461 38.223 31.33 39.794 32.231 C 39.081 35.663 37.087 39.136 29.469 37.991 Z " fill="rgb(175,186,196)"/></g></g></g></g></svg>