<?xml version="1.0" encoding="UTF-8" standalone="no"?><!-- Generator: Gravit.io --><svg xmlns="http://www.w3.org/2000/svg" xmlns:xlink="http://www.w3.org/1999/xlink" style="isolation:isolate" viewBox="0 0 50 50" width="50pt" height="50pt"><defs><clipPath id="_clipPath_bKIrZzOHAvabW9Kyizh6yIGV7v84DMJ6"><rect width="50" height="50"/></clipPath></defs><g clip-path="url(#_clipPath_bKIrZzOHAvabW9Kyizh6yIGV7v84DMJ6)"><g><g><g><g><path d=" M 49.99 19.115 C 49.985 19.057 49.973 19.001 49.956 18.946 C 49.944 18.896 49.928 18.848 49.908 18.802 C 49.885 18.757 49.857 18.714 49.825 18.675 C 49.793 18.628 49.756 18.584 49.714 18.545 C 49.701 18.534 49.695 18.518 49.681 18.506 L 41.666 12.282 L 41.666 5.831 C 41.666 4.45 40.547 3.331 39.166 3.331 L 30.135 3.331 L 26.519 0.523 C 25.625 -0.174 24.373 -0.174 23.479 0.523 L 19.863 3.331 L 10.831 3.331 C 9.45 3.331 8.331 4.45 8.331 5.831 L 8.331 12.282 L 0.319 18.506 C 0.305 18.518 0.299 18.534 0.286 18.546 C 0.244 18.584 0.207 18.628 0.175 18.675 C 0.143 18.714 0.115 18.757 0.092 18.802 C 0.071 18.848 0.056 18.897 0.044 18.946 C 0.027 19 0.015 19.056 0.01 19.112 C 0.01 19.13 0 19.145 0 19.162 L 0 47.499 C 0.001 48.03 0.173 48.545 0.489 48.97 C 0.494 48.978 0.495 48.987 0.501 48.994 C 0.507 49 0.519 49.008 0.527 49.017 C 0.996 49.633 1.724 49.996 2.498 50 L 47.5 50 C 48.277 49.997 49.008 49.632 49.477 49.013 C 49.483 49.005 49.493 49.002 49.499 48.994 C 49.505 48.985 49.506 48.978 49.511 48.97 C 49.827 48.545 49.999 48.03 50 47.5 L 50 19.165 C 50 19.147 49.991 19.132 49.99 19.115 Z  M 24.499 1.838 C 24.79 1.607 25.202 1.607 25.493 1.838 L 27.415 3.331 L 22.582 3.331 L 24.499 1.838 Z  M 2.708 48.333 L 24.499 31.406 C 24.79 31.175 25.202 31.175 25.493 31.406 L 47.29 48.333 L 2.708 48.333 Z  M 48.333 47.034 L 26.519 30.091 C 25.625 29.395 24.373 29.395 23.479 30.091 L 1.664 47.034 L 1.664 20.434 L 15.321 31.039 C 15.685 31.321 16.208 31.255 16.49 30.891 C 16.773 30.527 16.706 30.003 16.342 29.721 L 2.468 18.948 L 8.331 14.392 L 8.331 20.831 C 8.331 21.292 8.704 21.665 9.165 21.665 C 9.625 21.665 9.998 21.292 9.998 20.831 L 9.998 5.831 C 9.998 5.37 10.371 4.997 10.831 4.997 L 39.166 4.997 C 39.626 4.997 39.999 5.37 39.999 5.831 L 39.999 20.831 C 39.999 21.292 40.372 21.665 40.833 21.665 C 41.293 21.665 41.666 21.292 41.666 20.831 L 41.666 14.392 L 47.529 18.948 L 33.631 29.74 C 33.392 29.921 33.268 30.217 33.308 30.515 C 33.347 30.812 33.544 31.065 33.822 31.177 C 34.1 31.289 34.417 31.244 34.652 31.057 L 48.333 20.434 L 48.333 47.034 L 48.333 47.034 Z " fill="rgb(175,186,196)"/><path d=" M 34.999 19.998 L 34.999 16.665 C 34.999 11.141 30.522 6.664 24.999 6.664 C 19.476 6.664 14.998 11.141 14.998 16.665 C 14.998 22.188 19.476 26.665 24.999 26.665 C 25.459 26.665 25.832 26.292 25.832 25.832 C 25.832 25.371 25.459 24.998 24.999 24.998 C 20.396 24.998 16.665 21.267 16.665 16.665 C 16.665 12.062 20.396 8.331 24.999 8.331 C 29.601 8.331 33.332 12.062 33.332 16.665 L 33.332 19.998 C 33.332 20.919 32.586 21.665 31.666 21.665 C 30.745 21.665 29.999 20.919 29.999 19.998 L 29.999 16.665 C 29.999 16.204 29.626 15.831 29.165 15.831 C 28.705 15.831 28.332 16.204 28.332 16.665 C 28.332 18.506 26.84 19.998 24.999 19.998 C 23.158 19.998 21.665 18.506 21.665 16.665 C 21.665 14.824 23.158 13.331 24.999 13.331 C 25.459 13.331 25.832 12.958 25.832 12.498 C 25.832 12.038 25.459 11.665 24.999 11.665 C 22.761 11.66 20.792 13.142 20.179 15.294 C 19.565 17.447 20.457 19.744 22.361 20.92 C 24.265 22.095 26.719 21.862 28.368 20.349 C 28.549 22.112 30.081 23.422 31.85 23.328 C 33.62 23.235 35.005 21.77 34.999 19.998 Z " fill="none"/></g></g></g></g></g></svg>