<?xml version="1.0" encoding="UTF-8" standalone="no"?><!-- Generator: Gravit.io --><svg xmlns="http://www.w3.org/2000/svg" xmlns:xlink="http://www.w3.org/1999/xlink" style="isolation:isolate" viewBox="0 0 50 50" width="50pt" height="50pt"><defs><clipPath id="_clipPath_z7n15iNANZS9Bd6oGyqv9OAjcAhJyFCj"><rect width="50" height="50"/></clipPath></defs><g clip-path="url(#_clipPath_z7n15iNANZS9Bd6oGyqv9OAjcAhJyFCj)"><g><g><g><path d=" M 29.167 2.5 L 20.833 2.5 C 20.373 2.5 20 2.873 20 3.333 C 20 3.793 20.373 4.167 20.833 4.167 L 29.167 4.167 C 29.627 4.167 30 3.793 30 3.333 C 30 2.873 29.627 2.5 29.167 2.5 Z " fill="rgb(175,186,196)"/></g></g><g><g><path d=" M 35 2.5 L 34.167 2.5 C 33.707 2.5 33.333 2.873 33.333 3.333 C 33.333 3.793 33.707 4.167 34.167 4.167 L 35 4.167 C 35.46 4.167 35.833 3.793 35.833 3.333 C 35.833 2.873 35.46 2.5 35 2.5 Z " fill="rgb(175,186,196)"/></g></g><g><g><path d=" M 26.035 42.5 L 23.966 42.5 C 22.698 42.5 21.667 43.532 21.667 44.799 L 21.667 45.202 C 21.667 46.469 22.698 47.5 23.965 47.5 L 26.034 47.5 C 27.302 47.5 28.333 46.469 28.333 45.202 L 28.333 44.799 C 28.333 43.532 27.302 42.5 26.035 42.5 Z  M 26.667 45.202 C 26.667 45.55 26.383 45.833 26.035 45.833 L 23.966 45.833 C 23.617 45.833 23.333 45.55 23.333 45.202 L 23.333 44.799 C 23.333 44.45 23.617 44.167 23.966 44.167 L 26.034 44.167 C 26.383 44.167 26.667 44.45 26.667 44.799 L 26.667 45.202 L 26.667 45.202 Z " fill="rgb(175,186,196)"/></g></g><g><g><path d=" M 36.155 0 L 13.846 0 C 12.185 0 10.833 1.352 10.833 3.012 L 10.833 46.988 C 10.833 48.648 12.185 50 13.846 50 L 36.154 50 C 37.815 50 39.167 48.648 39.167 46.988 L 39.167 3.012 C 39.167 1.352 37.815 0 36.155 0 Z  M 37.5 46.988 C 37.5 47.729 36.897 48.333 36.155 48.333 L 13.846 48.333 C 13.103 48.333 12.5 47.729 12.5 46.988 L 12.5 3.012 C 12.5 2.271 13.103 1.667 13.846 1.667 L 36.154 1.667 C 36.897 1.667 37.5 2.271 37.5 3.012 L 37.5 46.988 L 37.5 46.988 Z " fill="rgb(175,186,196)"/></g></g><g><g><path d=" M 38.333 5 L 11.667 5 C 11.207 5 10.833 5.373 10.833 5.833 L 10.833 40.833 C 10.833 41.293 11.207 41.667 11.667 41.667 L 38.333 41.667 C 38.793 41.667 39.167 41.293 39.167 40.833 L 39.167 5.833 C 39.167 5.373 38.793 5 38.333 5 Z  M 37.5 40 L 12.5 40 L 12.5 6.667 L 37.5 6.667 L 37.5 40 Z " fill="rgb(175,186,196)"/></g></g></g></g></svg>