<?xml version="1.0" encoding="UTF-8" standalone="no"?><!-- Generator: Gravit.io --><svg xmlns="http://www.w3.org/2000/svg" xmlns:xlink="http://www.w3.org/1999/xlink" style="isolation:isolate" viewBox="0 0 50 50" width="50pt" height="50pt"><defs><clipPath id="_clipPath_BF27VJzuoT08mrhuRJlFlDHcgHxXmtVo"><rect width="50" height="50"/></clipPath></defs><g clip-path="url(#_clipPath_BF27VJzuoT08mrhuRJlFlDHcgHxXmtVo)"><g><path d=" M 41.748 41.535 L 32.781 24.674 C 32.289 23.748 31.669 22.897 30.938 22.145 C 30.58 21.777 30.159 21.437 29.651 21.105 L 29.135 20.768 L 33.969 12.396 L 34.255 12.56 C 35.415 13.23 36.861 13.148 37.938 12.352 L 43.651 8.13 C 43.955 7.906 44.124 7.546 44.103 7.168 C 44.082 6.79 43.873 6.452 43.545 6.262 L 38.5 3.35 L 33.455 0.437 C 33.127 0.247 32.73 0.236 32.392 0.407 C 32.054 0.577 31.827 0.903 31.785 1.279 L 30.985 8.338 C 30.834 9.669 31.486 10.962 32.646 11.632 L 32.932 11.796 L 28.098 20.169 L 27.571 19.902 C 26.963 19.594 26.338 19.367 25.715 19.227 C 24.789 19.02 23.84 18.931 22.892 18.964 L 3.807 19.63 C 2.871 19.662 2.037 20.169 1.576 20.985 C 1.115 21.801 1.112 22.777 1.568 23.595 C 1.576 23.609 1.584 23.622 1.592 23.636 L 11.126 37.99 C 11.222 38.135 11.293 38.254 11.349 38.363 L 11.379 38.42 C 11.517 38.696 11.624 39.008 11.704 39.373 L 13.215 46.261 C 13.217 46.269 13.221 46.277 13.223 46.285 C 13.226 46.295 13.226 46.304 13.229 46.314 C 13.233 46.327 13.24 46.339 13.245 46.352 C 13.252 46.368 13.258 46.384 13.265 46.399 C 13.276 46.421 13.288 46.441 13.302 46.461 C 13.31 46.473 13.318 46.487 13.327 46.499 C 13.344 46.52 13.362 46.539 13.381 46.557 C 13.39 46.566 13.397 46.575 13.406 46.583 C 13.435 46.608 13.467 46.631 13.5 46.651 C 13.5 46.651 13.5 46.651 13.5 46.651 C 13.5 46.651 13.5 46.651 13.5 46.651 C 13.534 46.67 13.569 46.686 13.606 46.698 C 13.617 46.702 13.629 46.704 13.64 46.707 C 13.666 46.714 13.692 46.721 13.718 46.724 C 13.733 46.726 13.749 46.726 13.764 46.727 C 13.788 46.729 13.811 46.73 13.835 46.728 C 13.852 46.727 13.869 46.725 13.886 46.722 C 13.9 46.72 13.913 46.72 13.927 46.717 C 13.937 46.715 13.945 46.711 13.955 46.708 C 13.963 46.706 13.972 46.705 13.98 46.703 L 20.701 44.567 C 21.057 44.454 21.38 44.39 21.687 44.373 L 21.752 44.369 C 21.876 44.364 22.014 44.366 22.187 44.377 L 39.385 45.456 C 39.401 45.457 39.416 45.457 39.432 45.457 C 40.369 45.442 41.213 44.951 41.689 44.144 C 42.166 43.338 42.187 42.362 41.748 41.535 Z  M 22.324 20.183 C 22.86 21.461 25.448 23.079 26.722 23.814 C 27.981 24.541 30.646 25.956 32.012 25.777 L 39.263 39.413 C 37.431 39.147 31.259 36.516 22.429 31.418 C 13.501 26.263 8.065 22.191 6.894 20.721 L 22.324 20.183 Z  M 33.245 10.594 C 32.498 10.163 32.078 9.33 32.175 8.473 L 32.961 1.535 L 37.901 4.387 L 42.841 7.239 L 37.226 11.389 C 36.532 11.902 35.601 11.954 34.853 11.523 L 34.049 11.059 L 33.245 10.594 Z  M 25.453 20.396 C 25.979 20.514 26.51 20.708 27.03 20.971 L 28.033 21.479 L 28.996 22.108 C 29.429 22.391 29.784 22.676 30.079 22.98 C 30.547 23.461 30.962 23.99 31.322 24.555 C 30.584 24.383 29.188 23.855 27.321 22.777 C 25.432 21.686 24.26 20.731 23.733 20.17 C 24.311 20.196 24.887 20.269 25.453 20.396 Z  M 3.849 20.827 L 5.543 20.768 C 5.835 21.48 6.924 22.656 10 24.902 C 13.044 27.126 17.246 29.809 21.83 32.455 C 26.402 35.095 30.79 37.372 34.187 38.867 C 37.603 40.37 39.142 40.712 39.896 40.605 L 40.69 42.097 C 40.932 42.553 40.92 43.091 40.658 43.536 C 40.637 43.572 40.612 43.605 40.588 43.638 C 40.582 43.639 40.576 43.637 40.569 43.638 C 38.471 43.802 30.921 40.835 20.551 34.848 C 15.56 31.966 10.953 28.964 7.58 26.393 C 3.22 23.071 2.688 21.84 2.624 21.567 C 2.878 21.122 3.335 20.845 3.849 20.827 Z  M 22.262 43.181 C 22.044 43.168 21.864 43.165 21.696 43.173 L 21.62 43.177 C 21.21 43.201 20.791 43.282 20.338 43.426 L 14.244 45.363 L 12.873 39.116 C 12.772 38.652 12.633 38.249 12.448 37.88 L 12.415 37.815 C 12.337 37.665 12.245 37.51 12.124 37.328 L 3.853 24.875 C 4.601 25.559 5.576 26.373 6.853 27.346 C 10.266 29.947 14.918 32.979 19.951 35.885 C 26.73 39.799 33.01 42.793 37.032 44.108 L 22.262 43.181 Z " fill="rgb(175,186,196)"/></g></g></svg>